<svg xmlns="http://www.w3.org/2000/svg" xmlns:xlink="http://www.w3.org/1999/xlink" width="125" height="125" viewBox="0 0 125 125">
  <defs>
    <linearGradient id="linear-gradient" x1="0.5" x2="0.5" y2="1" gradientUnits="objectBoundingBox">
      <stop offset="0" stop-color="#81c7c5"/>
      <stop offset="1" stop-color="#c2f8f6"/>
    </linearGradient>
    <clipPath id="clip-path">
      <rect id="Rectángulo_403512" data-name="Rectángulo 403512" width="63.491" height="57.091" fill="url(#linear-gradient)"/>
    </clipPath>
  </defs>
  <g id="Grupo_1103246" data-name="Grupo 1103246" transform="translate(-527 -3748.753)">
    <g id="Grupo_1102833" data-name="Grupo 1102833" transform="translate(261.949 -973.247)">
      <circle id="Elipse_11555" data-name="Elipse 11555" cx="62.5" cy="62.5" r="62.5" transform="translate(265.051 4722)" fill="#c0e6e5"/>
      <circle id="Elipse_11550" data-name="Elipse 11550" cx="60" cy="60" r="60" transform="translate(266.051 4725)" fill="#fff"/>
      <path id="Trazado_924878" data-name="Trazado 924878" d="M-8377-6842.439s16-32.561,52.5-30.061" transform="translate(8654.051 11608)" fill="none" stroke="#4bb1a3" stroke-width="2" stroke-dasharray="6 6"/>
      <path id="Trazado_924879" data-name="Trazado 924879" d="M-8377-6842.439s16-32.561,52.5-30.061" transform="translate(-6974.359 -3129.843) rotate(-172)" fill="none" stroke="#4bb1a3" stroke-width="2" stroke-dasharray="6 6"/>
    </g>
    <g id="Grupo_1103155" data-name="Grupo 1103155" transform="translate(557.255 3782.708)">
      <g id="Grupo_1103154" data-name="Grupo 1103154" transform="translate(0 0)" clip-path="url(#clip-path)">
        <path id="Trazado_925401" data-name="Trazado 925401" d="M54.449,50.3c.059.342.1.62.155.9a1.354,1.354,0,0,1-1.3,1.825c-2.912.384-5.822.778-8.733,1.166-.323.044-.649.071-1.043.113,0,.24-.016.436,0,.629.139,1.415-.245,1.936-1.675,1.961q-7.949.141-15.9.2c-1.24.01-2.481-.116-3.723-.16-2.187-.078-2.452-.355-2.3-2.6-1.613-.186-3.237-.359-4.857-.564-1.313-.166-2.623-.359-3.931-.559-2.374-.363-2.5-.531-2.167-2.918-1.341-.346-2.7-.666-4.044-1.053A30.671,30.671,0,0,1,1.887,48.2C-.154,47.367-.327,46.936.371,44.816Q6.152,27.263,11.919,9.7a8.749,8.749,0,0,0,.4-2.417c.059-1.82.009-3.644.022-5.466C12.351.384,12.733.011,14.2.005c2.319-.01,4.638,0,6.958,0Q35.079,0,49,0C50.847,0,51.232.3,51.1,2.176a30.89,30.89,0,0,0,1.961,12.367c3.5,10.119,6.755,20.322,10.108,30.491.6,1.825.458,2.351-1.362,3.033-2.006.752-4.1,1.281-6.15,1.9-.39.118-.785.217-1.211.333M22.5,54.494H40.961L35.12,10.048H28.342C26.4,24.854,24.463,39.572,22.5,54.494m29.4-3.7c-.071-.424-.089-.589-.128-.748q-2.151-9.05-4.3-18.1c-.2-.856-.44-1.847.761-2.136,1.167-.281,1.45.613,1.661,1.522.653,2.82,1.324,5.635,1.994,8.45.629,2.642,1.266,5.282,1.95,8.13l6.994-1.96c-.2-.618-.308-.969-.423-1.318Q55.234,28.913,50.054,13.191C48.936,9.8,48.933,9.8,45.341,9.963a3.793,3.793,0,0,0-.472.094c.385,1.653.765,3.294,1.15,4.932.455,1.932.967,3.853,1.332,5.8a1.9,1.9,0,0,1-.541,1.477c-.232.217-.984.12-1.332-.1a2.026,2.026,0,0,1-.579-1.173c-.828-3.373-1.612-6.756-2.458-10.124-.086-.344-.467-.85-.739-.87-1.308-.091-2.627-.041-4.073-.041,1.842,14.017,3.665,27.888,5.505,41.9L51.9,50.8M25.835,9.954a24.126,24.126,0,0,1-3.02-.024c-1.3-.174-1.739.351-2.024,1.585-2.08,9.021-4.244,18.022-6.378,27.031-.951,4.013-1.891,8.028-2.884,12.248l8.8,1.054c1.842-14.02,3.66-27.864,5.5-41.894M9.637,47.92l9-37.966c-1.037,0-1.948.069-2.843-.019-.989-.1-1.416.237-1.733,1.22-2.409,7.468-4.9,14.911-7.354,22.363C5.362,37.591,4.03,41.666,2.621,45.961L9.637,47.92M14.89,7.374H48.572V2.561H14.89Z" transform="translate(0 0)" fill="url(#linear-gradient)"/>
        <path id="Trazado_925402" data-name="Trazado 925402" d="M71.017,40.7c-.518-.878-1.08-1.408-1.031-1.873.043-.412.86-1.121,1.167-1.042a1.825,1.825,0,0,1,1.12,1.258c.05.382-.615.857-1.256,1.658" transform="translate(-23.737 -12.812)" fill="url(#linear-gradient)"/>
      </g>
    </g>
  </g>
</svg>
