<svg xmlns="http://www.w3.org/2000/svg" xmlns:xlink="http://www.w3.org/1999/xlink" width="668.696" height="620.695" viewBox="0 0 668.696 620.695">
  <defs>
    <clipPath id="clip-path">
      <rect id="Rectángulo_403286" data-name="Rectángulo 403286" width="281.271" height="197.549" fill="none"/>
    </clipPath>
    <clipPath id="clip-path-2">
      <rect id="Rectángulo_403305" data-name="Rectángulo 403305" width="324.299" height="245.928" fill="none"/>
    </clipPath>
    <clipPath id="clip-path-3">
      <rect id="Rectángulo_403306" data-name="Rectángulo 403306" width="116.371" height="165.225" fill="none"/>
    </clipPath>
  </defs>
  <g id="Grupo_1103043" data-name="Grupo 1103043" transform="translate(-459.652 -8891.133)">
    <g id="Grupo_1102921" data-name="Grupo 1102921" transform="translate(459.652 9133.505)">
      <rect id="Rectángulo_403268" data-name="Rectángulo 403268" width="5.203" height="56.176" transform="translate(54.931 118.746) rotate(-24.672)" fill="#4bb1a3"/>
      <rect id="Rectángulo_403269" data-name="Rectángulo 403269" width="5.203" height="56.176" transform="matrix(0.782, -0.623, 0.623, 0.782, 56.186, 117.501)" fill="#4bb1a3"/>
      <rect id="Rectángulo_403270" data-name="Rectángulo 403270" width="5.203" height="56.176" transform="translate(31.956 133.377) rotate(-24.672)" fill="#4bb1a3"/>
      <rect id="Rectángulo_403271" data-name="Rectángulo 403271" width="5.203" height="56.176" transform="matrix(0.782, -0.623, 0.623, 0.782, 33.211, 132.132)" fill="#4bb1a3"/>
      <rect id="Rectángulo_403272" data-name="Rectángulo 403272" width="5.203" height="56.176" transform="matrix(0.909, -0.417, 0.417, 0.909, 9.434, 144.769)" fill="#4bb1a3"/>
      <rect id="Rectángulo_403273" data-name="Rectángulo 403273" width="5.203" height="56.176" transform="translate(10.689 143.523) rotate(-38.561)" fill="#4bb1a3"/>
      <rect id="Rectángulo_403274" data-name="Rectángulo 403274" width="5.203" height="56.176" transform="translate(77.448 106.767) rotate(-24.672)" fill="#4bb1a3"/>
      <rect id="Rectángulo_403275" data-name="Rectángulo 403275" width="5.203" height="56.176" transform="matrix(0.782, -0.623, 0.623, 0.782, 78.703, 105.522)" fill="#4bb1a3"/>
      <rect id="Rectángulo_403276" data-name="Rectángulo 403276" width="5.203" height="56.176" transform="translate(102.363 93.687) rotate(-24.672)" fill="#4bb1a3"/>
      <rect id="Rectángulo_403277" data-name="Rectángulo 403277" width="5.203" height="56.176" transform="matrix(0.782, -0.623, 0.623, 0.782, 103.618, 92.441)" fill="#4bb1a3"/>
      <rect id="Rectángulo_403278" data-name="Rectángulo 403278" width="5.204" height="56.176" transform="matrix(0.898, -0.44, 0.44, 0.898, 122.594, 78.733)" fill="#4bb1a3"/>
      <rect id="Rectángulo_403279" data-name="Rectángulo 403279" width="5.204" height="56.176" transform="matrix(0.766, -0.642, 0.642, 0.766, 123.819, 77.455)" fill="#4bb1a3"/>
      <rect id="Rectángulo_403280" data-name="Rectángulo 403280" width="5.204" height="56.176" transform="matrix(0.898, -0.44, 0.44, 0.898, 168.995, 50.265)" fill="#4bb1a3"/>
      <rect id="Rectángulo_403281" data-name="Rectángulo 403281" width="5.204" height="56.176" transform="matrix(0.766, -0.642, 0.642, 0.766, 170.22, 48.987)" fill="#4bb1a3"/>
      <rect id="Rectángulo_403282" data-name="Rectángulo 403282" width="5.204" height="56.176" transform="matrix(0.898, -0.44, 0.44, 0.898, 192.724, 36.893)" fill="#4bb1a3"/>
      <rect id="Rectángulo_403283" data-name="Rectángulo 403283" width="5.204" height="56.176" transform="matrix(0.766, -0.642, 0.642, 0.766, 193.949, 35.615)" fill="#4bb1a3"/>
      <rect id="Rectángulo_403284" data-name="Rectángulo 403284" width="5.203" height="56.176" transform="translate(146.862 65.706) rotate(-24.672)" fill="#4bb1a3"/>
      <rect id="Rectángulo_403285" data-name="Rectángulo 403285" width="5.203" height="56.176" transform="matrix(0.782, -0.623, 0.623, 0.782, 148.117, 64.46)" fill="#4bb1a3"/>
      <g id="Grupo_1102920" data-name="Grupo 1102920">
        <g id="Grupo_1102919" data-name="Grupo 1102919" clip-path="url(#clip-path)">
          <path id="Trazado_925050" data-name="Trazado 925050" d="M179.744,0c19.277,10.7,37.646,22.777,55.9,35.091C253.786,47.554,271.7,60.314,288.7,74.348c-19.266-10.714-37.678-22.74-55.9-35.091C214.678,26.751,196.739,14.048,179.744,0" transform="translate(-28.547)" fill="#727997"/>
          <path id="Trazado_925060" data-name="Trazado 925060" d="M319.988,165.784a8.744,8.744,0,0,1-5.146-2.04,29.948,29.948,0,0,0-18.14-5.624l-.157-7a37.042,37.042,0,0,1,21.633,6.411l.016-4.242c0-1.8-1.231-4.025-2.483-4.489-10.825-4.3-25.841-4.3-36.592-.029a6.854,6.854,0,0,1-6.68-.334c-1.074-.715-2.875-2.456-2.878-6.086V137.3c0-5.1,3.452-9.185,8.02-9.507a235.232,235.232,0,0,1,39.675.007,1.286,1.286,0,0,0,.938-1.443v-6.05c-12.11,1.91-27.956,2.018-39.919-.471-4.348-.8-7.685-5.106-7.688-9.99V105.6a6.371,6.371,0,0,1,2.834-5.769c1.124-.7,3.542-1.614,7.107.134,10.535,4.981,24.534,4.773,34.79-.54a5.724,5.724,0,0,0,2.306-2.86A36.829,36.829,0,0,1,272.016,92.5l4.821-5.075a29.818,29.818,0,0,0,38.035,2.532c3.449-2.56,5.927-2.223,7.393-1.485,1.093.549,2.926,2.006,2.928,5.585,0,4.035-2.36,9.474-6.725,11.615-11.99,6.212-28.417,6.484-40.856.654l-.026,3.52c0,1.437.972,2.926,2.038,3.124a94.224,94.224,0,0,0,36.526-.224,7.139,7.139,0,0,1,6.227,1.191,7.834,7.834,0,0,1,2.817,6.37v6.054a8.647,8.647,0,0,1-2.747,6.594,7.478,7.478,0,0,1-5.924,1.808,231.272,231.272,0,0,0-38.368.008c-.9.064-1.593,1.222-1.595,2.534v5.044c12.441-5.034,29.192-5.034,41.659-.083,4.5,1.668,6.972,6.931,6.974,11.022v6.376c0,3.582-1.835,5.038-2.928,5.587A5.022,5.022,0,0,1,319.988,165.784Z" transform="translate(-43.367 -14.288)" fill="#727997"/>
          <path id="Trazado_925061" data-name="Trazado 925061" d="M321.354,122.908l-3.126-3.126a12.466,12.466,0,0,0,0-17.61l3.126-3.126a16.892,16.892,0,0,1,0,23.862" transform="translate(-50.54 -15.73)" fill="#81c7c5"/>
          <path id="Trazado_925062" data-name="Trazado 925062" d="M319.773,155.322l-2.964-2.963a11.82,11.82,0,0,0,0-16.7l2.964-2.963a16.015,16.015,0,0,1,0,22.624" transform="translate(-50.315 -21.075)" fill="#81c7c5"/>
          <path id="Trazado_925063" data-name="Trazado 925063" d="M284.331,111.339h0a2.139,2.139,0,0,1-2.139-2.139V90.81a2.139,2.139,0,1,1,4.278,0V109.2a2.139,2.139,0,0,1-2.139,2.139" transform="translate(-44.817 -14.082)" fill="#81c7c5"/>
          <path id="Trazado_925064" data-name="Trazado 925064" d="M284.331,141.159h0a2.139,2.139,0,0,1-2.139-2.139V122.439a2.139,2.139,0,1,1,4.278,0V139.02a2.139,2.139,0,0,1-2.139,2.139" transform="translate(-44.817 -19.106)" fill="#81c7c5"/>
          <path id="Trazado_925065" data-name="Trazado 925065" d="M37.32,212.1l-.565-8.982,7.319-.46a9.7,9.7,0,0,0,7.623-4.568,18.711,18.711,0,0,1,14.717-8.817,9.7,9.7,0,0,0,7.624-4.567,18.713,18.713,0,0,1,14.714-8.818,9.7,9.7,0,0,0,7.631-4.567A18.717,18.717,0,0,1,111.1,162.5a9.7,9.7,0,0,0,7.629-4.567,18.719,18.719,0,0,1,14.715-8.82,9.709,9.709,0,0,0,7.634-4.568,18.718,18.718,0,0,1,14.716-8.82,9.705,9.705,0,0,0,7.633-4.567,18.718,18.718,0,0,1,14.718-8.82,9.7,9.7,0,0,0,7.629-4.567,18.72,18.72,0,0,1,14.713-8.821,9.71,9.71,0,0,0,7.638-4.567,18.727,18.727,0,0,1,14.712-8.825,9.708,9.708,0,0,0,7.646-4.565l3.869-6.248L242,89.483l-3.869,6.248a18.711,18.711,0,0,1-14.7,8.807,9.707,9.707,0,0,0-7.646,4.568,18.726,18.726,0,0,1-14.716,8.825,9.71,9.71,0,0,0-7.638,4.567,18.717,18.717,0,0,1-14.718,8.821,9.7,9.7,0,0,0-7.629,4.566,18.72,18.72,0,0,1-14.716,8.821,9.706,9.706,0,0,0-7.634,4.567,18.721,18.721,0,0,1-14.714,8.821,9.706,9.706,0,0,0-7.635,4.567,18.719,18.719,0,0,1-14.716,8.82,9.7,9.7,0,0,0-7.63,4.568,18.712,18.712,0,0,1-14.714,8.818,9.7,9.7,0,0,0-7.631,4.567,18.717,18.717,0,0,1-14.717,8.819,9.7,9.7,0,0,0-7.626,4.567,18.711,18.711,0,0,1-14.713,8.817Z" transform="translate(-5.882 -13.835)" fill="#727997"/>
          <path id="Trazado_925066" data-name="Trazado 925066" d="M7.652,156.715,0,151.976c2.375-3.836,4.453-5,8.235-4.6a12.6,12.6,0,0,0,2.336.078,9.708,9.708,0,0,0,7.647-4.567,18.726,18.726,0,0,1,14.715-8.824A9.709,9.709,0,0,0,40.57,129.5a18.718,18.718,0,0,1,14.718-8.821,9.7,9.7,0,0,0,7.629-4.566,18.72,18.72,0,0,1,14.716-8.821,9.705,9.705,0,0,0,7.634-4.568A18.722,18.722,0,0,1,99.981,93.9a9.706,9.706,0,0,0,7.635-4.567,18.719,18.719,0,0,1,14.716-8.82,9.7,9.7,0,0,0,7.63-4.568,18.712,18.712,0,0,1,14.714-8.818,9.7,9.7,0,0,0,7.631-4.567,18.717,18.717,0,0,1,14.717-8.819,9.7,9.7,0,0,0,7.626-4.567,18.711,18.711,0,0,1,14.713-8.817l7.319-.46.565,8.982-7.319.46A9.7,9.7,0,0,0,182.3,53.91a18.711,18.711,0,0,1-14.717,8.817,9.7,9.7,0,0,0-7.624,4.567,18.713,18.713,0,0,1-14.714,8.818,9.7,9.7,0,0,0-7.631,4.567A18.717,18.717,0,0,1,122.9,89.5a9.7,9.7,0,0,0-7.629,4.567,18.719,18.719,0,0,1-14.715,8.82,9.709,9.709,0,0,0-7.634,4.568,18.718,18.718,0,0,1-14.716,8.82,9.705,9.705,0,0,0-7.633,4.567,18.721,18.721,0,0,1-14.717,8.82,9.7,9.7,0,0,0-7.629,4.567,18.72,18.72,0,0,1-14.713,8.821,9.71,9.71,0,0,0-7.638,4.567,18.731,18.731,0,0,1-14.711,8.825,20.458,20.458,0,0,1-3.312-.051Z" transform="translate(-0.608 -7.05)" fill="#4bb1a3"/>
          <path id="Trazado_925059" data-name="Trazado 925059" d="M230.049,52.791h0a4.28,4.28,0,0,1,1.327-5.9l4.991-3.158a4.279,4.279,0,0,1,4.576,7.232l-4.99,3.158a4.279,4.279,0,0,1-5.9-1.327" transform="translate(-36.43 -7.84)" fill="#81c7c5"/>
          <path id="Trazado_925058" data-name="Trazado 925058" d="M202.919,68.7h0a4.28,4.28,0,0,1,1.327-5.9l4.991-3.158a4.279,4.279,0,0,1,4.576,7.232l-4.99,3.158a4.279,4.279,0,0,1-5.9-1.327" transform="translate(-32.122 -10.367)" fill="#81c7c5"/>
          <path id="Trazado_925057" data-name="Trazado 925057" d="M173.988,84.6h0a4.28,4.28,0,0,1,1.327-5.9l4.991-3.158a4.279,4.279,0,0,1,4.576,7.232l-4.99,3.158a4.279,4.279,0,0,1-5.9-1.327" transform="translate(-27.527 -12.891)" fill="#81c7c5"/>
          <path id="Trazado_925056" data-name="Trazado 925056" d="M144.118,101.11h0a4.28,4.28,0,0,1,1.327-5.9l4.991-3.158a4.279,4.279,0,0,1,4.576,7.232l-4.99,3.158a4.279,4.279,0,0,1-5.9-1.327" transform="translate(-22.783 -15.513)" fill="#81c7c5"/>
          <path id="Trazado_925055" data-name="Trazado 925055" d="M119.232,117.468h0a4.28,4.28,0,0,1,1.327-5.9l4.991-3.158a4.279,4.279,0,0,1,4.576,7.232l-4.99,3.158a4.279,4.279,0,0,1-5.9-1.327" transform="translate(-18.831 -18.111)" fill="#81c7c5"/>
          <path id="Trazado_925054" data-name="Trazado 925054" d="M91.2,133.694h0a4.28,4.28,0,0,1,1.327-5.9l4.991-3.158a4.279,4.279,0,0,1,4.576,7.232l-4.99,3.158a4.279,4.279,0,0,1-5.9-1.327" transform="translate(-14.379 -20.688)" fill="#81c7c5"/>
          <path id="Trazado_925053" data-name="Trazado 925053" d="M63.75,148.434h0a4.28,4.28,0,0,1,1.327-5.9l4.991-3.158a4.279,4.279,0,0,1,4.576,7.232l-4.99,3.158a4.279,4.279,0,0,1-5.9-1.327" transform="translate(-10.019 -23.029)" fill="#81c7c5"/>
          <path id="Trazado_925052" data-name="Trazado 925052" d="M10.747,177.866h0a4.28,4.28,0,0,1,1.327-5.9l4.991-3.158a4.279,4.279,0,0,1,4.576,7.232l-4.99,3.158a4.279,4.279,0,0,1-5.9-1.327" transform="translate(-1.601 -27.704)" fill="#81c7c5"/>
          <path id="Trazado_925051" data-name="Trazado 925051" d="M35.748,165.435h0a4.277,4.277,0,0,1,1.327-5.9l4.99-3.158a4.279,4.279,0,1,1,4.577,7.232l-4.991,3.158a4.277,4.277,0,0,1-5.9-1.328" transform="translate(-5.572 -25.729)" fill="#81c7c5"/>
        </g>
      </g>
    </g>
    <path id="Trazado_925084" data-name="Trazado 925084" d="M16,1.5v-3h8v3Zm-8,0H0v-3H8Zm56,0v-3h8v3Zm-8,0H48v-3h8Zm-16,0H32v-3h8Zm44.092,0H80v-3h4.092Z" transform="matrix(-0.875, 0.485, -0.485, -0.875, 778.813, 9127.611)" fill="#de8561"/>
    <path id="Trazado_925085" data-name="Trazado 925085" d="M84.092,1.5H80v-3h4.092ZM72,1.5H64v-3h8Zm-16,0H48v-3h8Zm-16,0H32v-3h8Zm-16,0H16v-3h8ZM8,1.5H0v-3H8Z" transform="translate(820.67 9336.002) rotate(-149)" fill="#de8561"/>
    <path id="Polígono_5" data-name="Polígono 5" d="M10.935,7.863,7.01,14.506h7.851L10.935,7.863m0-7.863L21.871,18.506H0Z" transform="translate(795.665 9104.267) rotate(60)" fill="#de8561"/>
    <path id="Polígono_6" data-name="Polígono 6" d="M10.935,7.863,7.01,14.506h7.851L10.935,7.863m0-7.863L21.871,18.506H0Z" transform="translate(849.313 9338.924) rotate(120)" fill="#de8561"/>
    <rect id="Rectángulo_403112" data-name="Rectángulo 403112" width="259.481" height="277.247" rx="45" transform="translate(829.547 8891.133)" fill="#efc6ca" opacity="0.25"/>
    <rect id="Rectángulo_403307" data-name="Rectángulo 403307" width="168.481" height="236.232" rx="45" transform="translate(849.547 9275.596)" fill="#efc6ca" opacity="0.25"/>
    <g id="Grupo_1102924" data-name="Grupo 1102924" transform="translate(804.049 8891.133)">
      <rect id="Rectángulo_403287" data-name="Rectángulo 403287" width="6.503" height="70.202" transform="translate(67.842 148.394) rotate(-24.672)" fill="#4bb1a3"/>
      <rect id="Rectángulo_403288" data-name="Rectángulo 403288" width="6.503" height="70.202" transform="matrix(0.782, -0.623, 0.623, 0.782, 69.413, 146.835)" fill="#4bb1a3"/>
      <rect id="Rectángulo_403289" data-name="Rectángulo 403289" width="6.503" height="70.202" transform="translate(39.131 166.678) rotate(-24.672)" fill="#4bb1a3"/>
      <rect id="Rectángulo_403290" data-name="Rectángulo 403290" width="6.503" height="70.202" transform="matrix(0.782, -0.623, 0.623, 0.782, 40.702, 165.118)" fill="#4bb1a3"/>
      <rect id="Rectángulo_403291" data-name="Rectángulo 403291" width="6.503" height="70.202" transform="translate(10.986 180.913) rotate(-24.672)" fill="#4bb1a3"/>
      <rect id="Rectángulo_403292" data-name="Rectángulo 403292" width="6.503" height="70.202" transform="translate(12.557 179.354) rotate(-38.556)" fill="#4bb1a3"/>
      <rect id="Rectángulo_403293" data-name="Rectángulo 403293" width="6.503" height="70.202" transform="matrix(0.909, -0.417, 0.417, 0.909, 95.981, 133.424)" fill="#4bb1a3"/>
      <rect id="Rectángulo_403294" data-name="Rectángulo 403294" width="6.503" height="70.202" transform="matrix(0.782, -0.623, 0.623, 0.782, 97.552, 131.865)" fill="#4bb1a3"/>
      <rect id="Rectángulo_403295" data-name="Rectángulo 403295" width="6.503" height="70.202" transform="matrix(0.909, -0.417, 0.417, 0.909, 127.117, 117.077)" fill="#4bb1a3"/>
      <rect id="Rectángulo_403296" data-name="Rectángulo 403296" width="6.503" height="70.202" transform="matrix(0.782, -0.623, 0.623, 0.782, 128.688, 115.518)" fill="#4bb1a3"/>
      <rect id="Rectángulo_403297" data-name="Rectángulo 403297" width="6.503" height="70.202" transform="translate(152.396 98.392) rotate(-26.091)" fill="#4bb1a3"/>
      <rect id="Rectángulo_403298" data-name="Rectángulo 403298" width="6.502" height="70.202" transform="translate(153.93 96.794) rotate(-39.973)" fill="#4bb1a3"/>
      <rect id="Rectángulo_403299" data-name="Rectángulo 403299" width="6.503" height="70.202" transform="translate(210.382 62.816) rotate(-26.091)" fill="#4bb1a3"/>
      <rect id="Rectángulo_403300" data-name="Rectángulo 403300" width="6.502" height="70.202" transform="translate(211.915 61.218) rotate(-39.973)" fill="#4bb1a3"/>
      <rect id="Rectángulo_403301" data-name="Rectángulo 403301" width="6.503" height="70.202" transform="translate(240.035 46.106) rotate(-26.091)" fill="#4bb1a3"/>
      <rect id="Rectángulo_403302" data-name="Rectángulo 403302" width="6.502" height="70.202" transform="translate(241.568 44.507) rotate(-39.973)" fill="#4bb1a3"/>
      <rect id="Rectángulo_403303" data-name="Rectángulo 403303" width="6.503" height="70.202" transform="matrix(0.909, -0.417, 0.417, 0.909, 182.726, 82.11)" fill="#4bb1a3"/>
      <rect id="Rectángulo_403304" data-name="Rectángulo 403304" width="6.503" height="70.202" transform="matrix(0.782, -0.623, 0.623, 0.782, 184.297, 80.551)" fill="#4bb1a3"/>
      <g id="Grupo_1102923" data-name="Grupo 1102923" transform="translate(0)">
        <g id="Grupo_1102922" data-name="Grupo 1102922" clip-path="url(#clip-path-2)">
          <path id="Trazado_925067" data-name="Trazado 925067" d="M223.666,0c24.09,13.376,47.046,28.464,69.854,43.852,22.674,15.575,45.055,31.522,66.3,49.059-24.075-13.389-47.085-28.417-69.854-43.852C267.323,33.43,244.9,17.555,223.666,0" transform="translate(-35.522)" fill="#727997"/>
          <path id="Trazado_925077" data-name="Trazado 925077" d="M45.613,263.931l-.565-8.982,9.146-.575a13.24,13.24,0,0,0,10.412-6.237,22.259,22.259,0,0,1,17.506-10.489,13.24,13.24,0,0,0,10.414-6.238,22.26,22.26,0,0,1,17.5-10.488,13.252,13.252,0,0,0,10.422-6.238,22.264,22.264,0,0,1,17.5-10.49,13.249,13.249,0,0,0,10.42-6.237,22.265,22.265,0,0,1,17.5-10.493,13.253,13.253,0,0,0,10.425-6.237,22.27,22.27,0,0,1,17.5-10.493,13.256,13.256,0,0,0,10.424-6.237A22.265,22.265,0,0,1,221.737,154a13.247,13.247,0,0,0,10.418-6.237,22.272,22.272,0,0,1,17.5-10.494,13.25,13.25,0,0,0,10.43-6.237,22.273,22.273,0,0,1,17.5-10.5,13.255,13.255,0,0,0,10.438-6.235l4.836-7.808,7.651,4.739-4.836,7.808a22.253,22.253,0,0,1-17.488,10.476,13.259,13.259,0,0,0-10.44,6.239,22.273,22.273,0,0,1-17.5,10.5,13.249,13.249,0,0,0-10.43,6.238,22.269,22.269,0,0,1-17.508,10.494,13.248,13.248,0,0,0-10.419,6.237,22.268,22.268,0,0,1-17.5,10.493,13.255,13.255,0,0,0-10.424,6.238,22.266,22.266,0,0,1-17.5,10.493,13.255,13.255,0,0,0-10.425,6.238,22.268,22.268,0,0,1-17.506,10.493,13.248,13.248,0,0,0-10.42,6.237,22.264,22.264,0,0,1-17.5,10.49,13.25,13.25,0,0,0-10.421,6.238A22.261,22.261,0,0,1,82.675,246.63a13.24,13.24,0,0,0-10.413,6.238,22.258,22.258,0,0,1-17.5,10.488Z" transform="translate(-7.199 -17.289)" fill="#727997"/>
          <path id="Trazado_925078" data-name="Trazado 925078" d="M7.65,195.25,0,190.51c2.759-4.453,4.913-5.672,9.219-5.216a16.8,16.8,0,0,0,3.108.1,13.26,13.26,0,0,0,10.44-6.239,22.272,22.272,0,0,1,17.5-10.5,13.249,13.249,0,0,0,10.43-6.238,22.269,22.269,0,0,1,17.508-10.494,13.248,13.248,0,0,0,10.419-6.237,22.268,22.268,0,0,1,17.5-10.493,13.255,13.255,0,0,0,10.424-6.238,22.266,22.266,0,0,1,17.5-10.493,13.255,13.255,0,0,0,10.425-6.238,22.267,22.267,0,0,1,17.506-10.493A13.248,13.248,0,0,0,162.41,95.5a22.264,22.264,0,0,1,17.5-10.49,13.25,13.25,0,0,0,10.421-6.238,22.261,22.261,0,0,1,17.507-10.489,13.24,13.24,0,0,0,10.413-6.238,22.258,22.258,0,0,1,17.5-10.488l9.146-.575.565,8.982-9.146.575a13.24,13.24,0,0,0-10.412,6.237A22.259,22.259,0,0,1,208.4,77.266,13.24,13.24,0,0,0,197.991,83.5a22.26,22.26,0,0,1-17.5,10.488,13.252,13.252,0,0,0-10.422,6.238,22.264,22.264,0,0,1-17.5,10.49,13.249,13.249,0,0,0-10.42,6.237,22.265,22.265,0,0,1-17.5,10.493,13.253,13.253,0,0,0-10.425,6.237,22.27,22.27,0,0,1-17.5,10.493,13.256,13.256,0,0,0-10.424,6.237A22.265,22.265,0,0,1,68.779,160.91a13.247,13.247,0,0,0-10.418,6.237,22.272,22.272,0,0,1-17.5,10.494,13.25,13.25,0,0,0-10.43,6.237,22.273,22.273,0,0,1-17.5,10.5,25.31,25.31,0,0,1-4.623-.128C8.142,194.48,7.928,194.8,7.65,195.25Z" transform="translate(-0.607 -8.81)" fill="#4bb1a3"/>
          <path id="Trazado_925069" data-name="Trazado 925069" d="M12.475,222.273h0a5.348,5.348,0,0,1,1.659-7.378l6.237-3.946a5.347,5.347,0,1,1,5.718,9.037l-6.236,3.946a5.346,5.346,0,0,1-7.378-1.659" transform="translate(-1.85 -33.371)" fill="#81c7c5"/>
          <path id="Trazado_925076" data-name="Trazado 925076" d="M286.53,65.97h0a5.348,5.348,0,0,1,1.659-7.378l6.237-3.946a5.347,5.347,0,1,1,5.718,9.037l-6.236,3.946a5.346,5.346,0,0,1-7.378-1.659" transform="translate(-45.374 -8.547)" fill="#81c7c5"/>
          <path id="Trazado_925075" data-name="Trazado 925075" d="M252.626,85.856h0a5.348,5.348,0,0,1,1.659-7.378l6.237-3.946a5.347,5.347,0,1,1,5.718,9.037L260,87.515a5.346,5.346,0,0,1-7.378-1.659" transform="translate(-39.99 -11.705)" fill="#81c7c5"/>
          <path id="Trazado_925074" data-name="Trazado 925074" d="M216.472,105.722h0a5.348,5.348,0,0,1,1.659-7.378l6.237-3.946a5.347,5.347,0,1,1,5.718,9.037l-6.236,3.946a5.346,5.346,0,0,1-7.378-1.659" transform="translate(-34.248 -14.86)" fill="#81c7c5"/>
          <path id="Trazado_925073" data-name="Trazado 925073" d="M179.145,126.353h0a5.348,5.348,0,0,1,1.659-7.378l6.237-3.946a5.347,5.347,0,1,1,5.718,9.037l-6.236,3.946a5.346,5.346,0,0,1-7.378-1.659" transform="translate(-28.32 -18.137)" fill="#81c7c5"/>
          <path id="Trazado_925072" data-name="Trazado 925072" d="M148.045,146.8h0a5.348,5.348,0,0,1,1.659-7.378l6.237-3.946a5.347,5.347,0,1,1,5.718,9.037l-6.236,3.946a5.346,5.346,0,0,1-7.378-1.659" transform="translate(-23.381 -21.383)" fill="#81c7c5"/>
          <path id="Trazado_925071" data-name="Trazado 925071" d="M113.019,167.073h0a5.348,5.348,0,0,1,1.659-7.378l6.236-3.946a5.347,5.347,0,1,1,5.718,9.037l-6.236,3.946a5.346,5.346,0,0,1-7.378-1.659" transform="translate(-17.818 -24.604)" fill="#81c7c5"/>
          <path id="Trazado_925070" data-name="Trazado 925070" d="M78.71,185.492h0a5.348,5.348,0,0,1,1.659-7.378l6.237-3.946a5.347,5.347,0,1,1,5.718,9.037l-6.236,3.946a5.346,5.346,0,0,1-7.378-1.659" transform="translate(-12.369 -27.529)" fill="#81c7c5"/>
          <path id="Trazado_925068" data-name="Trazado 925068" d="M43.717,206.739h0a5.348,5.348,0,0,1,1.659-7.378l6.237-3.946a5.347,5.347,0,1,1,5.718,9.037L51.1,208.4a5.346,5.346,0,0,1-7.378-1.659" transform="translate(-6.811 -30.904)" fill="#81c7c5"/>
        </g>
      </g>
    </g>
    <g id="Grupo_1102926" data-name="Grupo 1102926" transform="translate(872.701 9314.347)">
      <g id="Grupo_1102925" data-name="Grupo 1102925" transform="translate(0)" clip-path="url(#clip-path-3)">
        <path id="Trazado_925079" data-name="Trazado 925079" d="M106.407,165.225c-3.091,0-6.517-1.385-10.238-4.145a65.1,65.1,0,0,0-39.453-12.238l-.281-12.565A77.749,77.749,0,0,1,103.6,150.947c.067.051.135.1.2.146v-11.37c0-4.34-2.954-9.54-6.073-10.7-23.337-9.267-55.751-9.266-78.955-.052-4.83,2.013-9.54,1.815-13.163-.6-2.1-1.4-5.609-4.811-5.613-12V105.6C.005,95.345,6.891,87.131,16.014,86.488a500.959,500.959,0,0,1,84.49.013,2.367,2.367,0,0,0,2.048-.458,5.2,5.2,0,0,0,1.252-3.8V69.328c0-1.736-.476-2.566-.726-2.761a2.285,2.285,0,0,0-1.645,0c-24.78,5.647-58.4,5.873-83.78.594C8.9,65.542,2.191,56.862,2.188,47V37.926c0-6.861,3.438-10.028,5.488-11.3,2.19-1.366,6.922-3.137,14.022.343C44.517,37.752,74.819,37.3,97.025,25.8c2.957-1.452,5.7-5.907,6.527-10.083a77.426,77.426,0,0,1-98.682-6.6L13.527,0a64.828,64.828,0,0,0,82.7,5.5c5.515-4.1,10.426-5.142,14.551-3.071,2.088,1.05,5.592,3.858,5.6,10.862-.005,8.367-5.127,19.525-13.689,23.725C77.293,50.174,42.509,50.707,16.247,38.287a10.4,10.4,0,0,0-1.487-.605c0,.077,0,.159,0,.246V47c0,3.648,2.486,7.309,5.319,7.834,23.916,4.974,55.384,4.765,78.442-.487a14.093,14.093,0,0,1,12.3,2.32c3.58,2.8,5.552,7.294,5.557,12.662V82.245a17.286,17.286,0,0,1-5.466,13.186A14.78,14.78,0,0,1,99.189,99a495.123,495.123,0,0,0-82.144.014c-2.532.181-4.475,3.131-4.476,6.589v10.768a6.213,6.213,0,0,0,.133,1.373,6.178,6.178,0,0,0,1.336-.408c26.446-10.5,61.848-10.5,88.2-.04,9.13,3.383,14.133,14.093,14.138,22.424v13.609c0,7.007-3.508,9.815-5.6,10.865a9.6,9.6,0,0,1-4.369,1.034" fill="#727997"/>
        <path id="Trazado_925080" data-name="Trazado 925080" d="M89.527,70.709l-6.672-6.671a26.608,26.608,0,0,0,0-37.588l6.672-6.67a36.053,36.053,0,0,1,0,50.93" transform="translate(4.524 1.08)" fill="#81c7c5"/>
        <path id="Trazado_925081" data-name="Trazado 925081" d="M86.766,125.36l-6.326-6.326a25.228,25.228,0,0,0,0-35.638l6.326-6.326a34.184,34.184,0,0,1,0,48.289" transform="translate(4.392 4.208)" fill="#81c7c5"/>
        <path id="Trazado_925082" data-name="Trazado 925082" d="M27.954,50.5H24.185A2.682,2.682,0,0,1,21.5,47.817V4.8a2.683,2.683,0,0,1,2.682-2.683h3.769A2.682,2.682,0,0,1,30.636,4.8v43.02A2.682,2.682,0,0,1,27.954,50.5" transform="translate(1.174 0.115)" fill="#81c7c5"/>
        <path id="Trazado_925083" data-name="Trazado 925083" d="M27.954,100.485H24.185A2.682,2.682,0,0,1,21.5,97.8V58.644a2.682,2.682,0,0,1,2.682-2.682h3.769a2.682,2.682,0,0,1,2.682,2.682V97.8a2.682,2.682,0,0,1-2.682,2.682" transform="translate(1.174 3.056)" fill="#81c7c5"/>
      </g>
    </g>
  </g>
</svg>
