<svg xmlns="http://www.w3.org/2000/svg" xmlns:xlink="http://www.w3.org/1999/xlink" width="125" height="125" viewBox="0 0 125 125">
  <defs>
    <linearGradient id="linear-gradient" x1="0.5" x2="0.5" y2="1" gradientUnits="objectBoundingBox">
      <stop offset="0" stop-color="#d898b0"/>
      <stop offset="1" stop-color="#f8c2dd"/>
    </linearGradient>
    <clipPath id="clip-path">
      <rect id="Rectángulo_403381" data-name="Rectángulo 403381" width="71.567" height="52.886" fill="url(#linear-gradient)"/>
    </clipPath>
  </defs>
  <g id="Grupo_1103051" data-name="Grupo 1103051" transform="translate(-1159 -2660.001)">
    <circle id="Elipse_11555" data-name="Elipse 11555" cx="62.5" cy="62.5" r="62.5" transform="translate(1159 2660.001)" fill="#efc6ca"/>
    <circle id="Elipse_11550" data-name="Elipse 11550" cx="60" cy="60" r="60" transform="translate(1160 2663.001)" fill="#fff"/>
    <path id="Trazado_924878" data-name="Trazado 924878" d="M-8377-6842.439s16-32.561,52.5-30.061" transform="translate(9548 9546.001)" fill="none" stroke="#efc6ca" stroke-width="2" stroke-dasharray="6 6"/>
    <path id="Trazado_924879" data-name="Trazado 924879" d="M-8377-6842.439s16-32.561,52.5-30.061" transform="translate(-6080.41 -5191.842) rotate(-172)" fill="none" stroke="#efc6ca" stroke-width="2" stroke-dasharray="6 6"/>
    <g id="Grupo_1102997" data-name="Grupo 1102997" transform="translate(1186.216 2696.058)">
      <g id="Grupo_1102996" data-name="Grupo 1102996" clip-path="url(#clip-path)">
        <path id="Trazado_925297" data-name="Trazado 925297" d="M10.781,39.429c-1.536,4.119-3,7.886-4.331,11.7-.461,1.323-1.15,1.914-2.542,1.721a12.346,12.346,0,0,0-1.674-.013c-2.277,0-2.5-.3-1.85-2.418q2.834-9.2,5.669-18.393c.173-.563.317-1.136.522-1.878-1.759,0-3.335-.028-4.909.009C.49,30.186-.015,29.714,0,28.5c.044-3.493.038-6.986,0-10.479-.011-1.149.47-1.6,1.594-1.556,1.2.047,2.4.011,3.736.011,0-3.115,0-6.083,0-9.051,0-1.921.168-2.24,2.058-2.042A30.366,30.366,0,0,0,26.1,1.344c.161-.092.355-.131.5-.236a4.664,4.664,0,0,1,6.579.54A7.831,7.831,0,0,1,34.863,4.1a1.793,1.793,0,0,0,1.959,1.281C45.9,5.332,54.98,5.35,64.059,5.352c2.081,0,2.178.1,2.179,2.235,0,2.886,0,5.772,0,8.889,1.288,0,2.524.036,3.757-.01,1.142-.043,1.581.451,1.57,1.581-.035,3.493-.041,6.986,0,10.479.015,1.234-.535,1.659-1.69,1.632-1.573-.037-3.147-.009-4.9-.009.411,1.381.758,2.577,1.124,3.767q2.581,8.4,5.168,16.8c.527,1.717.234,2.147-1.534,2.119-4.761-.076-3.584.752-5.253-3.573-1.221-3.161-2.387-6.343-3.688-9.808-1.308,3.48-2.494,6.688-3.719,9.882-1.619,4.224-.55,3.428-5.026,3.5-2.014.032-2.288-.375-1.686-2.329q2.856-9.263,5.716-18.525c.162-.526.289-1.062.467-1.721H15.019c.172.623.314,1.191.486,1.75q2.871,9.332,5.748,18.661c.543,1.768.243,2.195-1.616,2.164-4.635-.075-3.5.737-5.145-3.528-1.218-3.163-2.387-6.345-3.711-9.874M32.266,8.15c3.934,4.485,3.544,4.931,4.482,8.244H64.083V7.451H62.338c-8.557,0-17.114-.028-25.67.028a32.2,32.2,0,0,0-4.4.67M2.066,18.577c0,.892.053,1.72-.014,2.538-.076.943.323,1.178,1.211,1.176,14.934-.021,29.868-.008,44.8-.05a1.952,1.952,0,0,0,1.361-.809,3.813,3.813,0,0,1,6.673.031,1.726,1.726,0,0,0,2.961.056,3.776,3.776,0,0,1,6.713-.006c.4.644,2.925,1.112,3.49.628a.717.717,0,0,0,.216-.479c.02-1.008.01-2.017.01-3.086Zm.064,9.342H69.5V24.392c-.5-.03-.773-.059-1.05-.06-1.264-.007-2.311-.1-3.228,1.37-1.357,2.171-4.573,1.8-6.008-.395-.926-1.416-2.314-1.4-3.265.039a3.71,3.71,0,0,1-6.308.015,1.915,1.915,0,0,0-1.967-1.048q-22,.034-44,.016H2.13ZM10.686,16.7c.72-.271,1.282-.359,1.3-.509.143-1.276,1.23-1.412,2.078-1.8,1.983-.91,3.989-1.773,5.983-2.659,4.407-1.959,8.812-3.922,13.309-5.923-.283-.68-.482-1.293-.783-1.851-.541-1-2.678-2.042-3.462-1.695-5.647,2.5-11.294,5-16.92,7.551a1.706,1.706,0,0,0-.873,1.091c-.265,1.776-.4,3.572-.63,5.8M34.5,16.472a9.576,9.576,0,0,0-3.357-6.334,1.492,1.492,0,0,0-1.856-.284c-4.39,2-8.81,3.937-13.215,5.905a11.8,11.8,0,0,0-1.131.716c1.868,0,3.309.057,4.74-.034a1.814,1.814,0,0,0,1.247-.728c1.96-3.148,5.725-3.126,7.689.065a1.391,1.391,0,0,0,.876.665c1.617.066,3.237.031,5.007.031M11.962,30.23a11.8,11.8,0,0,1-1.217-.087c-1.505-.276-2.143.369-2.569,1.839-1.681,5.8-3.515,11.556-5.288,17.33-.132.43-.226.872-.335,1.3,1.335.48,1.89-.022,2.324-1.223C6.942,43.661,9.1,37.972,11.23,32.269c.24-.645.466-1.295.732-2.038M52.508,50.622c1.187.314,1.868.19,2.317-1.057,2.173-6.03,4.448-12.023,6.683-18.031.152-.408.266-.83.442-1.385a9.706,9.706,0,0,1-1.432-.011c-1.357-.23-1.925.359-2.27,1.67-.733,2.783-1.663,5.513-2.508,8.266-1.073,3.5-2.143,6.993-3.232,10.548m11.075-17.83-.317.039c-.187.473-.336.966-.567,1.417a4.889,4.889,0,0,0-.051,4.375c1.478,3.611,2.826,7.277,4.109,10.963.441,1.266,1.133,1.368,2.311,1.018L63.583,32.792M19.065,50.6,13.524,32.637a6.5,6.5,0,0,0-.551,6.9c1.458,3.258,2.611,6.659,3.774,10.039.433,1.257,1.123,1.387,2.318,1.029M7.407,7.52c0,2.853-.031,5.541.044,8.226.008.294.632.57.97.854l.339-.318a11.385,11.385,0,0,1,.025-2.346c.491-2.282-.36-5.161,2.686-6.416Zm55.06,14.04a1.755,1.755,0,0,0-1.762,1.752,1.616,1.616,0,0,0,1.679,1.664A1.579,1.579,0,0,0,64.129,23.4a1.727,1.727,0,0,0-1.662-1.841M54.49,23.476a1.747,1.747,0,0,0-1.721-1.9,1.7,1.7,0,0,0,.017,3.408,1.638,1.638,0,0,0,1.7-1.5M26.419,16.423c-1.249-1.309-2.288-1.28-3.206,0Z" transform="translate(-0.001 0)" fill="url(#linear-gradient)"/>
      </g>
    </g>
  </g>
</svg>
