<svg xmlns="http://www.w3.org/2000/svg" xmlns:xlink="http://www.w3.org/1999/xlink" width="125" height="125" viewBox="0 0 125 125">
  <defs>
    <clipPath id="clip-path">
      <rect id="Rectángulo_403351" data-name="Rectángulo 403351" width="39.551" height="72.601" fill="#efc6ca"/>
    </clipPath>
  </defs>
  <g id="Grupo_1103046" data-name="Grupo 1103046" transform="translate(-1159 -906.805)">
    <g id="Grupo_1102864" data-name="Grupo 1102864" transform="translate(893.949 -3815.195)">
      <circle id="Elipse_11555" data-name="Elipse 11555" cx="62.5" cy="62.5" r="62.5" transform="translate(265.051 4722)" fill="#efc6ca"/>
      <circle id="Elipse_11550" data-name="Elipse 11550" cx="60" cy="60" r="60" transform="translate(266.051 4725)" fill="#fff"/>
      <path id="Trazado_924878" data-name="Trazado 924878" d="M-8377-6842.439s16-32.561,52.5-30.061" transform="translate(8654.051 11608)" fill="none" stroke="#efc6ca" stroke-width="2" stroke-dasharray="6 6"/>
      <path id="Trazado_924879" data-name="Trazado 924879" d="M-8377-6842.439s16-32.561,52.5-30.061" transform="translate(-6974.359 -3129.843) rotate(-172)" fill="none" stroke="#efc6ca" stroke-width="2" stroke-dasharray="6 6"/>
    </g>
    <g id="Grupo_1102949" data-name="Grupo 1102949" transform="translate(1202.224 933.004)">
      <g id="Grupo_1102948" data-name="Grupo 1102948" clip-path="url(#clip-path)">
        <path id="Trazado_925122" data-name="Trazado 925122" d="M5.259,72.277c3.936,1.055,7.7-.233,9.659-7.538.087-.326.156-.639.227-.952l.021.006c4.592-17.276,7.864-29.847,10.191-38.946C30.187,5.946,23.375,0,23.375,0S16.082,47.486,14.206,54.44a6.082,6.082,0,0,0-3.5-2.477C6.767,50.909,2.623,53.614.664,60.919s.66,10.3,4.6,11.358m4.6-17.172c2.718.729,4.263,3.779,2.912,8.824S8.82,69.864,6.1,69.135s-4.527-2.8-3.174-7.844,4.214-6.914,6.932-6.186" transform="translate(0 0.001)" fill="#efc6ca"/>
        <path id="Trazado_925123" data-name="Trazado 925123" d="M66.161,60.92c-1.958-7.306-6.1-10.011-10.038-8.956a6.083,6.083,0,0,0-3.5,2.476C50.744,47.486,43.45,0,43.45,0s-6.813,5.947-1.982,24.848c2.326,9.1,5.6,21.669,10.191,38.946l.021-.006c.072.315.14.627.227.952,1.958,7.3,5.722,8.594,9.659,7.539s6.552-4.053,4.6-11.358m-2.263.372c1.352,5.045-.455,7.116-3.174,7.845s-5.319-.162-6.671-5.208.193-8.094,2.911-8.823,5.581,1.14,6.933,6.186" transform="translate(-27.273)" fill="#efc6ca"/>
        <path id="Trazado_925124" data-name="Trazado 925124" d="M5.259,72.277c3.936,1.055,7.7-.233,9.659-7.538.087-.326.156-.639.227-.952l.021.006c4.592-17.276,7.864-29.847,10.191-38.946C30.187,5.946,23.375,0,23.375,0S16.082,47.486,14.206,54.44a6.082,6.082,0,0,0-3.5-2.477C6.767,50.909,2.623,53.614.664,60.919s.66,10.3,4.6,11.358m4.6-17.172c2.718.729,4.263,3.779,2.912,8.824S8.82,69.864,6.1,69.135s-4.527-2.8-3.174-7.844,4.214-6.914,6.932-6.186" transform="translate(0 0.001)" fill="#efc6ca"/>
        <path id="Trazado_925125" data-name="Trazado 925125" d="M66.161,60.92c-1.958-7.306-6.1-10.011-10.038-8.956a6.083,6.083,0,0,0-3.5,2.476C50.744,47.486,43.45,0,43.45,0s-6.813,5.947-1.982,24.848c2.326,9.1,5.6,21.669,10.191,38.946l.021-.006c.072.315.14.627.227.952,1.958,7.3,5.722,8.594,9.659,7.539s6.552-4.053,4.6-11.358m-2.263.372c1.352,5.045-.455,7.116-3.174,7.845s-5.319-.162-6.671-5.208.193-8.094,2.911-8.823,5.581,1.14,6.933,6.186" transform="translate(-27.273)" fill="#efc6ca"/>
        <path id="Trazado_925126" data-name="Trazado 925126" d="M5.259,185.508c3.936,1.055,7.7-.233,9.659-7.538.087-.326.156-.638.227-.952l.021.005c.539-2.027,1.058-3.983,1.561-5.883a17.536,17.536,0,0,0-2.478-3.64c-.015.056-.031.118-.044.171a6.082,6.082,0,0,0-3.5-2.477c-3.936-1.055-8.08,1.651-10.038,8.956s.66,10.3,4.6,11.358M2.928,174.522c1.352-5.046,4.214-6.915,6.932-6.186s4.263,3.778,2.912,8.824S8.82,183.1,6.1,182.366s-4.527-2.8-3.174-7.844" transform="translate(0 -113.23)" fill="#efc6ca"/>
        <path id="Trazado_925127" data-name="Trazado 925127" d="M74.073,177.023l.02-.006c.072.314.14.627.227.952,1.958,7.3,5.722,8.594,9.659,7.539s6.552-4.053,4.6-11.358-6.1-10.011-10.038-8.956a6.081,6.081,0,0,0-3.5,2.476c-.038-.139-.079-.3-.12-.472a17.513,17.513,0,0,0-2.52,3.5q.81,3.056,1.68,6.33m5.3-8.688c2.718-.729,5.581,1.14,6.933,6.186s-.455,7.116-3.174,7.845-5.319-.162-6.671-5.208.193-8.094,2.912-8.823" transform="translate(-49.687 -113.23)" fill="#efc6ca"/>
        <path id="Trazado_925128" data-name="Trazado 925128" d="M56.744,113.193a2.007,2.007,0,1,0,2.007-2.006,2.007,2.007,0,0,0-2.007,2.006" transform="translate(-38.946 -76.313)" fill="#efc6ca"/>
      </g>
    </g>
  </g>
</svg>
