<svg xmlns="http://www.w3.org/2000/svg" xmlns:xlink="http://www.w3.org/1999/xlink" width="125" height="125" viewBox="0 0 125 125">
  <defs>
    <clipPath id="clip-path">
      <rect id="Rectángulo_403379" data-name="Rectángulo 403379" width="61.833" height="62" fill="#81c7c5"/>
    </clipPath>
  </defs>
  <g id="Grupo_1103044" data-name="Grupo 1103044" transform="translate(-318 -906.805)">
    <g id="Grupo_1102862" data-name="Grupo 1102862" transform="translate(52.949 -3815.195)">
      <circle id="Elipse_11555" data-name="Elipse 11555" cx="62.5" cy="62.5" r="62.5" transform="translate(265.051 4722)" fill="#c0e6e5"/>
      <circle id="Elipse_11550" data-name="Elipse 11550" cx="60" cy="60" r="60" transform="translate(266.051 4725)" fill="#fff"/>
      <path id="Trazado_924878" data-name="Trazado 924878" d="M-8377-6842.439s16-32.561,52.5-30.061" transform="translate(8654.051 11608)" fill="none" stroke="#4bb1a3" stroke-width="2" stroke-dasharray="6 6"/>
      <path id="Trazado_924879" data-name="Trazado 924879" d="M-8377-6842.439s16-32.561,52.5-30.061" transform="translate(-6974.359 -3129.843) rotate(-172)" fill="none" stroke="#4bb1a3" stroke-width="2" stroke-dasharray="6 6"/>
    </g>
    <g id="Grupo_1102993" data-name="Grupo 1102993" transform="translate(349.083 938.806)">
      <g id="Grupo_1102992" data-name="Grupo 1102992" clip-path="url(#clip-path)">
        <path id="Trazado_925247" data-name="Trazado 925247" d="M31.94,59.886H33.5q13.127,0,26.254.009c.838,0,2.057-.288,2.074,1.007.019,1.416-1.262,1.058-2.121,1.059q-28.795.02-57.59,0c-.859,0-2.157.358-2.121-1.054C.036,59.536,1.329,59.9,2.188,59.9q13.067-.03,26.133-.012h1.57c0-2.825,0-5.515-.012-8.205a1.011,1.011,0,0,0-.261-.512c-2.363-3.114-4.712-6.238-7.111-9.324a3.8,3.8,0,0,1-.892-2.657c.066-1.317.016-2.639.016-4.071-2.317,0-4.485,0-6.654,0-1.976,0-2.66-.7-2.672-2.715,0-.484,0-.968,0-1.452,0-2.426.5-2.957,3.024-3.136V24.959c-.023-.02-.077-.11-.142-.118-2.555-.309-2.882-.679-2.882-3.281v-.605c0-2.784.285-3.12,3.035-3.5V14.5c-2.174.244-3.546-1.094-4.93-2.494C7.718,9.279,4.983,6.594,2.239,3.921a2.26,2.26,0,0,1-.777-2.692A2.266,2.266,0,0,1,3.871,0q27.04.019,54.081,0a2.275,2.275,0,0,1,2.414,1.221A2.252,2.252,0,0,1,59.6,3.914c-2.944,2.873-5.883,5.752-8.771,8.681a5.238,5.238,0,0,1-4.333,1.887v2.989c.276.032.585.072.895.1a2.093,2.093,0,0,1,2.13,2.284c.026.765.011,1.532,0,2.3-.015,1.861-.625,2.5-2.515,2.635-.155.011-.309.045-.529.079v2.9a9.848,9.848,0,0,1,1.648.279,2.154,2.154,0,0,1,1.386,2.533c-.144,1.551.681,3.435-1.354,4.379a3.255,3.255,0,0,1-1.3.153c-2.169.014-4.338.006-6.659.006,0,1.548.069,2.994-.03,4.428a3.933,3.933,0,0,1-.661,1.979c-2.391,3.243-4.857,6.43-7.293,9.64a1.012,1.012,0,0,0-.263.511c-.017,2.69-.012,5.381-.012,8.211M3.954,2.126c3.091,3.232,6.184,6.51,9.352,9.715a2.721,2.721,0,0,0,1.776.517q15.838.045,31.675-.018a3.619,3.619,0,0,0,2.217-.919c2.248-2.077,4.38-4.28,6.572-6.42.914-.892,1.869-1.741,2.8-2.609l-.181-.266ZM23.715,39.232h8.042a7.878,7.878,0,0,1,2.042.046c.468.129.824.661,1.23,1.013a6.783,6.783,0,0,1-1.255,1.016,2.968,2.968,0,0,1-1.193.034H24.75l6.185,8.246c2.072-2.775,3.883-5.5,6.013-7.958,1.784-2.055,1.007-4.263,1.172-6.422h-14.4Zm23.645-9.171H14.512v2.914H47.361Zm-3.108-15.5H17.6v2.9H44.253Zm0,10.3H17.59v2.913H44.252ZM26.84,22.639h8.107V19.724H26.84Zm-7.18.015h4.96V19.686H19.66Zm22.578-2.961h-5v2.959h5ZM17.421,19.7H14.488v2.973h2.933Zm29.9-.022H44.434v3h2.884Z" transform="translate(0 0)" fill="#81c7c5"/>
        <path id="Trazado_925248" data-name="Trazado 925248" d="M36.319,227.5c-.648.44-1.066.946-1.421.9-.374-.044-.687-.61-1.026-.947.368-.347.7-.9,1.116-.973.307-.053.722.524,1.331,1.016" transform="translate(-25.675 -171.668)" fill="#81c7c5"/>
        <path id="Trazado_925249" data-name="Trazado 925249" d="M164.322,227.482c-.643.445-1.058.954-1.413.916-.374-.04-.691-.605-1.033-.94.365-.35.694-.908,1.108-.982.307-.055.727.519,1.338,1.006" transform="translate(-122.701 -171.664)" fill="#81c7c5"/>
        <path id="Trazado_925250" data-name="Trazado 925250" d="M52.249,224.543c.448.658.956,1.078.915,1.434-.044.374-.613.687-.952,1.026-.348-.368-.9-.7-.975-1.117-.054-.308.52-.725,1.013-1.342" transform="translate(-38.834 -170.202)" fill="#81c7c5"/>
        <path id="Trazado_925251" data-name="Trazado 925251" d="M70.475,227.457c-.643.455-1.052.97-1.411.937s-.7-.6-1.045-.928c.361-.355.683-.918,1.1-1,.31-.059.737.508,1.359.986" transform="translate(-51.558 -171.66)" fill="#81c7c5"/>
        <path id="Trazado_925252" data-name="Trazado 925252" d="M86.42,224.541c.444.663.983,1.128.9,1.429-.109.406-.693.684-1.073,1.017-.3-.366-.837-.725-.847-1.1s.523-.732,1.017-1.348" transform="translate(-64.735 -170.201)" fill="#81c7c5"/>
        <path id="Trazado_925253" data-name="Trazado 925253" d="M181.415,227.366c-.613.48-1,1.011-1.354,1s-.726-.557-1.088-.869c.341-.374.632-.954,1.041-1.054.3-.074.759.476,1.4.927" transform="translate(-135.66 -171.634)" fill="#81c7c5"/>
        <path id="Trazado_925254" data-name="Trazado 925254" d="M198.494,227.376c-.621.478-1.007,1.005-1.366.988s-.722-.562-1.082-.876c.344-.372.638-.95,1.047-1.047.3-.072.757.479,1.4.934" transform="translate(-148.602 -171.637)" fill="#81c7c5"/>
        <path id="Trazado_925255" data-name="Trazado 925255" d="M214.364,228.648c-.474-.617-1-1-.982-1.362.02-.374.566-.719.882-1.077.37.345.947.642,1.042,1.052.07.3-.485.752-.942,1.387" transform="translate(-161.742 -171.465)" fill="#81c7c5"/>
        <path id="Trazado_925256" data-name="Trazado 925256" d="M53.415,176.345c-.667.429-1.086.913-1.443.87-.372-.045-.683-.6-1.02-.927.369-.34.705-.887,1.118-.952.313-.049.723.515,1.345,1.009" transform="translate(-38.621 -132.902)" fill="#81c7c5"/>
        <path id="Trazado_925257" data-name="Trazado 925257" d="M197.176,177.477c-.439-.663-.936-1.083-.887-1.427.052-.372.613-.672.952-1,.348.363.9.689.975,1.1.056.293-.527.706-1.039,1.327" transform="translate(-148.783 -132.684)" fill="#81c7c5"/>
        <path id="Trazado_925258" data-name="Trazado 925258" d="M184.614,190.383c-.51-.637-1.03-1-1.018-1.35.012-.368.53-.72.826-1.079.378.322.95.587,1.068.986.085.288-.434.755-.877,1.442" transform="translate(-139.164 -142.468)" fill="#81c7c5"/>
        <path id="Trazado_925259" data-name="Trazado 925259" d="M90.666,215.892c-.452-.667-.942-1.073-.909-1.432s.575-.7.894-1.041c.348.359.9.679.978,1.088.058.314-.487.739-.963,1.384" transform="translate(-68.033 -161.771)" fill="#81c7c5"/>
        <path id="Trazado_925260" data-name="Trazado 925260" d="M160.153,214.687c-.661.459-1.116,1-1.4.922-.4-.109-.687-.677-1.021-1.049.353-.313.691-.85,1.062-.874.346-.022.726.5,1.363,1" transform="translate(-119.557 -161.972)" fill="#81c7c5"/>
        <path id="Trazado_925261" data-name="Trazado 925261" d="M66.244,189.087c-.646.485-1.066,1.029-1.364.969-.41-.083-.727-.623-1.084-.968.341-.32.657-.855,1.029-.9.345-.039.75.447,1.419.9" transform="translate(-48.357 -142.646)" fill="#81c7c5"/>
        <path id="Trazado_925262" data-name="Trazado 925262" d="M77.868,203.2c-.472-.669-1-1.1-.936-1.406.085-.4.638-.7.991-1.044.312.341.846.666.873,1.03s-.462.75-.927,1.42" transform="translate(-58.31 -152.164)" fill="#81c7c5"/>
        <path id="Trazado_925263" data-name="Trazado 925263" d="M171.782,198.942c.461.668.986,1.11.914,1.4-.1.4-.651.7-1.01,1.04-.306-.352-.827-.687-.857-1.061-.027-.344.475-.73.953-1.383" transform="translate(-129.486 -150.797)" fill="#81c7c5"/>
        <path id="Trazado_925264" data-name="Trazado 925264" d="M104.674,227.435c-.657.469-1.06.98-1.418.95s-.7-.585-1.046-.911c.353-.359.663-.925,1.074-1.01.307-.064.742.492,1.391.971" transform="translate(-77.475 -171.654)" fill="#81c7c5"/>
        <path id="Trazado_925265" data-name="Trazado 925265" d="M146,228.657c-.452-.646-1-1.1-.924-1.4.1-.408.675-.7,1.046-1.041.31.361.847.711.864,1.085.017.356-.508.739-.987,1.358" transform="translate(-109.965 -171.469)" fill="#81c7c5"/>
        <path id="Trazado_925266" data-name="Trazado 925266" d="M35.191,12.356a5.6,5.6,0,0,1,.982.608c1.945,1.917,3.87,3.855,5.8,5.784.522.521.736,1.1.151,1.676-.55.542-1.095.308-1.576-.174-1.959-1.961-3.935-3.905-5.86-5.9a1.5,1.5,0,0,1-.328-1.161c.056-.3.5-.523.827-.834" transform="translate(-26.035 -9.366)" fill="#81c7c5"/>
      </g>
    </g>
  </g>
</svg>
