<svg xmlns="http://www.w3.org/2000/svg" width="69.255" height="93" viewBox="0 0 69.255 93">
  <g id="Grupo_1103045" data-name="Grupo 1103045" transform="translate(-285.001 -584)">
    <g id="Grupo_1102860" data-name="Grupo 1102860" transform="translate(0 -4)">
      <g id="herramientas-de-costura" transform="translate(219.639 588)">
        <g id="Grupo_1102744" data-name="Grupo 1102744" transform="translate(66.705 1.337)">
          <path id="Trazado_924858" data-name="Trazado 924858" d="M364.579,162.883V149.865a5.938,5.938,0,0,1-4.588,0v13.018Z" transform="translate(-307.818 -123.981)" fill="#dbedff"/>
          <path id="Trazado_924859" data-name="Trazado 924859" d="M296.879,162.883V149.865a5.938,5.938,0,0,1-4.588,0v13.018Z" transform="translate(-252.415 -123.981)" fill="#dbedff"/>
          <path id="Trazado_924860" data-name="Trazado 924860" d="M211.989,28.779A11.446,11.446,0,0,1,209.5,30.04l-.061.019a3.945,3.945,0,0,1-5.177-3.727l-.02-7.452a5.954,5.954,0,0,1,6.074-5.962,6.02,6.02,0,0,1,5.82,6.041l.005,2c0,.3-.014.783-.041,1.079a6.145,6.145,0,0,1,5.476,1.024,18.03,18.03,0,0,0,.121-2.119l-.006-2.107A11.5,11.5,0,0,0,210.162,7.362,11.66,11.66,0,0,0,198.508,18.9v27.1h8.349l-.013-4.733a6.192,6.192,0,0,1,4.33-5.922,16.643,16.643,0,0,0,4.259-2.188,6.158,6.158,0,0,1-3.445-4.372Z" transform="translate(-175.666 -7.362)" fill="#efc6ca"/>
          <path id="Trazado_924862" data-name="Trazado 924862" d="M135.523,220.05H76.517a3.773,3.773,0,0,0-3.762,3.762v44.118a3.773,3.773,0,0,0,3.762,3.762h59.006a3.773,3.773,0,0,0,3.762-3.762V223.812A3.773,3.773,0,0,0,135.523,220.05Z" transform="translate(-72.755 -181.417)" fill="#de8561"/>
          <path id="Trazado_924864" data-name="Trazado 924864" d="M83.282,35.339a6.192,6.192,0,0,1,4.33,5.922L87.6,45.994h8.167V18.9a11.5,11.5,0,0,0-23.007-.062l-.006,2.107A15.055,15.055,0,0,0,83.282,35.339ZM78.317,18.961a6.02,6.02,0,0,1,5.82-6.041,5.953,5.953,0,0,1,6.074,5.962l-.02,7.452a3.945,3.945,0,0,1-5.177,3.727l-.061-.019a9.457,9.457,0,0,1-6.642-9.084Z" transform="translate(-72.755 -7.362)" fill="#efc6ca"/>
          <circle id="Elipse_11553" data-name="Elipse 11553" cx="6.148" cy="6.148" r="6.148" transform="translate(36.022 14.243)" fill="#efc6ca"/>
          <circle id="Elipse_11554" data-name="Elipse 11554" cx="6.148" cy="6.148" r="6.148" transform="translate(48.319 14.243)" fill="#efc6ca"/>
          <path id="Trazado_924868" data-name="Trazado 924868" d="M72.755,272.168h66.53v32.709H72.755Z" transform="translate(-72.755 -224.069)" fill="#de8561"/>
        </g>
        <g id="Grupo_1102745" data-name="Grupo 1102745" transform="translate(65.363 0)">
          <path id="Trazado_924872" data-name="Trazado 924872" d="M110.556,45.368l.02-7.451a7.312,7.312,0,0,0-7.465-7.328,7.41,7.41,0,0,0-7.154,7.4l-.005,2a10.81,10.81,0,0,0,7.587,10.384l.062.02a5.3,5.3,0,0,0,6.956-5.02Zm-2.725-.007a2.582,2.582,0,0,1-3.394,2.435l-.072-.023a8.1,8.1,0,0,1-5.689-7.781l.005-2a4.67,4.67,0,0,1,4.486-4.683h.1a4.588,4.588,0,0,1,4.585,4.6Z" transform="translate(-90.396 -25.031)"/>
          <path id="Trazado_924873" data-name="Trazado 924873" d="M70.487,93h59.006a5.13,5.13,0,0,0,5.125-5.125V68.995a1.362,1.362,0,1,0-2.725,0V74.6H68.087V57.032h63.806v5.605a1.362,1.362,0,1,0,2.725,0V43.757a5.13,5.13,0,0,0-5.125-5.125h-4.644V28.311a7.508,7.508,0,1,0-9.805-10.863,7.564,7.564,0,0,0-.978-1.134c.038-.462.058-.923.057-1.376l-.006-2.107A12.858,12.858,0,0,0,101.253,0h-.036A12.878,12.878,0,0,0,89.743,7.125,12.877,12.877,0,0,0,78.269,0h-.036A12.858,12.858,0,0,0,65.368,12.831l-.006,2.107a16.345,16.345,0,0,0,11.48,15.7,4.809,4.809,0,0,1,3.378,4.619l-.009,3.374H70.487a5.13,5.13,0,0,0-5.125,5.125V87.876A5.13,5.13,0,0,0,70.487,93Zm61.406-15.675v3.484H103.169a1.362,1.362,0,0,0,0,2.725h28.724v4.342a2.4,2.4,0,0,1-2.4,2.4H70.487a2.4,2.4,0,0,1-2.4-2.4V83.533H96.812a1.362,1.362,0,1,0,0-2.725H68.087V77.325ZM68.087,54.308V50.824h63.806v3.484Zm54.037-25.1v9.425h-1.864V29.207a7.722,7.722,0,0,0,1.864,0Zm-9.573,9.425V28.312a7.567,7.567,0,0,0,2.492-2.252,7.566,7.566,0,0,0,2.492,2.252V38.632Zm-13.277,0-.009-3.374a4.809,4.809,0,0,1,3.378-4.619,16.354,16.354,0,0,0,2.6-1.075v9.068H99.274Zm2.11-16.878c0,.159.007.316.016.473a8.26,8.26,0,0,1-1.255.517l-.06.019a2.582,2.582,0,0,1-3.4-2.433l-.02-7.451a4.587,4.587,0,0,1,4.684-4.6,4.67,4.67,0,0,1,4.486,4.683l.005,1.93A7.52,7.52,0,0,0,101.384,21.754Zm6.579,16.878V29.207a7.8,7.8,0,0,0,1.864,0v9.425Zm13.229-21.665a4.786,4.786,0,1,1-4.786,4.786,4.792,4.792,0,0,1,4.786-4.786ZM110.031,26.4l-.019,0a4.733,4.733,0,1,1,.019,0ZM101.224,2.725h.028a10.136,10.136,0,0,1,10.14,10.114l0,1.83a7.535,7.535,0,0,0-2.833-.418l0-1.293a7.41,7.41,0,0,0-7.154-7.4,7.311,7.311,0,0,0-7.465,7.328l.02,7.451a5.3,5.3,0,0,0,6.96,5.019l.05-.016a10.916,10.916,0,0,0,1.113-.419,7.68,7.68,0,0,0,1.7,2.331,13.619,13.619,0,0,1-1.958.788,7.522,7.522,0,0,0-5.283,7.225l.009,3.367H91.11V12.893A10.153,10.153,0,0,1,101.224,2.725ZM77.662,28.04a13.632,13.632,0,0,1-9.575-13.1l.006-2.107A10.135,10.135,0,0,1,78.233,2.725h.028A10.154,10.154,0,0,1,88.375,12.9V38.632H82.936l.009-3.367A7.522,7.522,0,0,0,77.662,28.04ZM70.487,41.357h59.006a2.4,2.4,0,0,1,2.4,2.4V48.1H68.087V43.757A2.4,2.4,0,0,1,70.487,41.357Z" transform="translate(-65.363 0)"/>
        </g>
      </g>
    </g>
  </g>
</svg>
