<svg xmlns="http://www.w3.org/2000/svg" xmlns:xlink="http://www.w3.org/1999/xlink" width="125" height="125" viewBox="0 0 125 125">
  <defs>
    <linearGradient id="linear-gradient" x1="0.5" x2="0.5" y2="1" gradientUnits="objectBoundingBox">
      <stop offset="0" stop-color="#d898b0"/>
      <stop offset="1" stop-color="#f8c2dd"/>
    </linearGradient>
    <clipPath id="clip-path">
      <rect id="Rectángulo_403380" data-name="Rectángulo 403380" width="55.522" height="55.538" fill="url(#linear-gradient)"/>
    </clipPath>
  </defs>
  <g id="Grupo_1103050" data-name="Grupo 1103050" transform="translate(-740 -2660.001)">
    <circle id="Elipse_11555" data-name="Elipse 11555" cx="62.5" cy="62.5" r="62.5" transform="translate(740 2660.001)" fill="#efc6ca"/>
    <circle id="Elipse_11550" data-name="Elipse 11550" cx="60" cy="60" r="60" transform="translate(741 2663.001)" fill="#fff"/>
    <path id="Trazado_924878" data-name="Trazado 924878" d="M-8377-6842.439s16-32.561,52.5-30.061" transform="translate(9129 9546.001)" fill="none" stroke="#efc6ca" stroke-width="2" stroke-dasharray="6 6"/>
    <path id="Trazado_924879" data-name="Trazado 924879" d="M-8377-6842.439s16-32.561,52.5-30.061" transform="translate(-6499.41 -5191.842) rotate(-172)" fill="none" stroke="#efc6ca" stroke-width="2" stroke-dasharray="6 6"/>
    <g id="Grupo_1102995" data-name="Grupo 1102995" transform="translate(773.239 2694.731)">
      <g id="Grupo_1102994" data-name="Grupo 1102994" clip-path="url(#clip-path)">
        <path id="Trazado_925267" data-name="Trazado 925267" d="M55.522,31.332q0,11.3,0,22.595c0,1.536-.064,1.646-1.6,1.588-3.733-.142-7.47-.27-11.193-.561a14.825,14.825,0,0,1-3.743-1.042,14.046,14.046,0,0,0-9.838.031,26.922,26.922,0,0,1-9.617,1.594c-3.785-.042-7.571,0-11.357-.013C3.27,55.5.015,52.26.01,47.363Q-.01,27.785.01,8.206C.014,3.971,2.792.594,6.628.081c4.244-.568,7.719,1.866,8.9,6.182.086.313.511.768.772.764,4.252-.068,8.512-.063,12.749-.377a35.063,35.063,0,0,0,5.837-1.433,9.157,9.157,0,0,1,5.711.157c4.217,1.695,8.59,1.836,13.024,1.71,1.9-.054,1.9-.019,1.9,1.889q0,11.179,0,22.359M53.759,53.8V8.786c-.611,0-1.154-.018-1.695,0A28.463,28.463,0,0,1,40.342,7.075a8.425,8.425,0,0,0-5.24-.193,32.942,32.942,0,0,1-4.56,1.2c-3.4.355-6.818.5-10.232.676-1.484.076-2.974.013-4.592.013V10.29c0,11.946-.043,23.893.031,35.839.018,2.865-.538,5.382-2.667,7.408-.027.026.026.136.049.246.979,0,1.964-.025,2.948,0A37.173,37.173,0,0,0,29.7,52.034a13.6,13.6,0,0,1,9.632.228c4.66,1.851,9.489,1.614,14.424,1.533M14.107,42.145V41.111q0-16.139,0-32.278c0-.433,0-.868-.025-1.3a6.08,6.08,0,0,0-4.19-5.462c-.419-.13-.953.143-1.438.182a6.671,6.671,0,0,1-1.166-.03c-.45-.044-.946-.291-1.337-.172A6.13,6.13,0,0,0,1.7,8.2q-.014,16.671,0,33.342c0,.3.032.6.061,1.1a8.6,8.6,0,0,1,4.995-2.752.76.76,0,0,0,.417-.336c.546-.819,1.068-.809,1.631-.012a1.326,1.326,0,0,0,.517.389c1.57.735,3.147,1.457,4.788,2.213M7.79,53.828a6.105,6.105,0,0,0,6.243-6.044A6.248,6.248,0,0,0,7.852,41.5,6.15,6.15,0,0,0,1.7,47.653,6.046,6.046,0,0,0,7.79,53.828" transform="translate(0 0)" fill="url(#linear-gradient)"/>
        <path id="Trazado_925268" data-name="Trazado 925268" d="M98.77,188.734c-.385-.611-.783-.964-.735-1.24.053-.308.511-.546.792-.814.264.285.706.549.741.86.031.279-.383.609-.8,1.195" transform="translate(-74.828 -142.493)" fill="url(#linear-gradient)"/>
        <path id="Trazado_925269" data-name="Trazado 925269" d="M204.683,83.161c-.545.424-.894.883-1.122.829-.345-.081-.605-.519-.9-.805.277-.262.531-.694.839-.737.277-.039.614.348,1.184.713" transform="translate(-154.692 -62.931)" fill="url(#linear-gradient)"/>
        <path id="Trazado_925270" data-name="Trazado 925270" d="M77.318,112.309c-.554.4-.879.816-1.181.8a.771.771,0,0,1-.035-1.541c.3-.031.645.369,1.216.741" transform="translate(-57.533 -85.159)" fill="url(#linear-gradient)"/>
        <path id="Trazado_925271" data-name="Trazado 925271" d="M204.692,135.422c-.562.38-.89.776-1.169.744-.308-.036-.571-.463-.854-.72.289-.292.54-.736.882-.824.228-.058.586.391,1.14.8" transform="translate(-154.699 -102.753)" fill="url(#linear-gradient)"/>
        <path id="Trazado_925272" data-name="Trazado 925272" d="M152.41,188.039c-.54.434-.883.9-1.116.852-.345-.074-.611-.515-.911-.8.275-.263.525-.7.832-.74.281-.041.622.337,1.195.688" transform="translate(-114.789 -143.004)" fill="url(#linear-gradient)"/>
        <path id="Trazado_925273" data-name="Trazado 925273" d="M177.83,106.572c.347.609.723.973.668,1.253-.058.3-.52.525-.806.782-.256-.292-.7-.573-.714-.88-.018-.284.414-.6.852-1.156" transform="translate(-135.088 -81.347)" fill="url(#linear-gradient)"/>
        <path id="Trazado_925274" data-name="Trazado 925274" d="M151.4,132.9c.378.559.783.895.757,1.193s-.5.764-.76.756a1.094,1.094,0,0,1-.782-.754c-.024-.3.393-.636.785-1.2" transform="translate(-114.964 -101.445)" fill="url(#linear-gradient)"/>
        <path id="Trazado_925275" data-name="Trazado 925275" d="M126.213,161.682c-.534.4-.84.8-1.132.792s-.584-.426-.875-.665c.269-.307.493-.776.821-.866.241-.066.619.365,1.186.739" transform="translate(-94.807 -122.844)" fill="url(#linear-gradient)"/>
        <path id="Trazado_925276" data-name="Trazado 925276" d="M178.767,56.851c-.581.429-.9.853-1.181.824-.311-.033-.579-.473-.866-.737.264-.281.5-.736.8-.792.276-.051.632.335,1.245.705" transform="translate(-134.892 -42.853)" fill="url(#linear-gradient)"/>
        <path id="Trazado_925277" data-name="Trazado 925277" d="M128.66,61.362c-.411-.56-.833-.884-.812-1.177a1.093,1.093,0,0,1,.75-.78c.262-.015.742.44.779.733s-.353.641-.717,1.223" transform="translate(-97.586 -45.345)" fill="url(#linear-gradient)"/>
        <path id="Trazado_925278" data-name="Trazado 925278" d="M85.452,68.248c-.556.4-.887.822-1.183.8a1.1,1.1,0,0,1-.768-.771c-.011-.265.455-.742.748-.772s.638.371,1.2.744" transform="translate(-63.737 -51.525)" fill="url(#linear-gradient)"/>
        <path id="Trazado_925279" data-name="Trazado 925279" d="M205.339,188.08c-.551.426-.866.858-1.159.844a1.1,1.1,0,0,1-.795-.741c-.027-.254.421-.754.707-.793s.654.339,1.247.691" transform="translate(-155.244 -143.033)" fill="url(#linear-gradient)"/>
        <path id="Trazado_925280" data-name="Trazado 925280" d="M151.451,84.082c-.433-.558-.864-.872-.845-1.156a.772.772,0,0,1,1.541-.091c.053.28-.336.643-.7,1.247" transform="translate(-114.958 -62.68)" fill="url(#linear-gradient)"/>
        <path id="Trazado_925281" data-name="Trazado 925281" d="M132.972,207.351c-.565.366-.946.791-1.183.722-.327-.095-.545-.562-.81-.87.29-.241.576-.666.87-.672s.593.409,1.122.82" transform="translate(-99.978 -157.646)" fill="url(#linear-gradient)"/>
        <path id="Trazado_925282" data-name="Trazado 925282" d="M102.366,87.392c-.411-.552-.835-.873-.812-1.157.025-.307.467-.58.728-.868.289.267.756.5.813.81.05.275-.357.633-.729,1.215" transform="translate(-77.516 -65.161)" fill="url(#linear-gradient)"/>
        <path id="Trazado_925283" data-name="Trazado 925283" d="M100.039,135.369c-.561.407-.884.824-1.173.8s-.784-.469-.787-.735a1.1,1.1,0,0,1,.73-.805c.287-.042.639.361,1.23.74" transform="translate(-74.864 -102.761)" fill="url(#linear-gradient)"/>
        <path id="Trazado_925284" data-name="Trazado 925284" d="M155.188,38.706c-.54.392-.857.8-1.152.785a1.065,1.065,0,0,1-.775-.72,1.068,1.068,0,0,1,.7-.8c.3-.032.646.365,1.225.736" transform="translate(-116.986 -28.981)" fill="url(#linear-gradient)"/>
        <path id="Trazado_925285" data-name="Trazado 925285" d="M110.483,39.4c.384.583.789.929.748,1.208-.045.3-.5.546-.783.815-.269-.282-.714-.542-.753-.853-.035-.274.385-.605.788-1.17" transform="translate(-83.729 -30.076)" fill="url(#linear-gradient)"/>
        <path id="Trazado_925286" data-name="Trazado 925286" d="M72.819,215.349c-.362-.6-.746-.954-.7-1.246s.53-.751.782-.727a1.109,1.109,0,0,1,.748.794c.022.289-.4.611-.827,1.179" transform="translate(-55.044 -162.871)" fill="url(#linear-gradient)"/>
        <path id="Trazado_925287" data-name="Trazado 925287" d="M126.387,109.24c-.575.37-.929.776-1.219.734a1.115,1.115,0,0,1-.722-.821c-.01-.244.493-.7.781-.712s.616.4,1.16.8" transform="translate(-94.99 -82.775)" fill="url(#linear-gradient)"/>
        <path id="Trazado_925288" data-name="Trazado 925288" d="M177.659,159.2c.417.545.835.853.825,1.145a1.069,1.069,0,0,1-.7.794,1.08,1.08,0,0,1-.816-.694c-.047-.289.338-.648.693-1.245" transform="translate(-135.076 -121.521)" fill="url(#linear-gradient)"/>
        <path id="Trazado_925289" data-name="Trazado 925289" d="M178.761,214.178c-.6.373-.964.771-1.237.718-.305-.059-.531-.529-.791-.819.287-.255.56-.691.864-.714.284-.021.6.4,1.165.815" transform="translate(-134.901 -162.861)" fill="url(#linear-gradient)"/>
        <path id="Trazado_925290" data-name="Trazado 925290" d="M74.1,161.839c-.578.347-.929.726-1.215.682A.759.759,0,0,1,72.936,161c.3-.011.609.412,1.164.835" transform="translate(-55.085 -122.895)" fill="url(#linear-gradient)"/>
        <path id="Trazado_925291" data-name="Trazado 925291" d="M30.873,110.129c0,.274.095.6-.022.809-.18.321-.515.787-.766.777a1.187,1.187,0,0,1-.834-.735,3.1,3.1,0,0,1-.009-1.621c.1-.354.555-.607.851-.905a7.752,7.752,0,0,1,.769.981c.1.177.018.459.018.694h-.007" transform="translate(-22.242 -82.784)" fill="url(#linear-gradient)"/>
        <path id="Trazado_925292" data-name="Trazado 925292" d="M31.071,82.25a2.522,2.522,0,0,1-.025.928c-.117.274-.44.654-.656.644-.314-.015-.832-.3-.876-.54a6.18,6.18,0,0,1-.016-2.089,1.039,1.039,0,0,1,.832-.587c.262.015.581.416.723.719a2.37,2.37,0,0,1,.025.927h-.008" transform="translate(-22.455 -61.525)" fill="url(#linear-gradient)"/>
        <path id="Trazado_925293" data-name="Trazado 925293" d="M32.041,26.878a3.449,3.449,0,0,1-.41,1.322c-.156.174-1.063,0-1.067-.061a19.722,19.722,0,0,1,.006-2.784c0-.031.961-.157,1.062.01a5.268,5.268,0,0,1,.409,1.512" transform="translate(-23.295 -19.297)" fill="url(#linear-gradient)"/>
        <path id="Trazado_925294" data-name="Trazado 925294" d="M30.825,138.17c0,.234.081.513-.018.693a7.682,7.682,0,0,1-.746.98,4.08,4.08,0,0,1-.886-1.005,1.858,1.858,0,0,1,0-1.262,4.338,4.338,0,0,1,.833-1.051,12.394,12.394,0,0,1,.8,1.07c.087.142.014.381.014.576" transform="translate(-22.185 -104.21)" fill="url(#linear-gradient)"/>
        <path id="Trazado_925295" data-name="Trazado 925295" d="M30.914,54.486c0,.273.093.6-.021.806-.177.324-.511.8-.752.789a1.189,1.189,0,0,1-.844-.736,3.679,3.679,0,0,1,0-1.733,1.154,1.154,0,0,1,.829-.731c.267,0,.588.471.77.8.116.209.022.534.022.806" transform="translate(-22.282 -40.365)" fill="url(#linear-gradient)"/>
        <path id="Trazado_925296" data-name="Trazado 925296" d="M21.315,186.039a3.652,3.652,0,0,1,3.72,3.626,3.648,3.648,0,1,1-7.3.006,3.586,3.586,0,0,1,3.575-3.633m2.028,3.677a2.012,2.012,0,0,0-1.935-1.98,1.938,1.938,0,0,0-1.949,1.94,2.011,2.011,0,0,0,1.976,2.062,2.044,2.044,0,0,0,1.908-2.023" transform="translate(-13.541 -142.004)" fill="url(#linear-gradient)"/>
      </g>
    </g>
  </g>
</svg>
