<svg xmlns="http://www.w3.org/2000/svg" xmlns:xlink="http://www.w3.org/1999/xlink" width="125" height="125" viewBox="0 0 125 125">
  <defs>
    <clipPath id="clip-path">
      <rect id="Rectángulo_403378" data-name="Rectángulo 403378" width="73.132" height="72.88" fill="#efc6ca"/>
    </clipPath>
  </defs>
  <g id="Grupo_1103045" data-name="Grupo 1103045" transform="translate(-740 -906.805)">
    <circle id="Elipse_11555" data-name="Elipse 11555" cx="62.5" cy="62.5" r="62.5" transform="translate(740 906.805)" fill="#efc6ca"/>
    <circle id="Elipse_11550" data-name="Elipse 11550" cx="60" cy="60" r="60" transform="translate(741 909.805)" fill="#fff"/>
    <path id="Trazado_924878" data-name="Trazado 924878" d="M-8377-6842.439s16-32.561,52.5-30.061" transform="translate(9129 7792.805)" fill="none" stroke="#efc6ca" stroke-width="2" stroke-dasharray="6 6"/>
    <path id="Trazado_924879" data-name="Trazado 924879" d="M-8377-6842.439s16-32.561,52.5-30.061" transform="translate(-6499.41 -6945.039) rotate(-172)" fill="none" stroke="#efc6ca" stroke-width="2" stroke-dasharray="6 6"/>
    <g id="Grupo_1102991" data-name="Grupo 1102991" transform="translate(763.981 933.365)">
      <g id="Grupo_1102990" data-name="Grupo 1102990" clip-path="url(#clip-path)">
        <path id="Trazado_925245" data-name="Trazado 925245" d="M48,71.9c-.863-1.482-1.7-2.91-2.528-4.342-1.108-1.915-2.461-1.99-3.811-.207a14.1,14.1,0,0,1-12.928,5.438c0-1.769,0-3.56,0-5.351a1.97,1.97,0,0,0-2.743-1.875c-5.623,2.484-10.149,1.078-14.412-1.495L14.3,59.324a1.843,1.843,0,0,0-1.533-2.949c-5.451-.616-9.1-3.69-11.66-8.512q2.275-1.315,4.542-2.625c1.653-.953,1.739-2.432.179-3.588A13.1,13.1,0,0,1,.505,33.339c-.276-1.479-.327-3-.5-4.737,1.9,0,3.635,0,5.372,0,1.823,0,2.663-1.339,1.944-3.086-1.964-4.768-1.428-9.481,1.677-14.05L13.751,14.2a1.818,1.818,0,0,0,2.857-1.35C17.14,7.308,20.215,3.61,25.139.977c.831,1.428,1.682,2.882,2.526,4.339,1.109,1.916,2.46,1.992,3.811.208A14.087,14.087,0,0,1,44.4.086c0,1.722,0,3.467,0,5.211a1.987,1.987,0,0,0,2.879,1.969C52.266,5.041,56.9,5.95,61.564,8.8l-2.737,4.749A1.843,1.843,0,0,0,60.36,16.5c5.453.612,9.1,3.693,11.662,8.513q-2.206,1.278-4.41,2.556c-1.835,1.061-1.909,2.446-.2,3.738a13.045,13.045,0,0,1,5.21,8.23c.274,1.48.329,3,.508,4.738-1.9,0-3.635,0-5.373,0-1.825,0-2.689,1.346-1.941,3.081C67.953,52.3,67,56.888,64.179,61.431l-4.8-2.758a1.821,1.821,0,0,0-2.856,1.353C55.987,65.564,52.916,69.265,48,71.9M6.93,34.3a8.108,8.108,0,0,0,3.735,3.627,2.909,2.909,0,0,1,1.215,1.518c.644,2.129,1.069,4.325,1.732,6.446.295.939.1,1.363-.725,1.774-1.013.5-1.964,1.13-3.089,1.79a8.408,8.408,0,0,0,5.009,1.232c.533-.016,1.263-.019,1.576.3,1.958,1.976,3.824,4.044,5.755,6.12L19.917,61.1A7.556,7.556,0,0,0,24.8,59.633a2.266,2.266,0,0,1,2.343-.2,41.7,41.7,0,0,0,5.863,1.693c1.243.239,1.551.749,1.452,1.883-.084.965-.017,1.943-.017,3.118A8.4,8.4,0,0,0,38.076,62.3a2.462,2.462,0,0,1,1.271-1.116c2.313-.689,4.653-1.292,7-1.838a1.438,1.438,0,0,1,1.212.479c.719,1.034,1.3,2.162,2.026,3.4a8.732,8.732,0,0,0,1.226-5.194A2.259,2.259,0,0,1,51.23,56.5c1.92-1.894,3.922-3.7,6.011-5.648l3.981,2.258a8.976,8.976,0,0,0-1.51-5.083,2.615,2.615,0,0,1-.26-1.783c.571-2.247,1.318-4.449,1.892-6.7.194-.759.495-1.023,1.242-1,1.153.042,2.309.011,3.663.011a8.534,8.534,0,0,0-3.853-3.66,2.456,2.456,0,0,1-1.1-1.281c-.673-2.269-1.191-4.583-1.847-6.858a1.046,1.046,0,0,1,.616-1.46c1.069-.556,2.091-1.2,3.256-1.883a8.292,8.292,0,0,0-5.062-1.245,2.347,2.347,0,0,1-1.559-.342c-1.927-1.949-3.764-3.986-5.715-6.085l2.229-3.945a8.477,8.477,0,0,0-5.091,1.49,2.632,2.632,0,0,1-1.785.228c-2.2-.564-4.348-1.33-6.555-1.858-.917-.22-1.142-.607-1.1-1.445.05-1.1.013-2.2.013-3.491a8.7,8.7,0,0,0-3.673,3.9,2.45,2.45,0,0,1-1.3,1.077q-3.4,1.007-6.869,1.792a1.564,1.564,0,0,1-1.312-.51c-.721-1.009-1.289-2.126-2.006-3.355A9.127,9.127,0,0,0,22.31,14.9a2.427,2.427,0,0,1-.566,1.593c-1.612,1.672-3.359,3.215-4.962,4.9a1.107,1.107,0,0,1-1.681.206c-.984-.625-2.016-1.174-3.165-1.835A8.56,8.56,0,0,0,13.457,24.9a2.418,2.418,0,0,1,.248,1.656q-.886,3.437-1.991,6.814a1.589,1.589,0,0,1-1.1.894A36.855,36.855,0,0,1,6.93,34.3" transform="translate(-0.001 0)" fill="#efc6ca"/>
        <path id="Trazado_925246" data-name="Trazado 925246" d="M106.752,91.964A14.256,14.256,0,1,1,92.462,77.775a14.294,14.294,0,0,1,14.291,14.189m-5.71.123a8.545,8.545,0,1,0-8.561,8.5,8.589,8.589,0,0,0,8.561-8.5" transform="translate(-55.932 -55.599)" fill="#efc6ca"/>
      </g>
    </g>
  </g>
</svg>
