<svg xmlns="http://www.w3.org/2000/svg" xmlns:xlink="http://www.w3.org/1999/xlink" width="125" height="125" viewBox="0 0 125 125">
  <defs>
    <linearGradient id="linear-gradient" x1="0.5" x2="0.5" y2="1" gradientUnits="objectBoundingBox">
      <stop offset="0" stop-color="#81c7c5"/>
      <stop offset="1" stop-color="#c2f8f6"/>
    </linearGradient>
    <clipPath id="clip-path">
      <rect id="Rectángulo_403393" data-name="Rectángulo 403393" width="64.589" height="55.48" fill="url(#linear-gradient)"/>
    </clipPath>
  </defs>
  <g id="Grupo_1103052" data-name="Grupo 1103052" transform="translate(-318 -2995.731)">
    <circle id="Elipse_11555" data-name="Elipse 11555" cx="62.5" cy="62.5" r="62.5" transform="translate(318 2995.731)" fill="#c0e6e5"/>
    <circle id="Elipse_11550" data-name="Elipse 11550" cx="60" cy="60" r="60" transform="translate(319 2998.731)" fill="#fff"/>
    <path id="Trazado_924878" data-name="Trazado 924878" d="M-8377-6842.439s16-32.561,52.5-30.061" transform="translate(8707 9881.731)" fill="none" stroke="#4bb1a3" stroke-width="2" stroke-dasharray="6 6"/>
    <g id="Grupo_1103011" data-name="Grupo 1103011" transform="translate(346.706 3030.992)">
      <g id="Grupo_1103010" data-name="Grupo 1103010" clip-path="url(#clip-path)">
        <path id="Trazado_925325" data-name="Trazado 925325" d="M62.644,32.668V2.032H61.039c-5.022,0-10.043.014-15.065-.023a1.893,1.893,0,0,1-1.358-.529c-.465-.628.155-1.29,1.226-1.3,3.111-.02,6.222-.008,9.332-.008,2.577,0,5.156.033,7.732-.015,1.163-.022,1.686.34,1.682,1.6q-.05,15.6,0,31.2c0,1.13-.371,1.631-1.543,1.591-1.686-.057-3.374-.015-5.34-.015.469.435.762.716,1.065.987a11.438,11.438,0,0,1-7.415,20.032c-12.709.044-25.42.074-38.129-.007C5.153,55.494-.764,48.5.08,40.385,1.172,29.871,2.2,19.35,3.207,8.828A9.454,9.454,0,0,1,12.434.186C14.966.134,17.5.179,20.033.174c.709,0,1.45.057,1.427.971-.023.933-.8.89-1.488.889-2.4,0-4.8-.023-7.2,0a7.536,7.536,0,0,0-7.715,7.1Q3.509,24.787,1.947,40.432C1.187,47.966,6.334,53.7,13.922,53.71q18.465.015,36.93-.005a9.575,9.575,0,0,0,2.933-18.723,8.673,8.673,0,0,0-2.479-.419q-17.865-.041-35.73-.012a6.446,6.446,0,0,0-1.924,12.612,8.918,8.918,0,0,0,2.5.32q17.131.03,34.263.01c2.046,0,3.19-.92,3.249-2.547A2.543,2.543,0,0,0,51.3,42.23c-.44-.044-.888-.027-1.332-.027H18.508c-.311,0-.622.008-.933,0-.706-.024-1.578.079-1.586-.948-.007-1.074.9-.9,1.584-.9q16.531-.01,33.063,0c2.935,0,4.889,1.806,4.9,4.456s-1.923,4.523-4.846,4.53c-11.643.026-23.286.05-34.93-.008A8.264,8.264,0,0,1,7.225,40.84c.071-4.645,3.818-8.161,8.736-8.164q22.731-.013,45.462-.007h1.221" transform="translate(0 -0.117)" fill="url(#linear-gradient)"/>
        <path id="Trazado_925326" data-name="Trazado 925326" d="M134.8,1.911a4.977,4.977,0,0,1-1.446-.034c-.348-.11-.879-.581-.835-.787a1.4,1.4,0,0,1,.827-.955,7.139,7.139,0,0,1,2.5-.017c.422.078.758.624,1.133.958a6.143,6.143,0,0,1-1.13.822,2.809,2.809,0,0,1-1.048.025V1.911" transform="translate(-97.186 -0.012)" fill="url(#linear-gradient)"/>
        <path id="Trazado_925327" data-name="Trazado 925327" d="M100.37,1.9a3.813,3.813,0,0,1-1.313-.033C98.681,1.724,98.413,1.3,98.1,1c.313-.31.588-.824.945-.889a6.419,6.419,0,0,1,2.37-.009c.434.088.779.62,1.163.953a6.439,6.439,0,0,1-1.157.828,2.819,2.819,0,0,1-1.05.025V1.9" transform="translate(-71.944 0)" fill="url(#linear-gradient)"/>
      </g>
    </g>
  </g>
</svg>
