<svg xmlns="http://www.w3.org/2000/svg" xmlns:xlink="http://www.w3.org/1999/xlink" width="125" height="125" viewBox="0 0 125 125">
  <defs>
    <linearGradient id="linear-gradient" x1="0.5" x2="0.5" y2="1" gradientUnits="objectBoundingBox">
      <stop offset="0" stop-color="#81c7c5"/>
      <stop offset="1" stop-color="#c2f8f6"/>
    </linearGradient>
    <clipPath id="clip-path">
      <rect id="Rectángulo_403324" data-name="Rectángulo 403324" width="53.202" height="54.488" fill="url(#linear-gradient)"/>
    </clipPath>
  </defs>
  <g id="Grupo_1103049" data-name="Grupo 1103049" transform="translate(-318 -2660.001)">
    <circle id="Elipse_11555" data-name="Elipse 11555" cx="62.5" cy="62.5" r="62.5" transform="translate(318 2660.001)" fill="#c0e6e5"/>
    <circle id="Elipse_11550" data-name="Elipse 11550" cx="60" cy="60" r="60" transform="translate(319 2663.001)" fill="#fff"/>
    <path id="Trazado_924878" data-name="Trazado 924878" d="M-8377-6842.439s16-32.561,52.5-30.061" transform="translate(8707 9546.001)" fill="none" stroke="#4bb1a3" stroke-width="2" stroke-dasharray="6 6"/>
    <path id="Trazado_924879" data-name="Trazado 924879" d="M-8377-6842.439s16-32.561,52.5-30.061" transform="translate(-6921.41 -5191.842) rotate(-172)" fill="none" stroke="#4bb1a3" stroke-width="2" stroke-dasharray="6 6"/>
    <g id="Grupo_1102936" data-name="Grupo 1102936" transform="translate(352.399 2695.757)">
      <g id="Grupo_1102935" data-name="Grupo 1102935" transform="translate(0 0)" clip-path="url(#clip-path)">
        <path id="Trazado_925107" data-name="Trazado 925107" d="M26.626,0H49.281A3.632,3.632,0,0,1,53.2,3.895q0,17.853.005,35.705a6.954,6.954,0,0,1-1.838,4.863c-2.327,2.573-4.621,5.174-6.93,7.763a6.492,6.492,0,0,1-5.051,2.261q-12.757,0-25.515,0a6.521,6.521,0,0,1-5.1-2.264C6.379,49.538,3.98,46.861,1.6,44.172A6.167,6.167,0,0,1,.008,39.978Q-.009,21.83,0,3.68A3.605,3.605,0,0,1,3.7,0Q15.162,0,26.626,0M2.608,7.881V39.814a4.059,4.059,0,0,0,1.077,2.8C6,45.2,8.32,47.776,10.613,50.379a4.291,4.291,0,0,0,3.421,1.513q12.65-.02,25.3,0a4.014,4.014,0,0,0,3.145-1.4q3.5-3.924,7-7.842A4.23,4.23,0,0,0,50.594,39.7q-.009-15.56,0-31.122V7.988H43.881c.952,4.634-.309,8.432-4.3,11a9.125,9.125,0,0,1-10.394.019c-4.064-2.593-5.308-6.446-4.306-11.124Zm0-2.68c.2.013.341.03.48.03H24.66c.774,0,1.548-.026,2.319.015a1.273,1.273,0,0,1,1.1,1.866c-.067.146-.142.29-.212.435a7.213,7.213,0,0,0,12,7.806,7.094,7.094,0,0,0,1.01-7.828A2.429,2.429,0,0,1,40.63,6.3c.1-.659.667-.989,1.467-.99,2.1,0,4.207,0,6.31,0H50.59V4.161c0-1.3-.258-1.558-1.533-1.558q-18.04,0-36.079-.006-4.584,0-9.169.008a1.057,1.057,0,0,0-1.2,1.187c-.006.449,0,.9,0,1.41" transform="translate(0 0)" fill="url(#linear-gradient)"/>
        <path id="Trazado_925108" data-name="Trazado 925108" d="M13.924,50.405a1.347,1.347,0,0,1-.775,1.338,1.165,1.165,0,0,1-1.4-.217c-1.3-1.413-2.581-2.841-3.829-4.3a1.231,1.231,0,0,1,.221-1.739,1.285,1.285,0,0,1,1.762.088q1.886,2.066,3.718,4.181a2.244,2.244,0,0,1,.3.648" transform="translate(-0.949 -5.603)" fill="url(#linear-gradient)"/>
        <path id="Trazado_925109" data-name="Trazado 925109" d="M54.424,41.664a5.609,5.609,0,0,1-1.565,4.411,1.313,1.313,0,0,1-1.911.187,1.27,1.27,0,0,1-.045-1.911,3.275,3.275,0,0,0,.913-2.553c-.031-.519-.015-1.042,0-1.562a1.306,1.306,0,1,1,2.61,0c.01.413,0,.826,0,1.423" transform="translate(-6.261 -4.822)" fill="url(#linear-gradient)"/>
        <path id="Trazado_925110" data-name="Trazado 925110" d="M43.233,55.345a1.4,1.4,0,0,1-1.552-.988,1.177,1.177,0,0,1,.683-1.423c1.419-.331,2.192-1.419,3.074-2.4.251-.28.488-.577.762-.832a1.28,1.28,0,0,1,1.676-.074,1.228,1.228,0,0,1,.336,1.635c-1.1,1.31-2.066,2.777-3.648,3.592a9.508,9.508,0,0,1-1.331.488" transform="translate(-5.164 -6.12)" fill="url(#linear-gradient)"/>
        <path id="Trazado_925111" data-name="Trazado 925111" d="M20.8,55.929c-.88,0-1.762.011-2.642,0a1.3,1.3,0,1,1,.056-2.589c1.743,0,3.487,0,5.231.008a1.269,1.269,0,0,1,1.3.929,1.22,1.22,0,0,1-.495,1.416,1.863,1.863,0,0,1-.861.232c-.862.029-1.726.011-2.589.011Z" transform="translate(-2.078 -6.614)" fill="url(#linear-gradient)"/>
        <path id="Trazado_925112" data-name="Trazado 925112" d="M5.749,24.867c0-.861-.006-1.722,0-2.583a1.311,1.311,0,1,1,2.609-.018q.009,2.61,0,5.221a1.308,1.308,0,1,1-2.61.018c-.011-.88,0-1.758,0-2.638" transform="translate(-0.713 -2.583)" fill="url(#linear-gradient)"/>
        <path id="Trazado_925113" data-name="Trazado 925113" d="M33.187,55.927c-.879,0-1.758.008-2.637,0a1.292,1.292,0,1,1,.012-2.58q2.663-.014,5.328,0a1.3,1.3,0,1,1-.012,2.585c-.9.009-1.794,0-2.691,0Z" transform="translate(-3.621 -6.614)" fill="url(#linear-gradient)"/>
        <path id="Trazado_925114" data-name="Trazado 925114" d="M54.611,30.458c0,.879.009,1.758,0,2.638a1.293,1.293,0,0,1-1.314,1.394A1.31,1.31,0,0,1,52,33.073q-.011-2.611,0-5.221a1.3,1.3,0,0,1,1.292-1.414,1.28,1.28,0,0,1,1.317,1.382c.011.879,0,1.758,0,2.638" transform="translate(-6.448 -3.278)" fill="url(#linear-gradient)"/>
        <path id="Trazado_925115" data-name="Trazado 925115" d="M8.363,37.332c0,.879.008,1.758,0,2.637a1.312,1.312,0,0,1-1.317,1.395A1.29,1.29,0,0,1,5.755,40q-.018-2.663,0-5.327a1.3,1.3,0,1,1,2.6.025c.006.879,0,1.758,0,2.637Z" transform="translate(-0.713 -4.13)" fill="url(#linear-gradient)"/>
        <path id="Trazado_925116" data-name="Trazado 925116" d="M8.362,14.254c0,.43.012.861,0,1.291a1.313,1.313,0,0,1-1.295,1.311,1.291,1.291,0,0,1-1.309-1.292q-.032-1.318,0-2.636a1.26,1.26,0,0,1,1.317-1.271,1.273,1.273,0,0,1,1.287,1.305c.013.43,0,.861,0,1.291" transform="translate(-0.712 -1.445)" fill="url(#linear-gradient)"/>
        <path id="Trazado_925117" data-name="Trazado 925117" d="M54.608,19.827c0,.43.015.861,0,1.291a1.3,1.3,0,0,1-2.6.039q-.041-1.344,0-2.689a1.287,1.287,0,0,1,1.339-1.257A1.271,1.271,0,0,1,54.6,18.482c.018.448,0,.9,0,1.345" transform="translate(-6.447 -2.134)" fill="url(#linear-gradient)"/>
        <path id="Trazado_925118" data-name="Trazado 925118" d="M33.118,11.446a5.359,5.359,0,1,1,5.348,5.368,5.385,5.385,0,0,1-5.348-5.368M38.493,8.7a2.743,2.743,0,1,0,2.73,2.745A2.728,2.728,0,0,0,38.493,8.7" transform="translate(-4.107 -0.752)" fill="url(#linear-gradient)"/>
      </g>
    </g>
  </g>
</svg>
