<svg xmlns="http://www.w3.org/2000/svg" xmlns:xlink="http://www.w3.org/1999/xlink" width="125" height="125" viewBox="0 0 125 125">
  <defs>
    <linearGradient id="linear-gradient" x1="0.5" x2="0.5" y2="1" gradientUnits="objectBoundingBox">
      <stop offset="0" stop-color="#d898b0"/>
      <stop offset="1" stop-color="#f8c2dd"/>
    </linearGradient>
    <clipPath id="clip-path">
      <rect id="Rectángulo_403388" data-name="Rectángulo 403388" width="75.686" height="69.605" fill="url(#linear-gradient)"/>
    </clipPath>
  </defs>
  <g id="Grupo_1103057" data-name="Grupo 1103057" transform="translate(-1159 -3330.462)">
    <circle id="Elipse_11555" data-name="Elipse 11555" cx="62.5" cy="62.5" r="62.5" transform="translate(1159 3330.462)" fill="#efc6ca"/>
    <circle id="Elipse_11550" data-name="Elipse 11550" cx="60" cy="60" r="60" transform="translate(1160 3333.462)" fill="#fff"/>
    <path id="Trazado_924878" data-name="Trazado 924878" d="M-8377-6842.439s16-32.561,52.5-30.061" transform="translate(9548 10216.462)" fill="none" stroke="#efc6ca" stroke-width="2" stroke-dasharray="6 6"/>
    <path id="Trazado_924879" data-name="Trazado 924879" d="M-8377-6842.439s16-32.561,52.5-30.061" transform="translate(-6080.41 -4521.381) rotate(-172)" fill="none" stroke="#efc6ca" stroke-width="2" stroke-dasharray="6 6"/>
    <g id="Grupo_1103001" data-name="Grupo 1103001" transform="translate(1182.157 3352.16)">
      <g id="Grupo_1103000" data-name="Grupo 1103000" clip-path="url(#clip-path)">
        <path id="Trazado_925299" data-name="Trazado 925299" d="M72.106,62.617V59.461H70.435c-5.6,0-11.206-.026-16.808.015-1.759.013-3.223-.451-4.043-2.086A4.346,4.346,0,0,1,50.1,52.7c1.012-1.5,1.816-3.138,2.68-4.734a6.865,6.865,0,0,1,6.265-3.8c1.967-.048,3.937-.017,5.906-.007.783,0,1.631.053,1.633,1.11s-.818,1.122-1.618,1.122c-1.615,0-3.235.079-4.845-.015-3.173-.184-4.917.617-6.445,4.961H72.1c-.179-2.858-.351-5.591-.522-8.325h-.332c-.1,1.163-.211,2.326-.308,3.49-.063.755-.243,1.575-1.172,1.344a1.737,1.737,0,0,1-.917-1.4c.215-2.759.485-5.524.962-8.247a2.7,2.7,0,0,1,1.631-1.834c1.06-.211,1.469.9,1.583,1.825a86.073,86.073,0,0,1,1.043,9.76c.066,8.824-.093,17.651-.257,26.476A29.784,29.784,0,0,1,73.03,79.5a2.387,2.387,0,0,1-.766,1.408,1.666,1.666,0,0,1-1.456.073c-.237-.117-.313-.871-.221-1.286.275-1.245.669-2.465,1.072-3.891-.852-.042-1.391-.09-1.931-.091-4.493-.007-8.985.032-13.477-.018-3.6-.04-6.183-1.988-6.846-5.032-.939-4.316,2.086-7.991,6.687-8.034,4.744-.045,9.489-.011,14.234-.011h1.779m-.061,2.233c-5.42,0-10.711-.019-16,.008-2.782.014-4.616,1.768-4.613,4.313s1.881,4.3,4.629,4.306c4.392.015,8.784,0,13.176,0,2.711,0,2.714,0,2.61-2.729a2.062,2.062,0,0,0-.226-.528H69.856c-3.534,0-7.068,0-10.6-.006-.807,0-1.828.061-1.839-1.051-.012-1.2,1.029-1.141,1.906-1.14q5.528,0,11.056,0c.533,0,1.065-.054,1.667-.086Zm.043-11.16c-6.524,0-12.874-.036-19.221.068-.514.008-1.254.908-1.458,1.533a1.47,1.47,0,0,0,1.217,1.926,5.043,5.043,0,0,0,1.2.1q8.4.01,16.8,0c.48,0,.96-.071,1.462-.111Z" transform="translate(-34.236 -25.332)" fill="url(#linear-gradient)"/>
        <path id="Trazado_925300" data-name="Trazado 925300" d="M168.241,150.977c-1.887-4.515-3.728-8.925-5.57-13.333-1.088-2.6-2.234-5.186-3.224-7.827a2.076,2.076,0,0,1,.327-1.89c.849-.522,1.315.286,1.626,1.027,3.152,7.531,6.429,15.013,9.366,22.626.7,1.815.35,4.071.271,6.115-.013.331-1.133.882-1.745.888-7.218.062-14.436.04-21.653.04-2.221,0-4.442-.013-6.663.006-.815.007-1.654-.058-1.664-1.064-.01-1.027.853-1.072,1.655-1.071q12.947.006,25.894,0h1.995v-3.1h-1.84q-13.174,0-26.347,0c-1.978,0-2.131-.154-2.424-2.058-.407-2.64-.894-5.269-1.218-7.918-.065-.525.337-1.483.73-1.613.963-.316,1.221.5,1.351,1.33.366,2.34.729,4.682,1.2,7a1.541,1.541,0,0,0,1.084.984c8.782.048,17.564.027,26.346.015a2.689,2.689,0,0,0,.5-.155" transform="translate(-95.509 -89.055)" fill="url(#linear-gradient)"/>
        <path id="Trazado_925301" data-name="Trazado 925301" d="M3,151.5H30.023c.407-2.452.808-4.874,1.211-7.295.058-.347.019-.776.211-1.022a8.015,8.015,0,0,1,1.206-1.061c.3.492.908,1.025.849,1.47-.4,3-.952,5.971-1.423,8.957-.166,1.054-.861,1.245-1.748,1.242-1.969-.007-3.937,0-5.906,0H2.6c-.145.242-.231.322-.238.409-.23,2.694-.228,2.7,2.394,2.7q12.416,0,24.833,0a4.389,4.389,0,0,1,1.5.086c.35.132.826.626.793.906a1.73,1.73,0,0,1-.819,1.069c-.3.18-.786.064-1.19.064q-13.855,0-27.71,0c-1.92,0-1.984-.174-2.119-2.06a16.62,16.62,0,0,1,1.547-8.037c2.731-6.23,5.282-12.538,7.909-18.813a3.963,3.963,0,0,1,.656-1.345,1.482,1.482,0,0,1,1.262-.391c.324.144.55.763.6,1.2a2.681,2.681,0,0,1-.392,1.124q-4,9.554-7.993,19.106c-.21.5-.375,1.022-.62,1.7" transform="translate(0 -89.457)" fill="url(#linear-gradient)"/>
        <path id="Trazado_925302" data-name="Trazado 925302" d="M151.222,69.388c-1.481-4.3-3.214-5.194-6.384-5.013a36.5,36.5,0,0,1-4.992-.033c-.55-.045-1.425-.579-1.506-1.011-.188-1,.706-1.18,1.514-1.171,2.369.026,4.746-.027,7.105.148a6.132,6.132,0,0,1,4.947,3.326c1.39,2.4,2.773,4.8,4.114,7.218a6.659,6.659,0,0,1-5.644,9.965c-3.226.116-6.459.025-9.689.025-.81,0-1.725-.147-1.509-1.148.1-.455,1.042-1.012,1.619-1.032,3.025-.1,6.055-.034,9.083-.054,2.964-.02,4.763-1.732,4.756-4.481-.007-2.729-1.844-4.44-4.8-4.448q-4.467-.013-8.933,0c-.876,0-1.932.058-1.908-1.136s1.115-1.085,1.967-1.088c3.079-.009,6.157,0,9.236,0,.331,0,.663-.039,1.02-.062" transform="translate(-96.411 -43.328)" fill="url(#linear-gradient)"/>
        <path id="Trazado_925303" data-name="Trazado 925303" d="M147.289,148.571c-2.07,0-4.14.009-6.21,0-.829-.005-1.842-.056-1.674-1.164.064-.425,1.062-1,1.646-1.01,4.087-.088,8.178-.062,12.267-.037,1.178.007,2.242-.205,2.282-1.585.041-1.4-1.024-1.679-2.2-1.677q-5.6.005-11.208-.005a3.393,3.393,0,0,1-1.346-.058,5.733,5.733,0,0,1-1.216-1.053c.413-.359.808-1,1.242-1.028,1.861-.117,3.733-.054,5.6-.055,2.423,0,4.847-.026,7.27.009a3.764,3.764,0,0,1,4.023,3.643,3.679,3.679,0,0,1-3.814,3.987c-2.216.1-4.441.022-6.663.022v.018" transform="translate(-97.159 -98.197)" fill="url(#linear-gradient)"/>
        <path id="Trazado_925304" data-name="Trazado 925304" d="M146.011,107.708a25.188,25.188,0,0,1-3.461-.051c-.484-.068-.889-.693-1.33-1.064.424-.334.837-.939,1.273-.956,2.358-.1,4.725-.095,7.083,0,.42.017.816.635,1.223.976-.44.365-.846.979-1.328,1.045a25.579,25.579,0,0,1-3.461.05" transform="translate(-98.437 -73.584)" fill="url(#linear-gradient)"/>
        <path id="Trazado_925305" data-name="Trazado 925305" d="M142.328,14.852a5.642,5.642,0,0,1-.71.99c-1.355,1.2-2.7,2.419-4.141,3.5-.384.287-1.12.1-1.694.134.1-.573-.01-1.353.325-1.682a50.644,50.644,0,0,1,4.22-3.637,1.927,1.927,0,0,1,1.372-.167c.228.041.381.5.628.863" transform="translate(-94.647 -9.718)" fill="url(#linear-gradient)"/>
        <path id="Trazado_925306" data-name="Trazado 925306" d="M141.893,46.481a12.044,12.044,0,0,1-2.549-.047c-.5-.109-.888-.693-1.326-1.064.4-.353.783-.985,1.2-1.011a42.681,42.681,0,0,1,5.413.006c.417.027.793.675,1.188,1.037-.406.359-.77.943-1.228,1.03a14.767,14.767,0,0,1-2.7.049" transform="translate(-96.205 -30.862)" fill="url(#linear-gradient)"/>
        <path id="Trazado_925307" data-name="Trazado 925307" d="M121.823,3.623a11.09,11.09,0,0,1-.048,2.4c-.1.453-.679.8-1.042,1.193-.348-.351-.974-.686-1-1.055A46.5,46.5,0,0,1,119.747.89c.019-.334.656-.932.917-.887a1.556,1.556,0,0,1,1.1.912,14.978,14.978,0,0,1,.051,2.708h.012" transform="translate(-83.413 -0.001)" fill="url(#linear-gradient)"/>
        <path id="Trazado_925308" data-name="Trazado 925308" d="M77.37,130.424v3.088c-.6.033-1.135.085-1.667.086q-5.528.011-11.055,0c-.876,0-1.918-.062-1.906,1.14.011,1.112,1.032,1.049,1.839,1.051,3.534.01,7.068.005,10.6.006h1.762a2.082,2.082,0,0,1,.226.529c.1,2.728.1,2.728-2.61,2.728-4.392,0-8.784.01-13.176,0-2.747-.009-4.626-1.775-4.629-4.306s1.831-4.3,4.613-4.313c5.291-.027,10.583-.008,16-.008" transform="translate(-39.561 -90.907)" fill="url(#linear-gradient)"/>
        <path id="Trazado_925309" data-name="Trazado 925309" d="M77.176,93.589v3.522c-.5.04-.982.11-1.462.111q-8.4.011-16.8,0a5.043,5.043,0,0,1-1.2-.1A1.47,1.47,0,0,1,56.5,95.191c.2-.626.945-1.525,1.458-1.533,6.347-.1,12.7-.068,19.221-.068" transform="translate(-39.324 -65.231)" fill="url(#linear-gradient)"/>
      </g>
    </g>
  </g>
</svg>
