<svg xmlns="http://www.w3.org/2000/svg" xmlns:xlink="http://www.w3.org/1999/xlink" width="125" height="125" viewBox="0 0 125 125">
  <defs>
    <linearGradient id="linear-gradient" x1="0.5" x2="0.5" y2="1" gradientUnits="objectBoundingBox">
      <stop offset="0" stop-color="#d898b0"/>
      <stop offset="1" stop-color="#f8c2dd"/>
    </linearGradient>
    <clipPath id="clip-path">
      <rect id="Rectángulo_403389" data-name="Rectángulo 403389" width="69.935" height="70.134" fill="url(#linear-gradient)"/>
    </clipPath>
  </defs>
  <g id="Grupo_1103056" data-name="Grupo 1103056" transform="translate(-740 -3330.462)">
    <circle id="Elipse_11555" data-name="Elipse 11555" cx="62.5" cy="62.5" r="62.5" transform="translate(740 3330.462)" fill="#efc6ca"/>
    <circle id="Elipse_11550" data-name="Elipse 11550" cx="60" cy="60" r="60" transform="translate(741 3333.462)" fill="#fff"/>
    <path id="Trazado_924878" data-name="Trazado 924878" d="M-8377-6842.439s16-32.561,52.5-30.061" transform="translate(9129 10216.462)" fill="none" stroke="#efc6ca" stroke-width="2" stroke-dasharray="6 6"/>
    <path id="Trazado_924879" data-name="Trazado 924879" d="M-8377-6842.439s16-32.561,52.5-30.061" transform="translate(-6499.41 -4521.381) rotate(-172)" fill="none" stroke="#efc6ca" stroke-width="2" stroke-dasharray="6 6"/>
    <g id="Grupo_1103003" data-name="Grupo 1103003" transform="translate(767.533 3357.895)">
      <g id="Grupo_1103002" data-name="Grupo 1103002" clip-path="url(#clip-path)">
        <path id="Trazado_925310" data-name="Trazado 925310" d="M0,58.493V56.125H3.558c-.88-2.48-.025-4.616.685-6.782.968-2.953,1.98-5.9,2.812-8.888,1.312-4.717,3.8-8.481,8.309-10.8-.567-1.855.141-3.376.891-5.012a23.494,23.494,0,0,0,1.19-4.882,1.076,1.076,0,0,0-.131-.835c-1.333-1.422-.991-3.175-1.011-4.854a2.75,2.75,0,0,1,.153-1c.742-1.929,1.416-3.892,2.292-5.76a12.832,12.832,0,0,1,24.139,2.918,3.552,3.552,0,0,0,.37,1.243,6.467,6.467,0,0,1,.123,7.36,2.707,2.707,0,0,0-.193,1.094c2.74,0,5.388-.084,8.027.037A2.593,2.593,0,0,1,53.6,22.2a2.813,2.813,0,0,1-1.362,3.125c-1.264.836-1.179,2.2-.072,3.173a13.736,13.736,0,0,1,1.911,2.681l-.348.4c.766,0,1.533-.015,2.3,0a5.538,5.538,0,0,1,4.794,2.591,1.653,1.653,0,0,0,1.743.921,8.665,8.665,0,0,1,1.749.008,2.179,2.179,0,0,1,2.176,2.145c.1,2.038.092,4.088.006,6.127a2.2,2.2,0,0,1-2.263,2.214c-.721.056-1.45.01-2.275.01v5.681c2.924.485,2.924.485,3.564,4.8h4.409v2.307H65.476c-.371,2.128-1.817,2.446-3.663,2.429-7-.065-14.01-.027-21.016-.026-1.754,0-2.222.717-1.479,2.327.2.432.581.776.816,1.195a10.484,10.484,0,0,1,1.171,2.315c.672,2.548-.113,3.508-2.7,3.509q-5.838,0-11.676,0c-1.75,0-1.833-.223-1.921-1.909a10,10,0,0,0-.895-2.653A26.223,26.223,0,0,1,22.751,61.7c-.244-1.286-.883-1.6-2.2-1.376-4.414.744-9.053,1.376-13.189-.339A15.71,15.71,0,0,0,0,58.493m59.491-7.132c0-4.823.061-9.578-.032-14.329A3.3,3.3,0,0,0,56,33.933q-13.426-.042-26.852,0a3.425,3.425,0,0,0-3.5,3.538c-.037,1.166-.009,2.335-.009,3.5,0,3.513,0,3.47,3.511,3.472a1.813,1.813,0,0,0,1.988-1.486c.48-1.569,1.029-3.116,1.577-4.757l2.131.764-.474,1.95H45.252c2.576,0,2.59.015,2.591,2.62s0,5.212,0,7.822ZM16.3,51.245a18.836,18.836,0,0,1,4.091.611c.95.366,1.788.28,2.135-.366.795-1.481,2.047-1.192,3.272-1.232.32-.011.639-.08.955-.123V46.868c-2.7-.728-3.449-1.707-3.453-4.472,0-1.119.058-2.242-.012-3.357-.158-2.542.307-4.83,2.633-6.527-1.3-.61-1.52-2.181-3.242-2.149-8.216.151-12.56,5.425-13.972,13.331l5.183,1.481c.046-.705.083-1.267.119-1.824H16.3v7.893ZM39.8,17.5c1.97.065,2.184-.14,2.193-2.02a2.567,2.567,0,0,0-.023-1.011,13.334,13.334,0,0,0-.984-1.555c-.443.409-.883.822-1.33,1.228-.395.358-.909,1.065-1.172.982-.466-.145-.774-.779-1.16-1.2-.332-.36-.638-.944-1.031-1.016a5.321,5.321,0,0,1-4.263-3.54,2.823,2.823,0,0,0-1.661-1.5c-.975-.246-1.528.541-1.825,1.481A4.906,4.906,0,0,1,24.328,12.9a2.088,2.088,0,0,0-1,.752c-.427.482-.779,1.031-1.163,1.551a7.178,7.178,0,0,1-1.208-1.369c-.47-.918-1.6-1.338-1.88-.558a7.454,7.454,0,0,0-.249,3.5c.063.416,1.161.674,1.85,1.036l.462-1.325h2.1c.344,4.978,2.723,7.834,6.64,8.055a6.853,6.853,0,0,0,4.76-1.5c2.123-1.67,2.8-3.981,2.72-6.608h2.177L39.8,17.5M45.422,51.43V43.266c-3.8,0-7.53-.013-11.258.025a1.089,1.089,0,0,0-.838.565,3.91,3.91,0,0,1-4.066,2.988v3.42a42.285,42.285,0,0,1,4.611.033c1.9.214,4.1-.951,5.666,1.089.06.077.279.043.424.043,1.788,0,3.576,0,5.461,0m-37.6-5.536c-.7,2.189-1.409,4.244-2.021,6.328a4.642,4.642,0,0,0,4.657,6.213c2.573.028,5.147.017,7.721,0,1.72-.01,2.766-.9,2.78-2.305s-1.038-2.332-2.735-2.35c-1.6-.017-3.2,0-4.807,0h-5.2V51.363h5.7V47.646L7.819,45.894m23.109,6.72A5.75,5.75,0,0,1,30.3,60.23a2.754,2.754,0,0,0,0,3.519c.779,1.237,1.468,2.532,2.273,3.933h6.818a24.9,24.9,0,0,0-1.409-2.253,4.731,4.731,0,0,1-1.2-4.059,9.6,9.6,0,0,1,1.542-3.208c1.3-1.84.406-5.349-1.587-5.515-1.862-.154-3.747-.033-5.815-.033M62.983,53.84H41.135a17.2,17.2,0,0,1,.278,2.213,19.034,19.034,0,0,1-.255,2.27H62.983ZM40.44,10.4a10.39,10.39,0,0,0-20.236.017c2.793,1.224,5.117.306,6.343-2.473a4.094,4.094,0,0,1,7.542.022A4.39,4.39,0,0,0,40.44,10.4M34.38,26.033c1.505,1.743,7.646,3.11,9.3,2.265a14.852,14.852,0,0,1-2.884-8.751c-.738.43-1.435.588-1.567.952a10.234,10.234,0,0,1-4.847,5.534M21.243,19.963H19.851A13.316,13.316,0,0,1,17.8,26.871a7.189,7.189,0,0,0-.4,2.069c3.029-1.488,6.585.211,8.852-2.951a9.706,9.706,0,0,1-5-6.026m5.093,32.772a5.649,5.649,0,0,1-.668,7.439,2.752,2.752,0,0,0-.077,3.511c.791,1.283,1.519,2.6,2.353,4.043h2.071A17.5,17.5,0,0,0,28.7,65.506a5.022,5.022,0,0,1-1.2-4.6,10.256,10.256,0,0,1,1.583-2.883,2.777,2.777,0,0,0,.228-3.385c-.691-.941-1.109-2.557-2.973-1.9m8.178-23.371c-1.559-.737-2.007-2.614-4.281-2.6-2.307.013-2.578,2.023-4.134,2.585a5.141,5.141,0,0,0,8.415.016M64.082,37.5H61.943v5.7h2.138Zm-16.259-14.1c.876,0,1.756.049,2.625-.027.292-.026.556-.371.833-.571-.242-.183-.481-.519-.728-.525q-2.7-.069-5.4,0c-.256.006-.506.324-.758.5.267.209.52.572.8.6.869.079,1.749.029,2.625.03m0,8.177c.876,0,1.756.049,2.626-.027.293-.026.558-.37.836-.568-.29-.186-.576-.525-.871-.533q-2.553-.078-5.108,0c-.307.009-.605.325-.908.5.315.211.614.567.947.6a22.913,22.913,0,0,0,2.479.028M23.411,53.735v4.79a2.247,2.247,0,0,0,1.639-2.517,2.1,2.1,0,0,0-1.639-2.273m12.806-22.31h5.9c-1.644-1.409-5.2-1.3-5.9,0m12.7-5.582H46.789v2.2h2.124Z" transform="translate(0 0)" fill="url(#linear-gradient)"/>
        <path id="Trazado_925311" data-name="Trazado 925311" d="M175.242,132.133a3.5,3.5,0,1,1-3.433,3.607,3.527,3.527,0,0,1,3.433-3.607m.126,5.168c.521-.8,1.1-1.3,1.014-1.645-.109-.454-.735-.783-1.139-1.166-.359.38-1,.762-1,1.14,0,.446.565.889,1.127,1.671" transform="translate(-121.632 -93.544)" fill="url(#linear-gradient)"/>
        <path id="Trazado_925312" data-name="Trazado 925312" d="M89.1,51.171c-.5-.832-1.025-1.326-.989-1.776.03-.376.825-1.05,1.092-.969a1.781,1.781,0,0,1,1.063,1.2c.053.35-.573.8-1.166,1.547" transform="translate(-62.376 -34.278)" fill="url(#linear-gradient)"/>
        <path id="Trazado_925313" data-name="Trazado 925313" d="M114.853,49.552c-.822.514-1.306,1.051-1.755,1.024-.377-.023-1.067-.8-.991-1.072a1.778,1.778,0,0,1,1.175-1.085c.349-.06.813.555,1.571,1.133" transform="translate(-79.362 -34.276)" fill="url(#linear-gradient)"/>
      </g>
    </g>
  </g>
</svg>
