<svg xmlns="http://www.w3.org/2000/svg" xmlns:xlink="http://www.w3.org/1999/xlink" width="125" height="125" viewBox="0 0 125 125">
  <defs>
    <linearGradient id="linear-gradient" x1="0.5" x2="0.5" y2="1" gradientUnits="objectBoundingBox">
      <stop offset="0" stop-color="#d898b0"/>
      <stop offset="1" stop-color="#f8c2dd"/>
    </linearGradient>
    <clipPath id="clip-path">
      <rect id="Rectángulo_403391" data-name="Rectángulo 403391" width="74.594" height="59.658" fill="url(#linear-gradient)"/>
    </clipPath>
  </defs>
  <g id="Grupo_1103053" data-name="Grupo 1103053" transform="translate(-740 -2995.731)">
    <circle id="Elipse_11555" data-name="Elipse 11555" cx="62.5" cy="62.5" r="62.5" transform="translate(740 2995.731)" fill="#efc6ca"/>
    <circle id="Elipse_11550" data-name="Elipse 11550" cx="60" cy="60" r="60" transform="translate(741 2998.731)" fill="#fff"/>
    <path id="Trazado_924878" data-name="Trazado 924878" d="M-8377-6842.439s16-32.561,52.5-30.061" transform="translate(9129 9881.731)" fill="none" stroke="#efc6ca" stroke-width="2" stroke-dasharray="6 6"/>
    <path id="Trazado_924879" data-name="Trazado 924879" d="M-8377-6842.439s16-32.561,52.5-30.061" transform="translate(-6499.41 -4856.111) rotate(-172)" fill="none" stroke="#efc6ca" stroke-width="2" stroke-dasharray="6 6"/>
    <g id="Grupo_1103007" data-name="Grupo 1103007" transform="translate(767.203 3033.902)">
      <g id="Grupo_1103006" data-name="Grupo 1103006" clip-path="url(#clip-path)">
        <path id="Trazado_925318" data-name="Trazado 925318" d="M17.37,40.984a10.147,10.147,0,0,1-4.742-10.977c-1.934-.476-3.317-.135-4.438,1.678C6.519,34.389,4.539,36.9,2.5,39.757c1.8,0,3.32,0,4.844,0,1.649,0,3.307-.088,4.942.065.484.045.9.777,1.354,1.194-.4.417-.793,1.185-1.2,1.2-3.44.086-6.891.167-10.322-.03C.148,42.069-.621,39.918.559,38.206c1.871-2.714,3.819-5.375,5.732-8.059.28-.392.55-.792.8-1.146C3.709,23.6,3.508,17.657,3.95,11.68A34.32,34.32,0,0,1,5.582,3.75C6.586.64,7.74.044,10.989.044,29.907.044,48.824.08,67.742,0c2.431-.01,4.018.962,4.685,3.078A49.463,49.463,0,0,1,74.3,11.245a30.617,30.617,0,0,1-.813,12.406,20.056,20.056,0,0,1-2.708,5.534c-2.414,3.632-5.095,7.086-7.548,10.693A4.918,4.918,0,0,1,58.47,42.3a16.049,16.049,0,0,1-2.6-.093,1.709,1.709,0,0,1-1.1-1.193c0-.414.663-.875,1.11-1.219a1.235,1.235,0,0,1,.853-.033c2.664.531,4.294-.668,5.628-2.916,1.4-2.357,3.151-4.5,4.865-6.907H32.3c-.126,2.032-.248,3.988-.381,6.131a11.419,11.419,0,0,0,1.488-.308c4.816-1.628,9.614-3.313,14.441-4.909a8.255,8.255,0,0,1,10,3.819c.871,1.6.643,2.209-1.071,2.8-2.792.964-5.588,1.913-8.381,2.875-.539.186-1.07.4-1.863.7,3.521,1.2,6.771,2.3,10.02,3.414,2.009.686,2.238,1.348,1.122,3.2a8.132,8.132,0,0,1-9.575,3.575c-5.113-1.654-10.186-3.434-15.276-5.159-.365-.124-.733-.24-1.356-.444a10.167,10.167,0,0,1-.176,8.4,9.667,9.667,0,0,1-6.267,5.25,9.919,9.919,0,0,1-11.483-4.936c-2.45-4.654-1.108-9.379,3.833-13.361M65.421,2.506H11.6c-2.933,0-3.2.114-4.042,3a34.522,34.522,0,0,0-.237,18.1c.855,3.523,1.209,3.665,4.832,3.741a2.616,2.616,0,0,0,2.416-1.132,9.813,9.813,0,0,1,15.589.04,2.508,2.508,0,0,0,2.292,1.1c10.475-.033,20.95-.019,31.425-.023.5,0,1.01-.042,1.513-.065a37.608,37.608,0,0,1,.033-24.766m3.757-.052-.649-.017A26.39,26.39,0,0,0,66.977,5.92a33.379,33.379,0,0,0-.719,14.663,37.351,37.351,0,0,0,1.649,5.674c.131.4.7.991.942.935.429-.1.774-.609,1.125-.976a1.473,1.473,0,0,0,.244-.521,32.069,32.069,0,0,0,.2-21.053,11.664,11.664,0,0,0-1.24-2.188M55.121,46.815c-.06-.074-.106-.19-.182-.216Q43.012,42.5,31.073,38.43a1.23,1.23,0,0,0-1.009.191c-.919.772-1.773,1.621-2.744,2.527a13.915,13.915,0,0,0,1.914,1.011c6.53,2.263,13.061,4.526,19.617,6.716a5.394,5.394,0,0,0,6.27-2.06M22.364,24.89a7.429,7.429,0,1,0-.044,14.859,7.429,7.429,0,0,0,.044-14.859m7.381,24.774a7.35,7.35,0,1,0-14.7.108,7.351,7.351,0,1,0,14.7-.108M55.26,35.375a5.579,5.579,0,0,0-6.682-2.127c-3.807,1.263-7.6,2.581-11.389,3.887a4.637,4.637,0,0,0-.754.459c1.936.661,3.714,1.283,5.505,1.863a1.892,1.892,0,0,0,1.1.056c4.031-1.342,8.05-2.72,12.219-4.139" transform="translate(0 -0.001)" fill="url(#linear-gradient)"/>
        <path id="Trazado_925319" data-name="Trazado 925319" d="M32.958,19.649c-.246,2.338-.5,4.536-.7,6.741-.078.894,0,1.913-1.222,1.918-1.323.005-1.352-1.082-1.239-2.011.309-2.537.688-5.065,1.064-7.593a1.634,1.634,0,0,1,1.914-1.52c2.567.053,5.136.022,7.7.014.847,0,1.633.142,1.653,1.178.021,1.118-.789,1.283-1.7,1.277-2.37-.015-4.741,0-7.476,0" transform="translate(-21.096 -12.181)" fill="url(#linear-gradient)"/>
        <path id="Trazado_925320" data-name="Trazado 925320" d="M59.785,99.026a4.926,4.926,0,0,1,4.91-5.035,4.97,4.97,0,1,1-4.91,5.035m4.963,2.391a2.468,2.468,0,0,0,.021-4.934,2.468,2.468,0,1,0-.021,4.934" transform="translate(-42.381 -66.629)" fill="url(#linear-gradient)"/>
        <path id="Trazado_925321" data-name="Trazado 925321" d="M64.713,163.57a4.87,4.87,0,0,1-4.924-5,4.964,4.964,0,0,1,4.888-4.93,5.048,5.048,0,0,1,5.034,4.966,4.949,4.949,0,0,1-5,4.96m-2.465-5.111a2.546,2.546,0,0,0,2.337,2.653,2.461,2.461,0,0,0,2.57-2.23,2.384,2.384,0,0,0-2.218-2.685,2.484,2.484,0,0,0-2.689,2.263" transform="translate(-42.384 -108.917)" fill="url(#linear-gradient)"/>
      </g>
    </g>
  </g>
</svg>
