<svg xmlns="http://www.w3.org/2000/svg" xmlns:xlink="http://www.w3.org/1999/xlink" width="125" height="125" viewBox="0 0 125 125">
  <defs>
    <linearGradient id="linear-gradient" x1="0.5" x2="0.5" y2="1" gradientUnits="objectBoundingBox">
      <stop offset="0" stop-color="#d898b0"/>
      <stop offset="1" stop-color="#f8c2dd"/>
    </linearGradient>
    <clipPath id="clip-path">
      <rect id="Rectángulo_403387" data-name="Rectángulo 403387" width="66.259" height="66.295" fill="url(#linear-gradient)"/>
    </clipPath>
  </defs>
  <g id="Grupo_1103058" data-name="Grupo 1103058" transform="translate(-740 -3665.192)">
    <circle id="Elipse_11555" data-name="Elipse 11555" cx="62.5" cy="62.5" r="62.5" transform="translate(740 3665.192)" fill="#efc6ca"/>
    <circle id="Elipse_11550" data-name="Elipse 11550" cx="60" cy="60" r="60" transform="translate(741 3668.192)" fill="#fff"/>
    <path id="Trazado_924878" data-name="Trazado 924878" d="M-8377-6842.439s16-32.561,52.5-30.061" transform="translate(9129 10551.192)" fill="none" stroke="#efc6ca" stroke-width="2" stroke-dasharray="6 6"/>
    <path id="Trazado_924879" data-name="Trazado 924879" d="M-8377-6842.439s16-32.561,52.5-30.061" transform="translate(-6499.41 -4186.65) rotate(-172)" fill="none" stroke="#efc6ca" stroke-width="2" stroke-dasharray="6 6"/>
    <g id="Grupo_1102999" data-name="Grupo 1102999" transform="translate(771.371 3695.045)">
      <g id="Grupo_1102998" data-name="Grupo 1102998" clip-path="url(#clip-path)">
        <path id="Trazado_925298" data-name="Trazado 925298" d="M56.328,46.255V44.267h3.2V22.2H54.454c0,1.5-.069,3,.011,4.494q.88,16.461,1.807,32.919c.115,2.113-.045,2.258-2.212,2.258-2.438,0-4.875-.011-7.313,0-1.047.007-1.519-.475-1.475-1.517q.564-13.438,1.124-26.878c0-.079.08-.156.139-.266h2.048c-.349,8.779-.7,17.488-1.047,26.319h6.484c-.159-2.972-.314-5.9-.474-8.828-.523-9.6-1.064-19.19-1.547-28.789a1.488,1.488,0,0,0-1.282-1.6c-2.236-.654-4.442-1.411-6.767-2.161-.82,2.323-1.915,4.369-1.753,6.92.712,11.2,1.256,22.4,1.889,33.605.181,3.191.226,3.188-2.9,3.188H38.649c0,1-.018,1.948,0,2.892.025,1.026-.419,1.529-1.475,1.528q-15.108-.012-30.217,0c-.968,0-1.451-.438-1.442-1.418.01-.955,0-1.909,0-3H2.261c-2.175,0-2.33-.144-2.22-2.252q.417-7.99.86-15.978c.423-7.668.88-15.333,1.255-23a1.927,1.927,0,0,1,1.57-2.055c2.589-.781,5.149-1.655,7.839-2.531-.121-.368-.2-.66-.313-.934-.467-1.085-.046-1.643,1.043-1.88,2.378-.517,4.751-1.06,7.125-1.6.487-.11.972-.233,1.557-.375,0-1.031.026-2.037-.007-3.042-.036-1.112.469-1.543,1.572-1.592a13.123,13.123,0,0,0,2.352-.525q-.035-.234-.071-.468c-.381-.025-.762-.07-1.143-.07-5.657,0-11.314.011-16.971-.018a1.6,1.6,0,0,0-1.79,1.018A3.986,3.986,0,0,1,1.53,8.859c-.94.11-1.52-.291-1.524-1.3q-.012-3.1,0-6.209C.013.335.615-.048,1.546.068A4.477,4.477,0,0,1,5.107,2.583c.175.328.609.735.927.737,6.25.043,12.5.032,19.114.032-1.638-1.738-3.52-.763-5.179-1.2,0-.629,0-1.287,0-1.947C24.148-.327,26.178.141,27.489,3.3H37.2C35.654,1.57,33.75,2.623,32.1,2.136V.08A35.178,35.178,0,0,1,35.95.108,4.344,4.344,0,0,1,39.359,2.62a1.512,1.512,0,0,0,1.082.7c4.6.046,9.2.029,13.8.023a3.331,3.331,0,0,0,.561-.136c-1.493-1.636-3.4-.579-5.039-1.086V.083a16.947,16.947,0,0,1,3.863.068,4.6,4.6,0,0,1,2.8,1.722,2.648,2.648,0,0,0,3.08,1.489,12,12,0,0,1,1.315-.007A4.677,4.677,0,0,1,64.14.159c1.468-.368,2.093.092,2.105,1.585.015,1.84.018,3.68,0,5.519-.015,1.364-.6,1.837-1.915,1.548a4.01,4.01,0,0,1-3.056-2.338c-.335-.813-.824-.909-1.573-.92-1.385-.021-2.528-.087-3.336,1.566-.472.965-1.979,1.423-3.021,2.109l-.268-.294v2.375c2.734.607,5.453,1.243,8.188,1.8a2.487,2.487,0,0,1,1.944,1.519c.829,1.792,1.759,3.536,2.629,5.309.771,1.569.375,2.175-1.411,2.192-.817.007-1.633,0-2.593,0v1.6q0,10.348,0,20.7c0,1.8-.187,1.988-1.966,1.992-1.057,0-2.115-.01-3.172-.024a1.57,1.57,0,0,1-.366-.139M36.439,33.2c-.352,8.889-.7,17.627-1.044,26.346h6.478c-.352-6.67-.69-13.231-1.046-19.792-.323-5.965-.653-11.931-1.025-17.893-.028-.455-.315-1.166-.651-1.287-2.406-.866-4.856-1.611-7.422-2.436-.974,2.435-1.9,4.769-2.844,7.095-.617,1.516-1.181,1.668-2.448.683-1.022-.794-2.029-1.609-3.142-2.494v40.58H36.346V61.92c-.308-.018-.532-.039-.756-.043-2.514-.048-2.529-.048-2.43-2.594q.42-10.816.864-21.63c.062-1.493.174-2.985.261-4.449Zm-15.558,30.8V23.434c-.792.623-1.436,1.123-2.074,1.632-2.713,2.165-2.711,2.165-4.032-1.119-.766-1.9-1.534-3.808-2.346-5.823-2.336.758-4.536,1.525-6.772,2.172a1.574,1.574,0,0,0-1.346,1.7c-.482,9.593-1.023,19.184-1.544,28.775-.159,2.92-.313,5.84-.472,8.805H8.778c-.35-8.829-.7-17.569-1.044-26.354H9.895c.027.319.06.584.071.851.346,8.266.7,16.532,1.025,24.8.094,2.4.627,3.186-2.823,3.028a1.063,1.063,0,0,0-.369.138v1.972ZM47.29,14.537l-.6-2.278,4.1-1c0-.984,0-1.854,0-2.724.011-1.641.192-1.764,1.805-1.9a11.1,11.1,0,0,0,2.131-.6l-.128-.41H39.609a4.712,4.712,0,0,1-4.2,3.321v2.363c2.62.582,5.172,1.155,7.727,1.716,2.282.5,2.36.623,1.7,2.809-.018.062.063.154.112.265.145.062.314.131.48.2,2.926,1.289,6.362,1.305,8.9,3.564.082.073.267.042.4.042,2.788,0,5.576,0,8.584,0-.756-1.525-1.406-2.875-2.1-4.2a1,1,0,0,0-.64-.445c-4.364-.7-8.614-3.018-13.293-.73M32.6,16.066l2.907.925,1.422-3.042c-.951-.225-1.7-.452-2.469-.574a1.43,1.43,0,0,1-1.348-1.717c.046-1.01.007-2.023.011-3.035.007-1.729.175-1.843,1.861-1.984a9.891,9.891,0,0,0,2.06-.627l-.142-.44c-2.895,0-5.79-.012-8.685.018a1.115,1.115,0,0,0-.867.41,4.8,4.8,0,0,1-4.1,2.958v2.349c2.633.583,5.225,1.162,7.82,1.732,2.222.488,2.341.7,1.527,3.026M18.406,17.514c1.139.683,2.177,1.335,3.249,1.924a1.046,1.046,0,0,0,.864,0c1.071-.59,2.108-1.242,3.206-1.9l-.93-1.2,1.6-1.9c.622.811,1.118,1.529,1.688,2.183.9,1.03.858,1.546-.324,2.289s-2.4,1.467-3.72,2.269l3.1,2.433L30.5,15.192c-4.318-.784-8.322-2.635-12.669-.948a30.769,30.769,0,0,1-4.157.991l3.382,8.387,3.068-2.454c-.723-.446-1.328-.843-1.955-1.2-3.485-1.994-3.75-1.958-.266-5.042.03-.026.089-.018-.047.006l1.611,1.365-1.062,1.219m24.25-2.3-3.46-.764-1.55,3.263,3.627,1.166,1.384-3.665M2.277,6.054c1.39-.816,1.413-2.193,0-3.245Zm61.637.129V2.7c-1.312,1.369-1.305,2.21,0,3.479" transform="translate(0 0)" fill="url(#linear-gradient)"/>
        <rect id="Rectángulo_403382" data-name="Rectángulo 403382" width="2.041" height="2.098" transform="translate(38.741 55.298)" fill="url(#linear-gradient)"/>
        <rect id="Rectángulo_403383" data-name="Rectángulo 403383" width="2.098" height="2" transform="translate(16.587 31.06)" fill="url(#linear-gradient)"/>
        <rect id="Rectángulo_403384" data-name="Rectángulo 403384" width="2.026" height="2.098" transform="translate(16.669 42.042)" fill="url(#linear-gradient)"/>
        <rect id="Rectángulo_403385" data-name="Rectángulo 403385" width="2.058" height="2.082" transform="translate(16.628 53.089)" fill="url(#linear-gradient)"/>
        <rect id="Rectángulo_403386" data-name="Rectángulo 403386" width="2.098" height="2.026" transform="translate(3.384 55.35)" fill="url(#linear-gradient)"/>
      </g>
    </g>
  </g>
</svg>
