<svg xmlns="http://www.w3.org/2000/svg" xmlns:xlink="http://www.w3.org/1999/xlink" width="125" height="125" viewBox="0 0 125 125">
  <defs>
    <linearGradient id="linear-gradient" x1="0.5" x2="0.5" y2="1" gradientUnits="objectBoundingBox">
      <stop offset="0" stop-color="#d898b0"/>
      <stop offset="1" stop-color="#f8c2dd"/>
    </linearGradient>
    <clipPath id="clip-path">
      <rect id="Rectángulo_403392" data-name="Rectángulo 403392" width="94.954" height="46.048" fill="url(#linear-gradient)"/>
    </clipPath>
  </defs>
  <g id="Grupo_1103054" data-name="Grupo 1103054" transform="translate(-1159 -2995.731)">
    <circle id="Elipse_11555" data-name="Elipse 11555" cx="62.5" cy="62.5" r="62.5" transform="translate(1159 2995.731)" fill="#efc6ca"/>
    <circle id="Elipse_11550" data-name="Elipse 11550" cx="60" cy="60" r="60" transform="translate(1160 2998.731)" fill="#fff"/>
    <path id="Trazado_924878" data-name="Trazado 924878" d="M-8377-6842.439s16-32.561,52.5-30.061" transform="translate(9548 9881.731)" fill="none" stroke="#efc6ca" stroke-width="2" stroke-dasharray="6 6"/>
    <path id="Trazado_924879" data-name="Trazado 924879" d="M-8377-6842.439s16-32.561,52.5-30.061" transform="translate(-6080.41 -4856.111) rotate(-172)" fill="none" stroke="#efc6ca" stroke-width="2" stroke-dasharray="6 6"/>
    <g id="Grupo_1103009" data-name="Grupo 1103009" transform="translate(1174.023 3039.292)">
      <g id="Grupo_1103008" data-name="Grupo 1103008" clip-path="url(#clip-path)">
        <path id="Trazado_925322" data-name="Trazado 925322" d="M63.069,38.586a15.4,15.4,0,0,0,1.24,1.469,3.381,3.381,0,0,1,.459,4.9,3.432,3.432,0,0,1-4.782.239c-1.442-1.319-1.387-3.322-.065-4.933a3.866,3.866,0,0,0,.8-2.327c0-.307-1.07-.765-1.7-.885a60.528,60.528,0,0,0-25.744.592,12.9,12.9,0,0,0,1.486,2.4c1.5,1.492,1.744,3.447.45,4.91a3.433,3.433,0,0,1-4.782.245c-1.489-1.36-1.425-3.417.095-5.049A9.531,9.531,0,0,0,31.5,38.6l-.516-.627c-3.476,1.45-6.99,2.816-10.416,4.374-3.186,1.447-4.556,1.129-6.3-1.886q-6.652-11.5-13.284-23c-1.7-2.95-1.233-4.731,1.768-6.237q44.689-22.415,89.408-.03c3.038,1.523,3.525,3.285,1.839,6.214Q87.32,29,80.616,40.579c-1.633,2.821-3.076,3.176-6,1.867-3.626-1.62-7.325-3.077-10.993-4.6l-.55.743M33.526,35.1a65.245,65.245,0,0,1,27.415-.168c-1.419-4.728-2.588-8.947-3.992-13.085a8.018,8.018,0,0,0-2.277-3.092c-2.381-2.159-4.941-4.122-7.325-6.279-.407-.368-.3-1.307-.428-1.982.636.072,1.466-.09,1.88.251Q57.77,18.135,66.609,25.68c.43.368.381,1.3.555,1.963-.689-.061-1.549.119-2.037-.227-1.537-1.088-2.935-2.374-4.522-3.7.757,3.619,1.546,6.988,2.124,10.392.191,1.124.683,1.443,1.647,1.8,3.75,1.369,7.5,2.753,11.147,4.376,1.577.7,2.3.468,3.123-.976q6.516-11.462,13.191-22.834c.976-1.659.684-2.465-1.013-3.343A93.755,93.755,0,0,0,3.8,13.306c-1.508.787-1.6,1.641-.782,2.974C4.349,18.462,5.6,20.7,6.875,22.913c3.181,5.511,6.326,11.043,9.583,16.509.363.608,1.547,1.355,2.016,1.173,4.137-1.6,8.2-3.4,12.8-5.357-1.1-3.991-2.066-8.263-3.5-12.375A13.2,13.2,0,0,0,24.419,18.2c-2-1.977-4.334-3.617-6.408-5.527-.484-.445-.5-1.4-.733-2.118.739.112,1.689-.032,2.185.376q8.829,7.248,17.51,14.675c.453.387.466,1.29.683,1.953-.733-.056-1.642.143-2.166-.217-1.514-1.04-2.874-2.3-4.5-3.651L33.526,35.1" transform="translate(0 0)" fill="url(#linear-gradient)"/>
        <path id="Trazado_925323" data-name="Trazado 925323" d="M180.833,26c-.678.162-1.431.595-2.018.43-1.311-.368-2.5-1.16-3.807-1.556-5.751-1.741-11.525-3.4-17.291-5.091-.251-.073-.577-.034-.755-.182-.494-.41-.929-.893-1.387-1.346.606-.316,1.27-.98,1.808-.889a54.739,54.739,0,0,1,7.858,1.707c4.722,1.534,9.364,3.315,14.019,5.048a7.379,7.379,0,0,1,1.616,1.178q-.021.351-.042.7" transform="translate(-94.267 -10.519)" fill="url(#linear-gradient)"/>
        <path id="Trazado_925324" data-name="Trazado 925324" d="M193.352,40.246c-1.082.293-1.809.757-2.328.586q-5.393-1.773-10.695-3.815c-.417-.16-.584-.975-.867-1.485.533-.242,1.175-.809,1.582-.674,3.653,1.214,7.273,2.531,10.879,3.88.409.153.675.692,1.429,1.507" transform="translate(-108.742 -21.109)" fill="url(#linear-gradient)"/>
      </g>
    </g>
  </g>
</svg>
