<svg xmlns="http://www.w3.org/2000/svg" xmlns:xlink="http://www.w3.org/1999/xlink" width="125" height="125" viewBox="0 0 125 125">
  <defs>
    <linearGradient id="linear-gradient" x1="0.5" x2="0.5" y2="1" gradientUnits="objectBoundingBox">
      <stop offset="0" stop-color="#81c7c5"/>
      <stop offset="1" stop-color="#c2f8f6"/>
    </linearGradient>
    <clipPath id="clip-path">
      <rect id="Rectángulo_403390" data-name="Rectángulo 403390" width="59.87" height="73.35" fill="url(#linear-gradient)"/>
    </clipPath>
  </defs>
  <g id="Grupo_1103055" data-name="Grupo 1103055" transform="translate(-318 -3330.462)">
    <circle id="Elipse_11555" data-name="Elipse 11555" cx="62.5" cy="62.5" r="62.5" transform="translate(318 3330.462)" fill="#c0e6e5"/>
    <circle id="Elipse_11550" data-name="Elipse 11550" cx="60" cy="60" r="60" transform="translate(319 3333.462)" fill="#fff"/>
    <path id="Trazado_924878" data-name="Trazado 924878" d="M-8377-6842.439s16-32.561,52.5-30.061" transform="translate(8707 10216.462)" fill="none" stroke="#4bb1a3" stroke-width="2" stroke-dasharray="6 6"/>
    <path id="Trazado_924879" data-name="Trazado 924879" d="M-8377-6842.439s16-32.561,52.5-30.061" transform="translate(-6921.41 -4521.381) rotate(-172)" fill="none" stroke="#4bb1a3" stroke-width="2" stroke-dasharray="6 6"/>
    <g id="Grupo_1103005" data-name="Grupo 1103005" transform="translate(349.065 3356.287)">
      <g id="Grupo_1103004" data-name="Grupo 1103004" clip-path="url(#clip-path)">
        <path id="Trazado_925314" data-name="Trazado 925314" d="M88.123,99.288h17.283c3.494,0,4.389,1.259,3.331,4.687a3.57,3.57,0,0,1-3.377,2.632c-5.4.042-10.792.057-16.187-.007a3.565,3.565,0,0,1-3.493-3.709c-.043-2.6.042-5.194-.053-7.787a2.509,2.509,0,0,0-.887-1.67,9.691,9.691,0,0,1-3.5-4.876c-1.713-5.534-3.394-11.077-5.113-16.609a4.113,4.113,0,0,1,.884-4.255,3.881,3.881,0,0,1,5.929-.077A34.628,34.628,0,0,1,85.55,71.19c.046-.434.114-.784.114-1.134q.011-6.49.005-12.981c0-4.214,1.913-5.887,5.971-5.229,1.2-2.972,2.809-4.2,5.06-3.849,2.208.34,3.417,1.958,3.761,5.133,1.573-.459,3.247-.547,4.356.74A21.592,21.592,0,0,1,107,57.8a10.809,10.809,0,0,1,2.065.022,4.24,4.24,0,0,1,3.49,4.378c.019,7.279.038,14.559-.021,21.838a13.9,13.9,0,0,1-2.624,8.154,4.163,4.163,0,0,0-1.025,3.054c.1.859-.229,1.572-1.213,1.571s-1.2-.708-1.238-1.573a5.353,5.353,0,0,1,1.12-3.945,11.781,11.781,0,0,0,2.54-7.527c.039-7.075.022-14.151.014-21.227,0-1.506-.666-2.328-1.81-2.338s-1.824.811-1.837,2.312c-.018,2.138,0,4.276-.009,6.414-.005.943.229,2.166-1.19,2.2S104,69.964,104,69q-.007-5.8,0-11.606c0-1.185-.52-2.024-1.757-2.058-1.322-.036-1.884.811-1.894,2.071,0,.306,0,.611,0,.916V68.407c0,.254,0,.509,0,.763.016.95.041,2-1.276,1.973-1.2-.026-1.184-1.017-1.182-1.918q.01-7.941,0-15.882a9.494,9.494,0,0,0-.024-1.22,1.81,1.81,0,0,0-3.613.027,10.835,10.835,0,0,0-.019,1.221q0,7.941,0,15.882c0,.921-.031,1.87-1.228,1.874s-1.237-.943-1.234-1.866q.018-6.338,0-12.675c0-1.659-.609-2.473-1.807-2.488s-1.842.818-1.844,2.448c-.007,6.21.024,12.421-.042,18.631a6.26,6.26,0,0,1-.842,2.061c-.612-.417-1.416-.7-1.8-1.274-1.222-1.81-2.261-3.742-3.425-5.593-.592-.941-1.226-2.05-2.635-1.393-1.347.629-1.085,1.744-.73,2.886q2.353,7.57,4.653,15.156a7.848,7.848,0,0,0,3.908,5.023,2.354,2.354,0,0,1,.869,1.719c.114,1.767.041,3.547.041,5.526m.069,2.513c-.108,2.121.11,2.37,2.044,2.373q7.026.009,14.051,0c2.027,0,2.293-.317,2-2.373Z" transform="translate(-52.702 -33.293)" fill="url(#linear-gradient)"/>
        <path id="Trazado_925315" data-name="Trazado 925315" d="M37.886,3.952c1.043-2.9,2.59-4.14,4.808-3.929,2.31.22,3.5,1.726,4.016,5.1,3.851-.663,5.439.608,6.112,4.891,3.592-.626,6.132,1.176,5.919,4.306a1.986,1.986,0,0,1-1.081,1.486c-.908.221-1.329-.507-1.323-1.41.008-1.25-.515-2.083-1.843-2.14-1.154-.05-1.8.8-1.81,2.317q-.023,4.047,0,8.094c0,.889-.122,1.728-1.212,1.745s-1.254-.8-1.251-1.7q.017-6.414,0-12.829c0-1.676-.59-2.488-1.78-2.52-1.237-.033-1.869.824-1.872,2.578q-.01,5.8,0,11.607c0,.306,0,.611,0,.916.01.945.053,2-1.281,1.963-1.221-.031-1.176-1.025-1.175-1.917q.005-8.552,0-17.105c0-.458.162-1.055-.063-1.345-.478-.614-1.161-1.473-1.761-1.473s-1.285.857-1.764,1.47c-.226.289-.065.887-.065,1.344q0,8.247,0,16.494c0,.357.125.784-.029,1.054a11.725,11.725,0,0,1-1.164,1.486,11.07,11.07,0,0,1-1.23-1.425c-.16-.258-.031-.7-.031-1.052,0-4.48-.013-8.96.008-13.439.006-1.272-.343-2.247-1.772-2.371-1.2-.1-1.883.788-1.889,2.389q-.018,4.582,0,9.164c0,.935-.087,1.851-1.285,1.821-1.092-.027-1.182-.9-1.178-1.774.013-3.055,0-6.109.006-9.164.009-3.679,2.272-5.46,5.99-4.634" transform="translate(-22.147 0)" fill="url(#linear-gradient)"/>
        <path id="Trazado_925316" data-name="Trazado 925316" d="M12.269,95.438c-.1,2.2.108,2.431,2.068,2.434q5.346.009,10.692,0c.876,0,1.75.075,1.788,1.163.042,1.193-.867,1.3-1.808,1.3-3.768-.012-7.535.017-11.3-.013A3.693,3.693,0,0,1,9.752,96.28c-.019-2.546.036-5.093-.04-7.636a2.07,2.07,0,0,0-.765-1.429,9.508,9.508,0,0,1-3.682-5.1Q2.755,74.031.291,65.935c-.758-2.488-.019-4.447,2-5.449,2.085-1.033,4-.5,5.511,1.739,1.334,1.98,2.548,4.047,3.728,6.124a3.231,3.231,0,0,0,2.287,1.71,8.576,8.576,0,0,1,6.8,6.841,2.455,2.455,0,0,1,.091,1.347c-.2.488-.739,1.244-1.027,1.2a1.869,1.869,0,0,1-1.321-1.072c-.97-4.2-2.231-5.394-6.571-6.2a2.6,2.6,0,0,1-1.453-1.142C8.97,68.89,7.7,66.683,6.383,64.508c-.289-.476-.546-1.088-.986-1.327-.587-.318-1.563-.665-1.963-.4a2.32,2.32,0,0,0-.88,1.97c1.7,5.8,3.406,11.611,5.413,17.311.486,1.379,2.109,2.341,3.145,3.551a3.681,3.681,0,0,1,1.039,1.788c.141,1.768.049,3.555.049,5.575h3.037c2.546,0,5.092.006,7.637,0,.89,0,1.648.359,1.454,1.283a1.923,1.923,0,0,1-1.441,1.124c-3.5.1-7.011.052-10.618.052" transform="translate(0 -41.656)" fill="url(#linear-gradient)"/>
        <path id="Trazado_925317" data-name="Trazado 925317" d="M129.018,144c1.781,0,3.563-.028,5.343.006a3.673,3.673,0,0,1,3.854,3.829,24.08,24.08,0,0,1-.02,2.594,3.55,3.55,0,0,1-3.4,3.289,1.943,1.943,0,0,1-1.369-1.033c-.115-.268.46-1.085.9-1.286,1.415-.655,1.8-1.51,1.439-3.737-.225-1.394-1.284-1.206-2.238-1.208-3.1-.006-6.209.034-9.312-.019-1.383-.024-1.994.533-1.877,1.9.017.2,0,.407,0,.61,0,2.237.13,2.37,2.3,2.374,1.527,0,3.053.013,4.58,0,.852-.009,1.6.192,1.628,1.175.032,1.081-.751,1.3-1.666,1.292-1.832-.015-3.665.027-5.5-.015a3.662,3.662,0,0,1-3.8-3.735c-.029-.762-.028-1.527,0-2.29a3.661,3.661,0,0,1,3.788-3.74c1.78-.039,3.562-.008,5.343-.008" transform="translate(-83.245 -99.995)" fill="url(#linear-gradient)"/>
      </g>
    </g>
  </g>
</svg>
