<svg xmlns="http://www.w3.org/2000/svg" xmlns:xlink="http://www.w3.org/1999/xlink" width="125" height="125" viewBox="0 0 125 125">
  <defs>
    <linearGradient id="linear-gradient" x1="0.5" x2="0.5" y2="1" gradientUnits="objectBoundingBox">
      <stop offset="0" stop-color="#d898b0"/>
      <stop offset="1" stop-color="#f8c2dd"/>
    </linearGradient>
    <clipPath id="clip-path">
      <rect id="Rectángulo_403535" data-name="Rectángulo 403535" width="75.6" height="53.685" fill="url(#linear-gradient)"/>
    </clipPath>
  </defs>
  <g id="Grupo_1103249" data-name="Grupo 1103249" transform="translate(-740 -1389.08)">
    <circle id="Elipse_11555" data-name="Elipse 11555" cx="62.5" cy="62.5" r="62.5" transform="translate(740 1389.08)" fill="#efc6ca"/>
    <circle id="Elipse_11550" data-name="Elipse 11550" cx="60" cy="60" r="60" transform="translate(741 1392.08)" fill="#fff"/>
    <path id="Trazado_924878" data-name="Trazado 924878" d="M-8377-6842.439s16-32.561,52.5-30.061" transform="translate(9129 8275.08)" fill="none" stroke="#efc6ca" stroke-width="2" stroke-dasharray="6 6"/>
    <g id="Grupo_1103173" data-name="Grupo 1103173" transform="translate(764.7 1425.237)">
      <g id="Grupo_1103172" data-name="Grupo 1103172" transform="translate(0 0)" clip-path="url(#clip-path)">
        <path id="Trazado_925437" data-name="Trazado 925437" d="M35.992,0c9.714.252,17.485.907,24.8,4.111A15.97,15.97,0,0,1,67.2,8.7a7.451,7.451,0,0,1,1.535,2.654c1.2,5.075,3.946,9.506,5.809,14.3a13.456,13.456,0,0,1,1.016,3.507,7.539,7.539,0,0,1-2.731,6.553Q63.181,44.3,53.5,52.857c-1.449,1.28-2.348,1.088-3.222-.643-1.617-3.2-3.262-6.391-4.781-9.64A2.233,2.233,0,0,0,43.08,41.03c-3.49.1-6.988.095-10.479,0a2.23,2.23,0,0,0-2.462,1.474c-1.508,3.253-3.163,6.439-4.776,9.643-.91,1.808-1.8,1.994-3.313.656q-9.566-8.457-19.1-16.949C-.091,33.14-.77,29.879.862,26.114c1.407-3.245,2.911-6.449,4.3-9.7A34.056,34.056,0,0,0,6.55,12.247a10.956,10.956,0,0,1,4.633-6.093A31.455,31.455,0,0,1,24.5,1.268C28.911.576,33.383.277,35.992,0m.5,3.2c-1.948.155-5.248.285-8.509.709-4.939.643-9.837,1.645-14.1,4.393a19.188,19.188,0,0,0-3.814,3.781c-.7.817-.472,1.57.513,2.3,5.822,4.285,11.582,8.656,17.369,12.988,1.887,1.412,3.617,3.349,5.744,4.038,2.185.708,4.769.184,7.178.2a.461.461,0,0,0,.147,0,6.03,6.03,0,0,0,1.731-.6c7.5-5.578,14.955-11.208,22.458-16.777a1.277,1.277,0,0,0,.437-1.971A8.254,8.254,0,0,0,63.9,9.929a26.649,26.649,0,0,0-5.112-3.146C52.107,3.927,45,3.363,36.494,3.2M31.082,33.659,8.512,16.739C6.91,20.311,5.378,23.7,3.867,27.106c-1.249,2.814-.833,4.61,1.506,6.686Q11.888,39.57,18.4,45.347c1.535,1.36,3.079,2.711,4.739,4.171l7.938-15.859m13.464-.007q3.954,7.9,7.866,15.72a2.136,2.136,0,0,0,.446-.181c6-5.316,12.021-10.618,18-15.964A4.584,4.584,0,0,0,72.012,27.7c-.981-2.305-2.035-4.58-3.061-6.865-.6-1.326-1.2-2.649-1.857-4.094L44.546,33.651M42.865,37.8c-.823-2.914-.939-3.005-3.746-3.005h-2.8c-2.6,0-2.832.2-3.56,3.005Z" transform="translate(0 0)" fill="url(#linear-gradient)"/>
      </g>
    </g>
  </g>
</svg>
