<svg xmlns="http://www.w3.org/2000/svg" xmlns:xlink="http://www.w3.org/1999/xlink" width="74.383" height="74.412" viewBox="0 0 74.383 74.412">
  <defs>
    <clipPath id="clip-path">
      <rect id="Rectángulo_403532" data-name="Rectángulo 403532" width="74.383" height="74.412" fill="#12263f"/>
    </clipPath>
  </defs>
  <g id="Grupo_1103166" data-name="Grupo 1103166" clip-path="url(#clip-path)">
    <path id="Trazado_925430" data-name="Trazado 925430" d="M39.551,68.267H34.714c0,1.485-.028,2.915.009,4.343.032,1.223-.466,1.8-1.732,1.8q-15.64-.024-31.281,0c-1.154,0-1.748-.476-1.708-1.66.011-.309,0-.62,0-.929Q0,37.2,0,2.58C0,.1.092.011,2.5.011q14.944,0,29.888,0c2.151,0,2.324.172,2.33,2.269,0,1.235,0,2.469,0,3.816h4.948c0-1.434.029-2.864-.009-4.291C39.621.581,40.116,0,41.384,0q15.64.024,31.281,0c1.686,0,1.719,1.048,1.718,2.281q-.018,25.172-.008,50.343,0,9.759,0,19.518c0,2.052-.2,2.26-2.183,2.26q-15.176.006-30.352,0c-1.935,0-2.162-.228-2.175-2.113-.008-1.187-.007-2.375-.016-3.562a3.194,3.194,0,0,0-.1-.46M2.6,71.839h15.91V2.569H2.6ZM71.785,2.62H55.912V71.876H71.785ZM24.844,65.685h7.38c0-2.166.042-4.219-.04-6.267a1.587,1.587,0,0,0-.857-1.033c-1.487-.71-3.027-1.308-4.537-1.971-1.719-.754-2.421-1.875-2.116-3.319.314-1.488,1.373-2.236,3.225-2.253,1.421-.013,2.842,0,4.243,0V43.968l-5.32-2.414c-.047-.021-.1-.033-.145-.054-1.591-.729-2.289-1.855-2.013-3.246.3-1.494,1.366-2.269,3.2-2.288,1.424-.015,2.848,0,4.363,0,0-2.213.042-4.222-.037-6.225a1.555,1.555,0,0,0-.795-1.076c-1.581-.752-3.222-1.376-4.822-2.092a2.811,2.811,0,0,1,1.1-5.478c1.479-.026,2.959-.005,4.556-.005,0-2.081-.054-3.983.024-5.88a1.4,1.4,0,0,0-1.091-1.568c-1.585-.614-3.146-1.295-4.692-2a2.732,2.732,0,0,1-1.783-3.215,2.769,2.769,0,0,1,2.949-2.2c1.483-.028,2.967-.006,4.492-.006V2.623H21.166V71.808H32.151v-3.62H24.844Zm28.339,6.157V2.579H42.254v3.7h7.252V8.73H42.153c0,2.175-.042,4.183.037,6.186a1.56,1.56,0,0,0,.8,1.076c1.532.734,3.124,1.344,4.678,2.033,1.618.717,2.312,1.835,2.057,3.22-.277,1.5-1.354,2.3-3.167,2.326-1.428.017-2.856,0-4.4,0,0,2.078.055,3.98-.024,5.877a1.4,1.4,0,0,0,1.1,1.566c1.584.617,3.146,1.295,4.69,2.006a2.733,2.733,0,0,1,1.777,3.218,2.769,2.769,0,0,1-2.95,2.2c-1.482.029-2.965.006-4.586.006,0,2.208-.043,4.261.041,6.309.015.361.493.842.874,1.024,1.487.709,3.028,1.306,4.536,1.972,1.718.76,2.408,1.882,2.094,3.331-.321,1.484-1.376,2.222-3.236,2.239-1.42.013-2.841,0-4.311,0,0,2.152-.069,4.064.046,5.965a2.042,2.042,0,0,0,.991,1.4c1.465.748,3.025,1.31,4.53,1.982,1.6.714,2.274,1.859,1.987,3.256-.306,1.491-1.368,2.251-3.212,2.269-1.422.014-2.845,0-4.265,0v3.637ZM34.789,44.98v5.767h4.871a29.838,29.838,0,0,0-.034-2.991,1.465,1.465,0,0,0-.717-.982c-1.285-.627-2.62-1.153-4.121-1.8m-.072-21.336c0,1.1-.036,2.066.021,3.032a1.145,1.145,0,0,0,.459.851c1.421.658,2.878,1.238,4.382,1.87V23.644Zm4.858,35.509V53.43H34.819c-.333,3.569-.333,3.57,2.787,4.9.606.258,1.216.508,1.969.823M34.716,8.772c0,1.08-.05,2.051.028,3.013a1.283,1.283,0,0,0,.586.914c1.373.651,2.787,1.212,4.254,1.834V8.772Zm.073,6.455v5.767h4.871A29.838,29.838,0,0,0,39.627,18a1.465,1.465,0,0,0-.717-.982c-1.285-.627-2.62-1.153-4.121-1.8M39.66,65.644c0-1.089.036-2.061-.021-3.028a1.149,1.149,0,0,0-.456-.855c-1.422-.661-2.881-1.245-4.388-1.879v5.762Zm0-29.752c0-1.1.047-2.033-.025-2.952a1.313,1.313,0,0,0-.528-.957c-1.376-.66-2.8-1.225-4.286-1.858v5.767Zm-4.945,2.623c0,1.061-.044,1.983.022,2.9a1.343,1.343,0,0,0,.476.99c1.409.669,2.866,1.238,4.36,1.865V38.515ZM27.315,8.8l-.123.418,4.928,2.149V8.8ZM47.054,20.993l.141-.421L42.25,18.413v2.58Zm-14.9,2.734h-4.9l-.08.353,4.976,2.173ZM47.067,50.733l.113-.429-4.918-2.129v2.557Zm-14.9,5.277V53.516h-4.9l-.058.35,4.957,2.144M32.16,38.578H27.291l-.109.378,4.978,2.162ZM47.071,65.6l.1-.434L42.2,63.031V65.6Zm-4.852-29.8h4.9l.082-.353-4.98-2.178Z" transform="translate(0 0)" fill="#12263f"/>
    <rect id="Rectángulo_403518" data-name="Rectángulo 403518" width="2.295" height="2.323" transform="translate(13.746 6.306)" fill="#12263f"/>
    <rect id="Rectángulo_403519" data-name="Rectángulo 403519" width="2.3" height="2.31" transform="translate(13.752 16.23)" fill="#12263f"/>
    <rect id="Rectángulo_403520" data-name="Rectángulo 403520" width="2.355" height="2.275" transform="translate(13.715 26.165)" fill="#12263f"/>
    <rect id="Rectángulo_403521" data-name="Rectángulo 403521" width="2.274" height="2.356" transform="translate(13.729 45.96)" fill="#12263f"/>
    <rect id="Rectángulo_403522" data-name="Rectángulo 403522" width="2.31" height="2.338" transform="translate(13.711 55.86)" fill="#12263f"/>
    <rect id="Rectángulo_403523" data-name="Rectángulo 403523" width="2.245" height="2.356" transform="translate(13.754 36.067)" fill="#12263f"/>
    <rect id="Rectángulo_403524" data-name="Rectángulo 403524" width="2.338" height="2.311" transform="translate(13.697 65.819)" fill="#12263f"/>
    <rect id="Rectángulo_403525" data-name="Rectángulo 403525" width="2.355" height="2.275" transform="translate(58.307 6.303)" fill="#12263f"/>
    <rect id="Rectángulo_403526" data-name="Rectángulo 403526" width="2.355" height="2.292" transform="translate(58.324 16.239)" fill="#12263f"/>
    <rect id="Rectángulo_403527" data-name="Rectángulo 403527" width="2.274" height="2.356" transform="translate(58.347 26.125)" fill="#12263f"/>
    <rect id="Rectángulo_403528" data-name="Rectángulo 403528" width="2.317" height="2.291" transform="translate(58.325 36.075)" fill="#12263f"/>
    <rect id="Rectángulo_403529" data-name="Rectángulo 403529" width="2.245" height="2.356" transform="translate(58.378 45.909)" fill="#12263f"/>
    <rect id="Rectángulo_403530" data-name="Rectángulo 403530" width="2.355" height="2.292" transform="translate(58.324 55.91)" fill="#12263f"/>
    <rect id="Rectángulo_403531" data-name="Rectángulo 403531" width="2.338" height="2.311" transform="translate(58.315 65.819)" fill="#12263f"/>
  </g>
</svg>
