<svg xmlns="http://www.w3.org/2000/svg" xmlns:xlink="http://www.w3.org/1999/xlink" width="125" height="125" viewBox="0 0 125 125">
  <defs>
    <linearGradient id="linear-gradient" x1="0.5" x2="0.5" y2="1" gradientUnits="objectBoundingBox">
      <stop offset="0" stop-color="#81c7c5"/>
      <stop offset="1" stop-color="#c2f8f6"/>
    </linearGradient>
    <clipPath id="clip-path">
      <rect id="Rectángulo_403533" data-name="Rectángulo 403533" width="64.199" height="57.312" fill="url(#linear-gradient)"/>
    </clipPath>
  </defs>
  <g id="Grupo_1103253" data-name="Grupo 1103253" transform="translate(-318 -1098.35)">
    <g id="Grupo_1103245" data-name="Grupo 1103245">
      <circle id="Elipse_11555" data-name="Elipse 11555" cx="62.5" cy="62.5" r="62.5" transform="translate(318 1098.35)" fill="#c0e6e5"/>
      <circle id="Elipse_11550" data-name="Elipse 11550" cx="60" cy="60" r="60" transform="translate(319 1101.35)" fill="#fff"/>
      <path id="Trazado_925440" data-name="Trazado 925440" d="M-8377-6842.439s16-32.561,52.5-30.061" transform="translate(8707 7986.08)" fill="none" stroke="#4bb1a3" stroke-width="2" stroke-dasharray="6 6"/>
    </g>
    <g id="Grupo_1103169" data-name="Grupo 1103169" transform="translate(348.4 1131.306)">
      <g id="Grupo_1103168" data-name="Grupo 1103168" transform="translate(0 0)" clip-path="url(#clip-path)">
        <path id="Trazado_925431" data-name="Trazado 925431" d="M31.95,57.31q-13.624,0-27.247,0C1.4,57.308,0,55.9,0,52.6q0-16.348,0-32.7c0-3.4,1.109-5.053,4.269-6.375,2.818-1.178,5.659-2.3,8.447-3.551a3.766,3.766,0,0,0,1.351-1.434c1.427-2.184,2.662-4.508,4.241-6.571A5.774,5.774,0,0,1,23.067.014q9.034-.03,18.069,0a5.764,5.764,0,0,1,4.756,1.966c1.576,2.066,2.81,4.39,4.236,6.573a3.758,3.758,0,0,0,1.356,1.429c2.876,1.282,5.792,2.476,8.713,3.655a5.907,5.907,0,0,1,4,5.988q-.018,16.635-.008,33.27c0,2.912-1.5,4.409-4.421,4.412q-13.91.011-27.82,0M50.459,11.933c-.222,1.5-.36,2.777-.608,4.033a22.96,22.96,0,0,1-7.01,12.855,2.181,2.181,0,0,1-2.918.4c-2.167-1.206-4.449-2.205-6.639-3.374a2.271,2.271,0,0,0-2.4.025c-2.192,1.164-4.471,2.167-6.644,3.363a2.107,2.107,0,0,1-2.8-.348,22.9,22.9,0,0,1-7.1-12.958c-.25-1.278-.408-2.574-.626-3.982-3.276,1.372-6.367,2.633-9.43,3.96A3.5,3.5,0,0,0,2.195,19.5q.029,16.638.011,33.276c0,1.9.443,2.325,2.389,2.326q10.184.006,20.368,0h1.48V29.937H28.66V55h6.953V29.929H37.83V55.1c7.625,0,15.077.014,22.528-.014,1.182,0,1.634-.795,1.634-1.919q-.009-17-.005-33.993A3.259,3.259,0,0,0,60,15.956c-3.1-1.358-6.236-2.635-9.542-4.023M46.073,7.016a4.941,4.941,0,0,0-4.89-4.793c-6.072-.035-12.143-.054-18.214.006A4.691,4.691,0,0,0,18.909,9.32,36.931,36.931,0,0,0,30.956,22.166a1.853,1.853,0,0,0,2.318-.022A37.722,37.722,0,0,0,45.243,9.411a12.1,12.1,0,0,0,.83-2.4m-16.284,17A44.773,44.773,0,0,1,16.14,9.378a25.547,25.547,0,0,0,.15,5.04A20.7,20.7,0,0,0,22.168,26.56c.319.318.992.691,1.286.559,2.074-.929,4.092-1.983,6.334-3.1m4.737.056c1.9.946,3.691,1.73,5.367,2.711a1.667,1.667,0,0,0,2.43-.467c4.243-4.605,5.944-10.114,5.868-16.267a2.772,2.772,0,0,0-.283-.775c-4.827,7.562-5.031,7.787-13.382,14.8" transform="translate(0 0)" fill="url(#linear-gradient)"/>
        <path id="Trazado_925432" data-name="Trazado 925432" d="M51.5,46.388c-.64.427-1.245,1.125-1.929,1.214a1.591,1.591,0,1,1,.07-3.18c.681.123,1.253.845,1.873,1.3,0,.222-.01.444-.014.665" transform="translate(-17.514 -16.206)" fill="url(#linear-gradient)"/>
        <path id="Trazado_925433" data-name="Trazado 925433" d="M51.51,62.583c-.621.454-1.194,1.177-1.875,1.3a1.59,1.59,0,1,1-.067-3.179c.684.09,1.288.789,1.928,1.215l.013.666" transform="translate(-17.514 -22.153)" fill="url(#linear-gradient)"/>
        <path id="Trazado_925434" data-name="Trazado 925434" d="M51.509,78.857c-.622.453-1.2,1.175-1.877,1.295a1.59,1.59,0,1,1-.062-3.179c.686.092,1.29.792,1.93,1.221,0,.221.006.443.008.664" transform="translate(-17.514 -28.093)" fill="url(#linear-gradient)"/>
        <path id="Trazado_925435" data-name="Trazado 925435" d="M54.789,11.373H32.657L31.8,9.539a21.145,21.145,0,0,1,3.039-.473q8.883-.063,17.768,0a23.047,23.047,0,0,1,2.925.413l-.744,1.9" transform="translate(-11.608 -3.298)" fill="url(#linear-gradient)"/>
      </g>
    </g>
  </g>
</svg>
