<svg xmlns="http://www.w3.org/2000/svg" xmlns:xlink="http://www.w3.org/1999/xlink" width="125" height="125" viewBox="0 0 125 125">
  <defs>
    <linearGradient id="linear-gradient" x1="0.5" x2="0.5" y2="1" gradientUnits="objectBoundingBox">
      <stop offset="0" stop-color="#d898b0"/>
      <stop offset="1" stop-color="#f8c2dd"/>
    </linearGradient>
    <clipPath id="clip-path">
      <rect id="Rectángulo_403538" data-name="Rectángulo 403538" width="63.75" height="59.23" fill="url(#linear-gradient)"/>
    </clipPath>
  </defs>
  <g id="Grupo_1103247" data-name="Grupo 1103247" transform="translate(-1159 -1098.35)">
    <circle id="Elipse_11555" data-name="Elipse 11555" cx="62.5" cy="62.5" r="62.5" transform="translate(1159 1098.35)" fill="#efc6ca"/>
    <circle id="Elipse_11550" data-name="Elipse 11550" cx="60" cy="60" r="60" transform="translate(1160 1101.35)" fill="#fff"/>
    <path id="Trazado_925438" data-name="Trazado 925438" d="M-8377-6842.439s16-32.561,52.5-30.061" transform="translate(9548 7986.08)" fill="none" stroke="#efc6ca" stroke-width="2" stroke-dasharray="6 6"/>
    <g id="Grupo_1103179" data-name="Grupo 1103179" transform="translate(1191.625 1131.734)">
      <g id="Grupo_1103178" data-name="Grupo 1103178" clip-path="url(#clip-path)">
        <path id="Trazado_925464" data-name="Trazado 925464" d="M46.236,21.391c-4.2,0-8.1,0-12,0a2.644,2.644,0,0,1-1.1-.063,1.291,1.291,0,0,1-.694-.855c-.006-.292.364-.7.671-.86a2.53,2.53,0,0,1,1.1-.087q5.357-.007,10.714,0h1.6c-1.028-1.341-1.441-2.624-3.5-2.582a8.047,8.047,0,0,1-8.1-8.431,2.581,2.581,0,0,0-.962-2.247,11.214,11.214,0,0,1-1.307-1.333A2.93,2.93,0,0,1,32.829.87,2.9,2.9,0,0,1,36.881.781a10.069,10.069,0,0,1,1.044,1.261A9.019,9.019,0,0,1,44.809.384a8.389,8.389,0,0,1,6.511,10.64c-.429,1.465-.429,1.465.7,2.7a2.491,2.491,0,0,0,.9-2.878A8.259,8.259,0,0,1,59.335.4a8.376,8.376,0,0,1,9.978,7.341A8.23,8.23,0,0,1,61.1,16.948c-1.976-.051-2.334,1.286-3.41,2.507.648.029,1.074.064,1.5.065q8.782.006,17.565,0c1.973,0,2.282.325,2.542,2.24a8.585,8.585,0,0,0,5.933,7.323c2.4.887,2.779,1.481,2.343,3.98-.514,2.942-.992,5.893-1.614,8.812a3.071,3.071,0,0,1-1.258,1.8c-.812.494-1.535-.13-2.163-.746a12.094,12.094,0,0,0-12.711-3.195,11.964,11.964,0,0,0-8.785,9.847c-.132.7-.254,1.553-1.247,1.316-.956-.228-.731-1.08-.609-1.765a14.6,14.6,0,0,1,23.4-8.714c.449.362.881.746,1.5,1.271.293-1.54.567-2.934.822-4.33.306-1.673.594-3.349.893-5.024.113-.633.045-1.089-.708-1.336a10.654,10.654,0,0,1-7.719-9.158,3.247,3.247,0,0,0-.122-.406c-.316-.017-.642-.05-.968-.05-6.353,0-12.707.01-19.06-.018a1.817,1.817,0,0,0-1.647.817q-6.683,8.845-13.445,17.629a4.546,4.546,0,0,1-1.912,1.461,2.5,2.5,0,0,1-2.815-.827,2.7,2.7,0,0,1-.469-2.906c1.7-4.658,3.685-9.158,6.916-13,.791-.942,1.49-1.961,2.389-3.153m8.032-7.385c-.671.873-1.356,1.749-2.027,2.637-2.9,3.836-5.785,7.683-8.7,11.511-2.27,2.986-3.442,6.5-4.78,9.928-.135.346.18.868.285,1.309a14.175,14.175,0,0,0,1.376-.427c.167-.069.264-.309.39-.474q8.027-10.537,16.052-21.075c.241-.317.466-.646.664-.923l-3.264-2.485m6.617,1.141A6.506,6.506,0,1,0,54.416,8.5a6.514,6.514,0,0,0,6.469,6.645m-17.662,0a6.5,6.5,0,1,0-6.493-6.5,6.519,6.519,0,0,0,6.493,6.5M46.669,16.5l1.651,2.164a23.868,23.868,0,0,1,1.661-2.13c.927-.95.748-1.685-.214-2.358l-3.1,2.324M36.891,3.011a22.253,22.253,0,0,0-2.346-1c-.136-.042-.7.613-.641.739.414.856.943,1.656,1.523,2.622l1.465-2.362" transform="translate(-23.975 0)" fill="url(#linear-gradient)"/>
        <path id="Trazado_925465" data-name="Trazado 925465" d="M34.9,116.037a27.093,27.093,0,0,1,.042-3.218c.05-.409.563-.76.866-1.138.328.355.895.684.938,1.071a23.048,23.048,0,0,1,.065,3.607,1.675,1.675,0,0,1-1.891,1.706c-1.2.011-2.408,0-3.612,0q-14.385,0-28.77,0c-2.1,0-2.536-.443-2.537-2.562Q0,98.19,0,80.872c0-2.1.392-2.5,2.448-2.507.955,0,1.91-.007,2.864.008.643.01,1.275.237,1.11.972a1.517,1.517,0,0,1-1.105.845,30.555,30.555,0,0,1-3.327.04v35.807Z" transform="translate(0 -58.842)" fill="url(#linear-gradient)"/>
        <path id="Trazado_925466" data-name="Trazado 925466" d="M57.807,92.739c.656.1,1.912-.371,1.919.9.007,1.365-1.293.888-2.117.974a2.434,2.434,0,0,1-1.217-.047c-.378-.181-.637-.612-.949-.934a4.255,4.255,0,0,1,1.012-.866,4.019,4.019,0,0,1,1.353-.031" transform="translate(-41.631 -69.604)" fill="url(#linear-gradient)"/>
        <path id="Trazado_925467" data-name="Trazado 925467" d="M132.871,92.739c.663.1,1.9-.357,1.889.943-.01,1.278-1.236.868-2.035.938a2.478,2.478,0,0,1-1.218-.039,4.643,4.643,0,0,1-1.03-.981,4.473,4.473,0,0,1,1.045-.831,4.17,4.17,0,0,1,1.348-.03" transform="translate(-97.975 -69.606)" fill="url(#linear-gradient)"/>
        <path id="Trazado_925468" data-name="Trazado 925468" d="M16.243,117.525a3.971,3.971,0,0,1-.035,1.343c-.135.351-.559.8-.867.814a1.2,1.2,0,0,1-.881-.771,7.306,7.306,0,0,1-.024-2.449c.069-.39.609-.7.936-1.042a6.777,6.777,0,0,1,.862,1.132,2.433,2.433,0,0,1,.024.975h-.016" transform="translate(-10.771 -86.667)" fill="url(#linear-gradient)"/>
        <path id="Trazado_925469" data-name="Trazado 925469" d="M16.315,192.762a4.843,4.843,0,0,1-.038,1.464,1.176,1.176,0,0,1-.857.683,1.1,1.1,0,0,1-.839-.676,10.019,10.019,0,0,1-.034-2.7,1.366,1.366,0,0,1,.951-.839c.223-.042.673.488.817.843a3.457,3.457,0,0,1,.031,1.22h-.031" transform="translate(-10.866 -143.193)" fill="url(#linear-gradient)"/>
        <path id="Trazado_925470" data-name="Trazado 925470" d="M20.321,94.639a3.8,3.8,0,0,1-1.352-.037,1.384,1.384,0,0,1-.76-.92,1.1,1.1,0,0,1,.711-.822,10.76,10.76,0,0,1,2.726,0c.3.041.695.575.739.923.032.249-.4.694-.71.817a4.48,4.48,0,0,1-1.353.1c0-.021,0-.042,0-.063" transform="translate(-13.672 -69.661)" fill="url(#linear-gradient)"/>
        <path id="Trazado_925471" data-name="Trazado 925471" d="M170.353,92.784a3.731,3.731,0,0,1,1.353.038,1.384,1.384,0,0,1,.737.939c.029.25-.43.768-.714.8a10.874,10.874,0,0,1-2.723,0,1.182,1.182,0,0,1-.734-.911c.023-.311.491-.7.849-.845a3.475,3.475,0,0,1,1.232-.032v.012" transform="translate(-126.354 -69.63)" fill="url(#linear-gradient)"/>
        <path id="Trazado_925472" data-name="Trazado 925472" d="M16.265,155a3.93,3.93,0,0,1-.036,1.356c-.136.345-.58.784-.889.785a1.2,1.2,0,0,1-.866-.788,7.888,7.888,0,0,1-.012-2.475c.059-.363.577-.652.886-.975a4.6,4.6,0,0,1,.9.991,2.767,2.767,0,0,1,.03,1.107h-.008" transform="translate(-10.79 -114.816)" fill="url(#linear-gradient)"/>
        <path id="Trazado_925473" data-name="Trazado 925473" d="M128.47,190.351a21.3,21.3,0,0,1-.47,2.8.878.878,0,0,1-1.731-.232,9.951,9.951,0,0,1,.4-2.667,1.211,1.211,0,0,1,1.012-.59c.322.034.6.511.786.692" transform="translate(-94.815 -142.412)" fill="url(#linear-gradient)"/>
        <path id="Trazado_925474" data-name="Trazado 925474" d="M170.786,137.015c.321.336.717.572.8.889a1.032,1.032,0,0,1-.374.922,14.938,14.938,0,0,1-2.781.957c-.249.057-.748-.335-.886-.635a.988.988,0,0,1,.312-.927c.908-.454,1.877-.786,2.931-1.206" transform="translate(-125.785 -102.884)" fill="url(#linear-gradient)"/>
        <path id="Trazado_925475" data-name="Trazado 925475" d="M205.072,135.361a17.859,17.859,0,0,1,2.57.653c.31.13.706.778.612.985a1.4,1.4,0,0,1-1.045.711,5.908,5.908,0,0,1-2.156-.428c-.4-.16-.655-.664-.976-1.013l1-.908" transform="translate(-153.24 -101.642)" fill="url(#linear-gradient)"/>
        <path id="Trazado_925476" data-name="Trazado 925476" d="M206.526,100.42c.509.354.819.461.943.676a14.575,14.575,0,0,1,1.213,2.411,1.25,1.25,0,0,1-.473,1.074,1.078,1.078,0,0,1-1.035-.256,10.289,10.289,0,0,1-1.275-2.5c-.106-.332.361-.846.626-1.4" transform="translate(-154.598 -75.405)" fill="url(#linear-gradient)"/>
        <path id="Trazado_925477" data-name="Trazado 925477" d="M142.219,157.71a23.531,23.531,0,0,1-2.479,2.6c-.51.4-1.37-.516-1-1.147a10.4,10.4,0,0,1,1.912-2.375c.551-.507,1.382.008,1.568.925" transform="translate(-104.112 -117.579)" fill="url(#linear-gradient)"/>
        <path id="Trazado_925478" data-name="Trazado 925478" d="M233.584,135.072a13.117,13.117,0,0,1,.438-2.481c.147-.376.712-.589,1.089-.875.237.409.651.809.671,1.228a5.024,5.024,0,0,1-.344,2.046,1.537,1.537,0,0,1-1.025.9c-.307.009-.634-.611-.829-.819" transform="translate(-175.397 -98.904)" fill="url(#linear-gradient)"/>
        <path id="Trazado_925479" data-name="Trazado 925479" d="M68.077,217.517a4.153,4.153,0,0,1-1.352-.037,1.174,1.174,0,0,1-.676-.845,1.1,1.1,0,0,1,.669-.84,12.951,12.951,0,0,1,2.845,0,1.1,1.1,0,0,1,.675.842,1.16,1.16,0,0,1-.684.844,4.985,4.985,0,0,1-1.478.037" transform="translate(-49.597 -161.98)" fill="url(#linear-gradient)"/>
        <path id="Trazado_925480" data-name="Trazado 925480" d="M30.572,217.519a4.015,4.015,0,0,1-1.356-.035,1.434,1.434,0,0,1-.816-.883c-.045-.235.423-.793.7-.825a12.81,12.81,0,0,1,2.852,0,1.11,1.11,0,0,1,.678.852,1.2,1.2,0,0,1-.706.841,4.17,4.17,0,0,1-1.355.036v.011" transform="translate(-21.323 -161.967)" fill="url(#linear-gradient)"/>
        <path id="Trazado_925481" data-name="Trazado 925481" d="M105.532,217.443a3.441,3.441,0,0,1-1.231-.032c-.356-.147-.831-.549-.838-.849a1.2,1.2,0,0,1,.79-.874,9.3,9.3,0,0,1,2.6-.008c.328.045.593.548.887.842a4.032,4.032,0,0,1-.978.9,3.3,3.3,0,0,1-1.231.032v-.008" transform="translate(-77.689 -161.887)" fill="url(#linear-gradient)"/>
        <path id="Trazado_925482" data-name="Trazado 925482" d="M112.663,76.461c-.733.525-1.171,1.081-1.559,1.048s-1.052-.64-1.051-.994a1.478,1.478,0,0,1,.992-1.076c.388-.049.852.506,1.618,1.021" transform="translate(-82.638 -56.645)" fill="url(#linear-gradient)"/>
        <path id="Trazado_925483" data-name="Trazado 925483" d="M132.864,24.9a4.942,4.942,0,0,1-4.7-3.443,4.974,4.974,0,0,1,1.462-5.538c.514-.429,1.086-.95,1.724-.258s.1,1.163-.434,1.635a3.119,3.119,0,0,0-.87,3.825,3.2,3.2,0,0,0,3.331,1.9,3.269,3.269,0,0,0,2.763-2.521,3.166,3.166,0,0,0-1.756-3.628c-.635-.324-1.3-.637-.9-1.459.438-.894,1.179-.516,1.824-.2a5.123,5.123,0,0,1-2.447,9.685" transform="translate(-96.014 -11.154)" fill="url(#linear-gradient)"/>
        <path id="Trazado_925484" data-name="Trazado 925484" d="M62.017,24.228a5.065,5.065,0,0,1-5.1-5.154,5.121,5.121,0,1,1,10.24.166,5.072,5.072,0,0,1-5.144,4.988m.009-8.326a3.229,3.229,0,0,0-3.241,3.234,3.289,3.289,0,0,0,3.259,3.243,3.242,3.242,0,0,0,3.223-3.26A3.2,3.2,0,0,0,62.026,15.9" transform="translate(-42.741 -10.497)" fill="url(#linear-gradient)"/>
      </g>
    </g>
  </g>
</svg>
