<svg xmlns="http://www.w3.org/2000/svg" xmlns:xlink="http://www.w3.org/1999/xlink" width="125" height="125" viewBox="0 0 125 125">
  <defs>
    <linearGradient id="linear-gradient" x1="0.5" x2="0.5" y2="1" gradientUnits="objectBoundingBox">
      <stop offset="0" stop-color="#d898b0"/>
      <stop offset="1" stop-color="#f8c2dd"/>
    </linearGradient>
    <clipPath id="clip-path">
      <rect id="Rectángulo_403534" data-name="Rectángulo 403534" width="56.187" height="56.207" fill="url(#linear-gradient)"/>
    </clipPath>
  </defs>
  <g id="Grupo_1103250" data-name="Grupo 1103250" transform="translate(-1159 -1389.08)">
    <circle id="Elipse_11555" data-name="Elipse 11555" cx="62.5" cy="62.5" r="62.5" transform="translate(1159 1389.08)" fill="#efc6ca"/>
    <circle id="Elipse_11550" data-name="Elipse 11550" cx="60" cy="60" r="60" transform="translate(1160 1392.08)" fill="#fff"/>
    <path id="Trazado_924878" data-name="Trazado 924878" d="M-8377-6842.439s16-32.561,52.5-30.061" transform="translate(9548 8275.08)" fill="none" stroke="#efc6ca" stroke-width="2" stroke-dasharray="6 6"/>
    <g id="Grupo_1103171" data-name="Grupo 1103171" transform="translate(1192.453 1421.535)">
      <g id="Grupo_1103170" data-name="Grupo 1103170" clip-path="url(#clip-path)">
        <path id="Trazado_925436" data-name="Trazado 925436" d="M48.74,49.275c-2.3,1.549-4.317,3.138-6.541,4.341a13.05,13.05,0,0,1-8.8,1.509,8.682,8.682,0,0,1,1.5-17.184c4.414-.084,8.026,1.893,11.374,4.512.631.494,1.231,1.026,1.846,1.541,5.069-6.572,6.643-18.341,1.905-25.834-.259.185-.524.356-.77.552Q26.183,37.107,3.118,55.508c-.73.582-1.47,1-2.381.408A1.642,1.642,0,0,1,.51,53.34c2.24-2.89,4.479-5.782,6.761-8.638q15.1-18.9,30.222-37.774c.13-.163.238-.344.407-.589a22.606,22.606,0,0,0-8.29-2.807c-.975-.133-1.965-.179-2.95-.225-1.258-.06-2-.69-1.967-1.716.035-.98.774-1.6,1.972-1.584A26.958,26.958,0,0,1,39.068,3.2c.35.185.7.366,1.123.585A9.049,9.049,0,0,1,47.972.015a8.421,8.421,0,0,1,5.744,2.623c3.609,3.7,3.25,8.4-.978,13.161C58.219,26.44,56.88,36.586,50.68,46.533c1.023,1.3,2.149,2.683,3.214,4.109.7.936,1.344,1.916,1.953,2.913A1.629,1.629,0,0,1,55.4,55.95a1.658,1.658,0,0,1-2.346-.673c-1.483-2.074-2.975-4.142-4.311-6m1.925-36.281a5.36,5.36,0,1,0-6.71-8.346,20.009,20.009,0,0,0-2.166,2.326Q27.062,25.256,12.364,43.563a2.864,2.864,0,0,0-.258.489l.18.152L48.332,15.357l-2.456-2.663a9.841,9.841,0,0,1-.9.817,1.558,1.558,0,0,1-2.184-.157,1.451,1.451,0,0,1-.128-2.091c1.228-1.351,2.53-2.642,3.88-3.872a1.438,1.438,0,0,1,2.085.152,1.542,1.542,0,0,1,.2,2.1c-.168.263-.382.5-.569.733l2.405,2.621M46.1,46.668c-2.736-2.508-5.615-4.638-9.311-5.307-2.387-.432-4.543.022-6.024,2.135a5.1,5.1,0,0,0-.287,5.779,5.336,5.336,0,0,0,5.55,2.718A15.447,15.447,0,0,0,46.1,46.668" transform="translate(0 0)" fill="url(#linear-gradient)"/>
      </g>
    </g>
  </g>
</svg>
