<svg xmlns="http://www.w3.org/2000/svg" xmlns:xlink="http://www.w3.org/1999/xlink" width="125" height="125" viewBox="0 0 125 125">
  <defs>
    <linearGradient id="linear-gradient" x1="0.5" x2="0.5" y2="1" gradientUnits="objectBoundingBox">
      <stop offset="0" stop-color="#81c7c5"/>
      <stop offset="1" stop-color="#c2f8f6"/>
    </linearGradient>
    <clipPath id="clip-path">
      <rect id="Rectángulo_403567" data-name="Rectángulo 403567" width="66.14" height="67.823" fill="url(#linear-gradient)"/>
    </clipPath>
  </defs>
  <g id="Grupo_1103251" data-name="Grupo 1103251" transform="translate(-527 -1682.811)">
    <circle id="Elipse_11555" data-name="Elipse 11555" cx="62.5" cy="62.5" r="62.5" transform="translate(527 1682.811)" fill="#c0e6e5"/>
    <circle id="Elipse_11550" data-name="Elipse 11550" cx="60" cy="60" r="60" transform="translate(528 1685.811)" fill="#fff"/>
    <path id="Trazado_924878" data-name="Trazado 924878" d="M-8377-6842.439s16-32.561,52.5-30.061" transform="translate(8916 8568.811)" fill="none" stroke="#4bb1a3" stroke-width="2" stroke-dasharray="6 6"/>
    <g id="Grupo_1103233" data-name="Grupo 1103233" transform="translate(555.93 1707.783)">
      <g id="Grupo_1103232" data-name="Grupo 1103232" clip-path="url(#clip-path)">
        <path id="Trazado_925531" data-name="Trazado 925531" d="M10.563,65.545V61.562c-1.593-.341-1.971-1.482-1.953-3.026.054-4.45.019-8.9.019-13.352V43.419a10.686,10.686,0,0,0-1.427.3,7.758,7.758,0,0,0-5.024,7.014,11.9,11.9,0,0,1-.106,2.365,1.647,1.647,0,0,1-1.1.956C.755,54.1.16,53.435.108,53.042A10.373,10.373,0,0,1,7.8,41.267a1.723,1.723,0,0,0,.959-.841,1.936,1.936,0,0,1,1.93-1.255,6.477,6.477,0,0,1,3.7.7c1.377.884,2.507-.4,2.343-2.729-1.286,0-2.6,0-3.908,0-3.655-.012-6.1-2.248-6.158-5.964-.08-5.416-.168-10.849.134-16.251C7.281,6.227,15.3-.685,23.733.054a7.732,7.732,0,0,1,2.123.5c2.148.842,4.332,1.621,6.389,2.66a12.948,12.948,0,0,1,7.6,11.671c.194,5.5.106,11.015.035,16.522a5.649,5.649,0,0,1-5.832,5.733c-1.366.013-2.732,0-4.507,0,.3,1,.306,2.133.828,2.512a3.412,3.412,0,0,0,3.92-.233,4.973,4.973,0,0,1,2.7-1.258c8.07-.1,16.142-.073,24.213-.043A3.589,3.589,0,0,1,64.8,41.691a34.062,34.062,0,0,1-.027,4.489c-.044.5-.575,1.3-.978,1.365-.859.142-1.082-.64-1.083-1.421,0-1.41.029-2.821-.018-4.23-.04-1.205-.572-1.6-1.969-1.487,0,1.7-.011,3.413.005,5.125.007.764-.086,1.518-.991,1.544s-1.082-.717-1.088-1.482c-.011-1.41-.03-2.821,0-4.23.016-.744-.162-1.12-1-1.117-6.826.026-13.653.016-20.479.016a1.509,1.509,0,0,0-1.719,1.666q-.013,9.452.008,18.9a2.258,2.258,0,0,0,.109.447h8.561c.031-.487.084-.953.087-1.419.01-2.291-.024-4.584.018-6.874.032-1.743.785-2.472,2.479-2.482q3.735-.023,7.47,0c1.729.01,2.474.695,2.447,2.456-.018,1.117.359,1.48,1.411,1.408a27.5,27.5,0,0,1,3.347,0c.963.052,1.462-.226,1.328-1.32a3.978,3.978,0,0,1,.04-1.7c.153-.443.65-.761.994-1.135.35.365.947.694,1,1.1a14.059,14.059,0,0,1,.028,3.163,1.982,1.982,0,0,1-2.024,1.981c-.632.033-1.266.006-1.813.006-.564.948.4,2.621-1.255,2.617-1.592,0-.721-1.693-1.282-2.548-.213-.018-.463-.05-.713-.057-2.564-.072-2.87-.338-3.048-2.921-.047-.682-.29-.933-.933-.928q-3.284.025-6.568,0c-.69-.006-.864.327-.858.978.025,2.509.01,5.019.01,7.691.5.024.952.063,1.4.063q7.857.007,15.714,0c2.048,0,2.7.668,2.708,2.748,0,.573.037,1.15-.016,1.717A1.994,1.994,0,0,1,64.216,67.8a8.321,8.321,0,0,1-1.029.015H3.552C.893,67.814.07,66.983.068,64.3c0-1.983.008-3.966,0-5.949-.005-.8.037-1.636,1.041-1.614.975.022,1.045.873,1.046,1.659,0,1.983.034,3.966-.01,5.948-.02.925.217,1.373,1.219,1.346,2.188-.059,4.379-.021,6.568-.03a4.436,4.436,0,0,0,.634-.113m12.7-54.317c-1.5,0-3-.03-4.506.006a5.758,5.758,0,0,0-5.859,5.636,64.449,64.449,0,0,0,.164,8.966,9.972,9.972,0,0,0,9.361,9.088c5.409.295,9.924-2.723,10.823-7.865a50.234,50.234,0,0,0,.376-10.379,5.6,5.6,0,0,0-5.724-5.444c-1.543-.044-3.09-.008-4.634-.009M33.333,54.246c-2.835-.514-3.039-.792-3.769-5a23.8,23.8,0,0,1-14.972-.659v1.487c0,3.036.057,6.073-.045,9.106a2.7,2.7,0,0,1-.963,1.94,1.549,1.549,0,0,0-.9,1.632,13.6,13.6,0,0,1,0,1.847c-.047.782.243,1.091,1.034,1.087q7.78-.036,15.56,0c.79,0,1.013-.305,1.04-1.083.095-2.706.333-2.952,2.941-3.379.023-.369.065-.755.067-1.141.007-1.927,0-3.854,0-5.834M30.188,9.225a5.2,5.2,0,0,0-.009-1.005A7.649,7.649,0,0,0,23.5,2.195,13.955,13.955,0,0,0,9.2,12.851c-.272,1.107-.37,2.259-.569,3.519,2.076-.709,2.044-.725,2.854-2.466,1.231-2.647,3.238-4.48,6.113-4.626,4.143-.21,8.3-.054,12.591-.054M63.983,63.6H32.494v1.956H63.983ZM14.592,42.836a20.459,20.459,0,0,1-.017,2.259A1.338,1.338,0,0,0,15.65,46.7a20.8,20.8,0,0,0,13.147.472c.388-.112.948-.314,1.055-.615.586-1.641,1.864-2.192,3.41-2.414V42.3a12.194,12.194,0,0,0-2.152.353,21.347,21.347,0,0,1-9.856,1.372c-2.194-.268-4.361-.771-6.662-1.192m3.791-1.43c1.506.947,7.941.843,9.777-.129-.229-1.654-.443-3.2-.667-4.823a13.231,13.231,0,0,1-8.4.021c-.24,1.66-.466,3.225-.713,4.931m19.49-16.718a2.219,2.219,0,0,0-2.4,2.207A11.789,11.789,0,0,1,31.33,34.14c-.225.2-.41.446-.779.854,1.353,0,2.423.021,3.493,0a3.591,3.591,0,0,0,3.806-3.62c.111-2.192.024-4.4.024-6.682M8.725,24.656c0,2.34-.069,4.661.027,6.974a3.319,3.319,0,0,0,1.917,2.934c1.679.812,3.435.311,5.472.465-3.446-3.427-4.578-5.04-5.053-8.2-.236-1.572-1-2.012-2.363-2.176m29.066-8.387c.394-4.589-2.608-9.736-6.326-10.948.966,2.646.674,5.834,3.219,7.809a1.507,1.507,0,0,1,.467.924c.2,1.559,1.257,2.017,2.64,2.215M12.38,41.441H10.806V54.983H12.38ZM35.86,22.95c1.49-.611,2.157-1.541,1.975-2.735a2.205,2.205,0,0,0-1.975-2.143ZM33.27,46.43c-1.035-.035-1.437.435-1.427,1.355.01.969-.006,1.938.005,2.907.011.929.407,1.383,1.422,1.133ZM10.659,18.06A2.31,2.31,0,0,0,8.721,20.44a2.231,2.231,0,0,0,1.938,2.349Zm.172,41.132H12.4V57.278H10.832Z" transform="translate(0 0)" fill="url(#linear-gradient)"/>
        <path id="Trazado_925532" data-name="Trazado 925532" d="M121.357,111.674a3.036,3.036,0,0,1-2.87,3.109,3.069,3.069,0,0,1-3.07-3.048,3.027,3.027,0,0,1,2.948-3.019,2.972,2.972,0,0,1,2.993,2.959m-1.742.007c-.586-.379-.964-.807-1.212-.739a1.312,1.312,0,0,0-.8.884c-.034.228.521.782.789.766.343-.02.663-.466,1.223-.911" transform="translate(-70.478 -66.386)" fill="url(#linear-gradient)"/>
        <path id="Trazado_925533" data-name="Trazado 925533" d="M98.488,108.713a3.026,3.026,0,1,1-2.919,3.047,3.014,3.014,0,0,1,2.919-3.047m.087,1.7c-.441.668-.883,1.047-.832,1.334a1.33,1.33,0,0,0,.859.839c.188.049.718-.492.741-.794.025-.329-.36-.691-.768-1.379" transform="translate(-58.358 -66.385)" fill="url(#linear-gradient)"/>
        <path id="Trazado_925534" data-name="Trazado 925534" d="M98.714,148.387a3.849,3.849,0,0,1-1.4-.036,1.873,1.873,0,0,1-1.043-1.005c-.067-.248.519-.953.868-1a12.483,12.483,0,0,1,3.193,0,1.367,1.367,0,0,1,.846,1.04c-.006.336-.542.808-.938.952a4.668,4.668,0,0,1-1.527.039v.007" transform="translate(-58.785 -89.304)" fill="url(#linear-gradient)"/>
        <path id="Trazado_925535" data-name="Trazado 925535" d="M98.547,137.761a3.64,3.64,0,0,1-1.393-.038c-.419-.188-.711-.676-1.058-1.033.333-.326.637-.885,1-.932a12.043,12.043,0,0,1,3.064,0,1.351,1.351,0,0,1,.914.949c.005.342-.5.864-.879,1a5.211,5.211,0,0,1-1.651.042v.011" transform="translate(-58.68 -82.84)" fill="url(#linear-gradient)"/>
        <path id="Trazado_925536" data-name="Trazado 925536" d="M54.937,76.779a15.465,15.465,0,0,1-2.6-1.077c-.322-.2-.329-.936-.479-1.428.481-.12,1.08-.488,1.421-.316a3.367,3.367,0,0,0,3.314.02c.354-.179.955.155,1.442.254-.166.526-.18,1.3-.531,1.526a12.929,12.929,0,0,1-2.569,1.021" transform="translate(-31.668 -45.134)" fill="url(#linear-gradient)"/>
        <path id="Trazado_925537" data-name="Trazado 925537" d="M45.968,50.14c-.655.681-1.026,1.413-1.489,1.48-1,.144-1.08-.759-1.086-1.541s.121-1.7,1.077-1.562c.478.068.853.889,1.5,1.623" transform="translate(-26.497 -29.618)" fill="url(#linear-gradient)"/>
        <path id="Trazado_925538" data-name="Trazado 925538" d="M70.232,49.81c.44-.447.853-1.23,1.325-1.269.977-.081,1.006.864,1,1.626-.009.722-.06,1.508-1.016,1.517-1.056.01-1.038-.823-1.307-1.874" transform="translate(-42.887 -29.638)" fill="url(#linear-gradient)"/>
        <path id="Trazado_925539" data-name="Trazado 925539" d="M57.765,62.648l1.326,1.685c-.464.337-.915.911-1.4.937-.4.022-.825-.6-1.239-.943l1.309-1.679" transform="translate(-34.474 -38.255)" fill="url(#linear-gradient)"/>
      </g>
    </g>
  </g>
</svg>
