<svg xmlns="http://www.w3.org/2000/svg" xmlns:xlink="http://www.w3.org/1999/xlink" width="125" height="125" viewBox="0 0 125 125">
  <defs>
    <linearGradient id="linear-gradient" x1="0.5" x2="0.5" y2="1" gradientUnits="objectBoundingBox">
      <stop offset="0" stop-color="#d898b0"/>
      <stop offset="1" stop-color="#f8c2dd"/>
    </linearGradient>
    <clipPath id="clip-path">
      <rect id="Rectángulo_403536" data-name="Rectángulo 403536" width="68.799" height="68.303" fill="url(#linear-gradient)"/>
    </clipPath>
  </defs>
  <g id="Grupo_1103252" data-name="Grupo 1103252" transform="translate(-949 -1682.811)">
    <circle id="Elipse_11555" data-name="Elipse 11555" cx="62.5" cy="62.5" r="62.5" transform="translate(949 1682.811)" fill="#efc6ca"/>
    <circle id="Elipse_11550" data-name="Elipse 11550" cx="60" cy="60" r="60" transform="translate(950 1685.811)" fill="#fff"/>
    <path id="Trazado_924878" data-name="Trazado 924878" d="M-8377-6842.439s16-32.561,52.5-30.061" transform="translate(9338 8568.811)" fill="none" stroke="#efc6ca" stroke-width="2" stroke-dasharray="6 6"/>
    <g id="Grupo_1103175" data-name="Grupo 1103175" transform="translate(975.147 1711.271)">
      <g id="Grupo_1103174" data-name="Grupo 1103174" transform="translate(0 0)" clip-path="url(#clip-path)">
        <path id="Trazado_925441" data-name="Trazado 925441" d="M55.478,35.333c.228,3.9.442,7.768.681,11.635.387,6.3.8,12.607,1.184,18.911.1,1.624-.661,2.416-2.329,2.417q-20.58.012-41.157,0c-1.817,0-2.51-.788-2.4-2.613q.885-14.116,1.763-28.232c.132-2.136.127-2.141-1.9-2.962Q6.567,32.562,1.8,30.643C-.1,29.872-.435,28.986.5,27.189q3.665-7.01,7.349-14.009A12.989,12.989,0,0,1,15.092,6.81a9.207,9.207,0,0,1,1.267-.465A8.962,8.962,0,0,0,22.911,1.52,2.948,2.948,0,0,1,26.263.057a56.119,56.119,0,0,0,16.316,0,2.941,2.941,0,0,1,3.333,1.505c1.372,2.693,3.612,4.011,6.437,4.776a14.075,14.075,0,0,1,9.208,7.954c2.112,4.333,4.463,8.549,6.7,12.823.987,1.886.671,2.745-1.306,3.554-3.792,1.552-7.59,3.09-11.472,4.67m-52.693-8.4c.549-.077,1.18-.368,1.635-.195,3.024,1.149,6.012,2.4,9.148,3.667.074-.649.155-1.176.188-1.707.2-3.106.376-6.214.57-9.319.041-.647-.119-1.544.912-1.461,1.011.081.742.973.707,1.6-.137,2.477-.323,4.951-.476,7.428q-1.063,17.289-2.113,34.578c-.1,1.686-.165,3.374-.244,5.043H55.719c-.16-2.662-.312-5.218-.468-7.774q-.762-12.428-1.526-24.853c-.3-4.908-.619-9.814-.86-14.725-.022-.429.47-.883.722-1.326.292.416.784.808.839,1.253.188,1.519.216,3.058.315,4.588.142,2.188.293,4.375.448,6.686,3.154-1.274,6.117-2.471,9.081-3.664.624-.251,1.391-.673,1.659.278.081.287-.6.995-1.066,1.2-2.854,1.228-5.738,2.391-8.634,3.519-.891.348-1.216.791-.692,1.789L67.2,28.79a6.422,6.422,0,0,0-.231-.618c-2.573-4.908-5.027-9.887-7.8-14.684A12.238,12.238,0,0,0,55.057,9.34,43.345,43.345,0,0,0,48.5,6.6c-1.5,2.138-2.711,4.149-4.2,5.934-2.319,2.784-3.2,2.914-6.5,1.532a28.089,28.089,0,0,1-.038,3.14c-.048.419-.516.791-.793,1.184-.267-.4-.729-.781-.764-1.2a23.955,23.955,0,0,1-.02-3.785c.1-1.363-.73-1.608-1.749-1.654-1.309-.06-1.8.429-1.806,1.712-.008.993,0,1.985,0,2.978,0,2.565,0,2.565,2.607,2.717.135.008.306-.035.4.032.3.219.569.476.85.719-.286.288-.527.688-.872.836a3.248,3.248,0,0,1-1.205.051c-2.915,0-3.416-.487-3.418-3.354,0-1.1,0-2.211,0-3.4-3,1.43-4.06,1.312-6.16-1.162-1.616-1.9-2.954-4.042-4.5-6.2-1.353.481-2.917,1.037-4.482,1.59a11.483,11.483,0,0,0-6.571,5.711C7.228,17.895,5.163,21.8,3.132,25.719a5.637,5.637,0,0,0-.31,1.243L1.393,28.708l11.87,4.8c.533-1.079.09-1.456-.709-1.769-2.924-1.145-5.841-2.308-8.724-3.549-.446-.192-.7-.827-1.044-1.257M25.735,1.873c-.043-.134-.086-.268-.129-.4a6.624,6.624,0,0,0-1.318.945A11.16,11.16,0,0,0,22.659,4.73a2.243,2.243,0,0,0-.15,1.811A67.739,67.739,0,0,0,26.8,12.552c.907,1.118,1.822,1.023,2.954.109,4.3-3.474,4.923-3.48,9.327.042a1.9,1.9,0,0,0,2.879-.083,32.093,32.093,0,0,0,3.013-3.632c2.1-3.089,2.054-3.12-.081-6.092a2.073,2.073,0,0,1-.159-.219A1.985,1.985,0,0,0,42.452,1.7a62.479,62.479,0,0,1-6.731.514c-3.328,0-6.658-.216-9.986-.34" transform="translate(0 0)" fill="url(#linear-gradient)"/>
        <path id="Trazado_925442" data-name="Trazado 925442" d="M34.542,65.243H16.423a3.589,3.589,0,0,1-1.205-.051c-.309-.116-.729-.493-.721-.742.008-.278.4-.642.709-.786a2.7,2.7,0,0,1,1.067-.056q18.253,0,36.507,0c.316,0,.692-.1.932.042a4.323,4.323,0,0,1,.847.85,3.33,3.33,0,0,1-.829.7,3.064,3.064,0,0,1-1.071.04H34.542" transform="translate(-0.094 -0.411)" fill="url(#linear-gradient)"/>
        <path id="Trazado_925443" data-name="Trazado 925443" d="M35.917,14.214c-.614.418-.968.843-1.318.842-.292,0-.582-.5-.872-.782.3-.312.562-.791.921-.881.254-.065.642.392,1.27.822" transform="translate(-0.218 -0.087)" fill="url(#linear-gradient)"/>
        <path id="Trazado_925444" data-name="Trazado 925444" d="M34.579,9.921A6.367,6.367,0,0,1,32.672,9.3c-2.269-1.683-4.5-3.42-6.66-5.241-.373-.315-.63-1.434-.407-1.66.682-.7,1.085.149,1.593.566,2.011,1.651,4,3.34,6.148,4.8a2.737,2.737,0,0,0,2.493-.027c2.138-1.471,4.092-3.208,6.154-4.794a6.54,6.54,0,0,1,1.535-.653c-.084.547.034,1.334-.285,1.6C41.018,5.778,38.725,7.58,36.4,9.333a6.057,6.057,0,0,1-1.82.588" transform="translate(-0.165 -0.014)" fill="url(#linear-gradient)"/>
      </g>
    </g>
  </g>
</svg>
