<svg xmlns="http://www.w3.org/2000/svg" xmlns:xlink="http://www.w3.org/1999/xlink" width="710.949" height="386.635" viewBox="0 0 710.949 386.635">
  <defs>
    <clipPath id="clip-path">
      <rect id="Rectángulo_403598" data-name="Rectángulo 403598" width="710.949" height="386.634" fill="none"/>
    </clipPath>
  </defs>
  <g id="Grupo_1103255" data-name="Grupo 1103255" transform="translate(-445.051 -3315)">
    <g id="Grupo_1103236" data-name="Grupo 1103236" transform="translate(445.051 3315)">
      <g id="Grupo_1103235" data-name="Grupo 1103235" clip-path="url(#clip-path)">
        <path id="Trazado_925541" data-name="Trazado 925541" d="M663.892,386.635H47.057A47.057,47.057,0,0,1,0,339.577V47.058A47.058,47.058,0,0,1,47.057,0H663.892a47.057,47.057,0,0,1,47.057,47.058V339.577a47.057,47.057,0,0,1-47.057,47.057" fill="#fff"/>
        <path id="Trazado_925542" data-name="Trazado 925542" d="M126.73,383.384c-8.985,0-19.11-.334-29.282-1.335-30.652-3.018-34.977-39.415-35.017-39.783l.157-30.305L64.4,302.14,65.48,281.5l2.506-5.95-7.647-93.682,32.686-12.422-2.367,23.513,16.452-10.442v6.455l13.028,13.958,24.96-14.507v-5.6l15.338,10.12-2.365-23.5,32.846,12.91-7.007,82.332L187,268.589,183.306,275l2.5,6.092v.082c-.076,8.72.428,18.113,1.4,18.734,1.792,1.141,2.3,28.9,2.412,37.376-1.268,37.733-31.174,44.687-31.476,44.753-.229.025-13.569,1.343-31.413,1.343M66.249,281.743l-1.056,20.49-1.808,9.8-.153,30.189c.037.315,4.3,36.071,34.295,39.024,30.291,2.984,60.192.03,60.491,0,.251-.059,29.553-6.9,30.8-43.968-.18-13.512-.9-35.447-2.062-36.708-1.763-1.119-1.791-14.962-1.755-19.321l-2.587-6.308,3.619-6.285-2.95-3.736.014-.158,6.969-81.893L159,170.664l2.4,23.875-15.5-10.23v4.572l-25.913,15.063-13.682-14.658v-5.31L89.692,194.519l2.4-23.863L61.189,182.4,68.8,275.676Z" transform="translate(-11.843 -33.256)"/>
        <rect id="Rectángulo_403568" data-name="Rectángulo 403568" width="0.804" height="179.557" transform="translate(107.818 170.179)"/>
        <rect id="Rectángulo_403569" data-name="Rectángulo 403569" width="0.804" height="1.206" transform="translate(109.354 170.179)"/>
        <path id="Trazado_925543" data-name="Trazado 925543" d="M136.864,388.549h-.8v-2.427h.8Zm0-4.853h-.8v-2.427h.8Zm0-4.854h-.8v-2.427h.8Zm0-4.853h-.8v-2.427h.8Zm0-4.854h-.8v-2.427h.8Zm0-4.853h-.8v-2.427h.8Zm0-4.854h-.8V357h.8Zm0-4.853h-.8V352.15h.8Zm0-4.854h-.8V347.3h.8Zm0-4.853h-.8v-2.427h.8Zm0-4.854h-.8v-2.426h.8Zm0-4.853h-.8v-2.427h.8Zm0-4.854h-.8v-2.426h.8Zm0-4.853h-.8v-2.427h.8Zm0-4.853h-.8v-2.427h.8Zm0-4.854h-.8v-2.427h.8Zm0-4.853h-.8V308.47h.8Zm0-4.854h-.8v-2.427h.8Zm0-4.853h-.8v-2.427h.8Zm0-4.854h-.8v-2.427h.8Zm0-4.853h-.8v-2.427h.8Zm0-4.854h-.8V284.2h.8Zm0-4.853h-.8V279.35h.8Zm0-4.854h-.8V274.5h.8Zm0-4.854h-.8v-2.427h.8Zm0-4.853h-.8V264.79h.8Zm0-4.854h-.8v-2.427h.8Zm0-4.853h-.8v-2.427h.8Zm0-4.854h-.8V250.23h.8Zm0-4.853h-.8v-2.426h.8Zm0-4.854h-.8v-2.426h.8Zm0-4.854h-.8V235.67h.8Zm0-4.853h-.8v-2.426h.8Zm0-4.854h-.8v-2.426h.8Zm0-4.853h-.8v-2.426h.8Zm0-4.854h-.8v-2.426h.8Z" transform="translate(-26.706 -42.446)"/>
        <rect id="Rectángulo_403570" data-name="Rectángulo 403570" width="0.804" height="1.206" transform="translate(109.354 348.53)"/>
        <rect id="Rectángulo_403571" data-name="Rectángulo 403571" width="2.411" height="1.206" transform="translate(116.393 170.179)"/>
        <path id="Trazado_925544" data-name="Trazado 925544" d="M147.229,388.549h-2.411v-2.427h2.411Zm0-4.853h-2.411v-2.427h2.411Zm0-4.854h-2.411v-2.427h2.411Zm0-4.853h-2.411v-2.427h2.411Zm0-4.854h-2.411v-2.427h2.411Zm0-4.853h-2.411v-2.427h2.411Zm0-4.854h-2.411V357h2.411Zm0-4.853h-2.411V352.15h2.411Zm0-4.854h-2.411V347.3h2.411Zm0-4.853h-2.411v-2.427h2.411Zm0-4.854h-2.411v-2.426h2.411Zm0-4.853h-2.411v-2.427h2.411Zm0-4.854h-2.411v-2.426h2.411Zm0-4.853h-2.411v-2.427h2.411Zm0-4.853h-2.411v-2.427h2.411Zm0-4.854h-2.411v-2.427h2.411Zm0-4.853h-2.411V308.47h2.411Zm0-4.854h-2.411v-2.427h2.411Zm0-4.853h-2.411v-2.427h2.411Zm0-4.854h-2.411v-2.427h2.411Zm0-4.853h-2.411v-2.427h2.411Zm0-4.854h-2.411V284.2h2.411Zm0-4.853h-2.411V279.35h2.411Zm0-4.854h-2.411V274.5h2.411Zm0-4.854h-2.411v-2.427h2.411Zm0-4.853h-2.411V264.79h2.411Zm0-4.854h-2.411v-2.427h2.411Zm0-4.853h-2.411v-2.427h2.411Zm0-4.854h-2.411V250.23h2.411Zm0-4.853h-2.411v-2.426h2.411Zm0-4.854h-2.411v-2.426h2.411Zm0-4.854h-2.411V235.67h2.411Zm0-4.853h-2.411v-2.426h2.411Zm0-4.854h-2.411v-2.426h2.411Zm0-4.853h-2.411v-2.426h2.411Zm0-4.854h-2.411v-2.426h2.411Z" transform="translate(-28.425 -42.446)"/>
        <rect id="Rectángulo_403572" data-name="Rectángulo 403572" width="2.411" height="1.206" transform="translate(116.393 348.53)"/>
        <rect id="Rectángulo_403573" data-name="Rectángulo 403573" width="0.804" height="186.672" transform="translate(120.059 163.063)"/>
        <path id="Trazado_925545" data-name="Trazado 925545" d="M140.345,219.936a2.449,2.449,0,1,1,2.449-2.449,2.452,2.452,0,0,1-2.449,2.449m0-4.094a1.645,1.645,0,1,0,1.645,1.645,1.647,1.647,0,0,0-1.645-1.645" transform="translate(-27.066 -42.207)"/>
        <path id="Trazado_925546" data-name="Trazado 925546" d="M140.345,264.061a2.449,2.449,0,1,1,2.449-2.449,2.452,2.452,0,0,1-2.449,2.449m0-4.094a1.645,1.645,0,1,0,1.645,1.645,1.647,1.647,0,0,0-1.645-1.645" transform="translate(-27.066 -50.868)"/>
        <path id="Trazado_925547" data-name="Trazado 925547" d="M140.345,307.186a2.449,2.449,0,1,1,2.449-2.449,2.452,2.452,0,0,1-2.449,2.449m0-4.094a1.645,1.645,0,1,0,1.645,1.645,1.647,1.647,0,0,0-1.645-1.645" transform="translate(-27.066 -59.332)"/>
        <path id="Trazado_925548" data-name="Trazado 925548" d="M140.345,350.059a2.449,2.449,0,1,1,2.449-2.449,2.452,2.452,0,0,1-2.449,2.449m0-4.094a1.645,1.645,0,1,0,1.645,1.645,1.647,1.647,0,0,0-1.645-1.645" transform="translate(-27.066 -67.747)"/>
        <path id="Trazado_925549" data-name="Trazado 925549" d="M140.345,393.759a2.449,2.449,0,1,1,2.449-2.449,2.452,2.452,0,0,1-2.449,2.449m0-4.094a1.645,1.645,0,1,0,1.645,1.645,1.647,1.647,0,0,0-1.645-1.645" transform="translate(-27.066 -76.325)"/>
        <rect id="Rectángulo_403574" data-name="Rectángulo 403574" width="0.804" height="1.206" transform="translate(520.023 142.993)"/>
        <path id="Trazado_925550" data-name="Trazado 925550" d="M647.822,395.536h-.8v-2.394h.8Zm0-4.79h-.8v-2.394h.8Zm0-4.789h-.8v-2.394h.8Zm0-4.79h-.8v-2.394h.8Zm0-4.789h-.8v-2.394h.8Zm0-4.789h-.8v-2.4h.8Zm0-4.79h-.8V364.4h.8Zm0-4.789h-.8v-2.394h.8Zm0-4.79h-.8v-2.394h.8Zm0-4.789h-.8v-2.394h.8Zm0-4.79h-.8v-2.394h.8Zm0-4.789h-.8v-2.394h.8Zm0-4.789h-.8v-2.4h.8Zm0-4.79h-.8v-2.394h.8Zm0-4.789h-.8v-2.4h.8Zm0-4.79h-.8V321.3h.8Zm0-4.789h-.8v-2.394h.8Zm0-4.79h-.8v-2.394h.8Zm0-4.789h-.8v-2.394h.8Zm0-4.79h-.8v-2.394h.8Zm0-4.789h-.8v-2.394h.8Zm0-4.789h-.8v-2.4h.8Zm0-4.79h-.8v-2.394h.8Zm0-4.789h-.8v-2.394h.8Zm0-4.79h-.8v-2.394h.8Zm0-4.789h-.8V273.4h.8Zm0-4.79h-.8v-2.4h.8Zm0-4.789h-.8v-2.4h.8Zm0-4.79h-.8v-2.4h.8Zm0-4.789h-.8V254.24h.8Zm0-4.79h-.8V249.45h.8Zm0-4.789h-.8v-2.394h.8Zm0-4.79h-.8v-2.394h.8Zm0-4.789h-.8v-2.394h.8Zm0-4.789h-.8v-2.4h.8Zm0-4.789h-.8v-2.4h.8Zm0-4.79h-.8v-2.4h.8Zm0-4.789h-.8v-2.4h.8Zm0-4.79h-.8v-2.4h.8Zm0-4.789h-.8v-2.394h.8Zm0-4.79h-.8v-2.394h.8Zm0-4.789h-.8v-2.394h.8Zm0-4.79h-.8v-2.394h.8Zm0-4.789h-.8v-2.394h.8Zm0-4.79h-.8v-2.394h.8Z" transform="translate(-126.995 -35.8)"/>
        <rect id="Rectángulo_403575" data-name="Rectángulo 403575" width="0.804" height="1.206" transform="translate(520.023 362.131)"/>
        <rect id="Rectángulo_403576" data-name="Rectángulo 403576" width="2.411" height="1.206" transform="translate(530.85 137.694)"/>
        <path id="Trazado_925551" data-name="Trazado 925551" d="M662.9,394.238h-2.411v-2.4H662.9Zm0-4.8h-2.411v-2.4H662.9Zm0-4.8h-2.411v-2.4H662.9Zm0-4.8h-2.411v-2.4H662.9Zm0-4.8h-2.411v-2.4H662.9Zm0-4.8h-2.411v-2.4H662.9Zm0-4.8h-2.411v-2.4H662.9Zm0-4.8h-2.411v-2.4H662.9Zm0-4.8h-2.411v-2.4H662.9Zm0-4.8h-2.411v-2.4H662.9Zm0-4.8h-2.411v-2.4H662.9Zm0-4.8h-2.411v-2.4H662.9Zm0-4.8h-2.411v-2.4H662.9Zm0-4.8h-2.411v-2.4H662.9Zm0-4.8h-2.411v-2.4H662.9Zm0-4.8h-2.411v-2.4H662.9Zm0-4.8h-2.411v-2.4H662.9Zm0-4.8h-2.411v-2.4H662.9Zm0-4.8h-2.411v-2.4H662.9Zm0-4.8h-2.411v-2.4H662.9Zm0-4.8h-2.411v-2.4H662.9Zm0-4.8h-2.411v-2.4H662.9Zm0-4.8h-2.411v-2.4H662.9Zm0-4.8h-2.411v-2.4H662.9Zm0-4.8h-2.411v-2.4H662.9Zm0-4.8h-2.411v-2.4H662.9Zm0-4.8h-2.411v-2.4H662.9Zm0-4.8h-2.411v-2.4H662.9Zm0-4.8h-2.411v-2.4H662.9Zm0-4.8h-2.411v-2.4H662.9Zm0-4.8h-2.411v-2.4H662.9Zm0-4.8h-2.411v-2.4H662.9Zm0-4.8h-2.411v-2.4H662.9Zm0-4.8h-2.411v-2.4H662.9Zm0-4.8h-2.411v-2.4H662.9Zm0-4.8h-2.411v-2.4H662.9Zm0-4.8h-2.411v-2.4H662.9Zm0-4.8h-2.411v-2.4H662.9Zm0-4.8h-2.411v-2.4H662.9Zm0-4.8h-2.411v-2.4H662.9Zm0-4.8h-2.411v-2.4H662.9Zm0-4.8h-2.411v-2.4H662.9Zm0-4.8h-2.411v-2.4H662.9Zm0-4.8h-2.411v-2.4H662.9Zm0-4.8h-2.411v-2.4H662.9Zm0-4.8h-2.411v-2.4H662.9Z" transform="translate(-129.639 -34.507)"/>
        <rect id="Rectángulo_403577" data-name="Rectángulo 403577" width="2.411" height="1.206" transform="translate(530.85 362.131)"/>
        <rect id="Rectángulo_403578" data-name="Rectángulo 403578" width="0.804" height="227.498" transform="translate(534.515 135.839)"/>
        <path id="Trazado_925552" data-name="Trazado 925552" d="M653.5,188.567a3.348,3.348,0,1,1,3.347-3.347,3.352,3.352,0,0,1-3.347,3.347m0-5.892a2.544,2.544,0,1,0,2.544,2.545,2.547,2.547,0,0,0-2.544-2.545" transform="translate(-127.611 -35.697)"/>
        <path id="Trazado_925553" data-name="Trazado 925553" d="M653.5,242.986a3.348,3.348,0,1,1,3.347-3.348,3.352,3.352,0,0,1-3.347,3.348m0-5.893a2.545,2.545,0,1,0,2.544,2.545,2.547,2.547,0,0,0-2.544-2.545" transform="translate(-127.611 -46.378)"/>
        <path id="Trazado_925554" data-name="Trazado 925554" d="M653.5,297.4a3.348,3.348,0,1,1,3.347-3.348A3.353,3.353,0,0,1,653.5,297.4m0-5.893a2.545,2.545,0,1,0,2.544,2.545,2.547,2.547,0,0,0-2.544-2.545" transform="translate(-127.611 -57.06)"/>
        <path id="Trazado_925555" data-name="Trazado 925555" d="M653.5,351.822a3.348,3.348,0,1,1,3.347-3.348,3.352,3.352,0,0,1-3.347,3.348m0-5.893a2.545,2.545,0,1,0,2.544,2.545,2.547,2.547,0,0,0-2.544-2.545" transform="translate(-127.611 -67.74)"/>
        <path id="Trazado_925556" data-name="Trazado 925556" d="M653.5,406.24a3.348,3.348,0,1,1,3.347-3.348,3.352,3.352,0,0,1-3.347,3.348m0-5.892a2.544,2.544,0,1,0,2.544,2.544,2.547,2.547,0,0,0-2.544-2.544" transform="translate(-127.611 -78.422)"/>
        <rect id="Rectángulo_403579" data-name="Rectángulo 403579" width="43.059" height="0.803" transform="translate(445.514 116.387) rotate(-20.015)"/>
        <path id="Trazado_925557" data-name="Trazado 925557" d="M636.915,383.3h-.8V163.108l-16.88-18.388v-5.559L599.28,152.285l7.768-50.6.794.121-7.493,48.814,19.686-12.949v6.735l16.88,18.388Z" transform="translate(-117.625 -19.958)"/>
        <path id="Trazado_925558" data-name="Trazado 925558" d="M550.66,226.378l-62.646-22.5.129-.375c.268-.775,26.856-77.574,30-85.026,3.218-7.616,17.362-11.616,17.962-11.783l49.163-20.47c1.514-4.92,13.151-16.107,14.2-17.109,5.4-12.149,18.194-11.591,19.819-11.466,1.4-1.12,14.252-11.7,9.642-19.265a6.914,6.914,0,0,0-5.993-3.238c-7.357.17-10.424,9.952-10.454,10.051l-.091.3-12.322-.565.081-.451c.024-.133,2.5-13.392,12.071-18.412,5.473-2.872,12.164-2.546,19.885.966a15.383,15.383,0,0,1,8.377,9.028c3.274,9.981-5.153,19.432-7.394,21.715,2.657.68,11.642,3.49,12.633,10.564.026.244,1.682,17.978-11.719,47.047l12.18,7.3c.026.026,2.713,2.634.588,6.76a9.491,9.491,0,0,1-4.09,4.011l-29.3,15.4.957-1.361a208.977,208.977,0,0,0,18.631-31.788l-.2-.121.412-.69.128.077c13.261-28.789,11.638-46.3,11.614-46.535-1.06-7.568-12.6-10.022-12.718-10.046l-.772-.158.582-.532c.113-.1,11.283-10.477,7.7-21.392a14.582,14.582,0,0,0-7.946-8.547c-7.484-3.4-13.937-3.737-19.179-.986-8.241,4.324-11.039,15.059-11.559,17.392l10.775.493c.592-1.739,3.833-10.154,11.107-10.322a7.679,7.679,0,0,1,6.7,3.623c5.221,8.565-9.337,19.936-9.959,20.416l-.129.1-.162-.018c-.134-.016-13.713-1.4-19.194,11.05l-.091.129c-.128.122-12.862,12.27-14.09,16.98l-.051.193-49.218,20.491,5.111,14.157Zm-61.627-22.984,60.721,21.8L541.04,121.586l-5.073-14.01c-2.359.72-14.3,4.641-17.08,11.218-3.024,7.158-27.822,78.734-29.854,84.6m144.634-87.27a208.032,208.032,0,0,1-17.717,30.482l26.363-13.856a8.69,8.69,0,0,0,3.749-3.667c1.749-3.4-.127-5.5-.4-5.78Z" transform="translate(-95.786 -4.737)"/>
        <path id="Trazado_925559" data-name="Trazado 925559" d="M236.748,151.1l-50.837-18.256.13-.375c.217-.626,21.715-62.724,24.261-68.751,2.616-6.192,14.086-9.436,14.573-9.572l.359-.1,4.37,12.107Zm-49.817-18.744,48.911,17.565-7.034-83.647-4.073-11.248c-1.968.6-11.474,3.755-13.692,9-2.433,5.758-22.3,63.107-24.112,68.326" transform="translate(-36.49 -10.609)"/>
        <path id="Trazado_925560" data-name="Trazado 925560" d="M648.4,147.433c-.235-.336-23.472-33.969-22.524-66.318l.8.023c-.94,32.08,22.146,65.5,22.38,65.834Z" transform="translate(-122.841 -15.921)"/>
        <path id="Trazado_925561" data-name="Trazado 925561" d="M700.6,117.919l-3.323-21.907L683.364,79.406l.615-.517,14.063,16.778.017.112L701.4,117.8Z" transform="translate(-134.129 -15.484)"/>
        <path id="Trazado_925562" data-name="Trazado 925562" d="M605.385,392.087c-23.125-2.153-35.139-15.718-41.15-26.718a67.35,67.35,0,0,1-7.58-23.568l1.112-44.4,2.107-9.256V267.12l.035-.08,4.4-9.743-4.531-7.419,3.593-4.236.612.52-3.216,3.793,4.45,7.286-4.543,10.051-.01,20.988-2.107,9.22-1.1,44.276a66.627,66.627,0,0,0,7.5,23.232c5.92,10.819,17.745,24.159,40.47,26.277l64.348,0a58.006,58.006,0,0,0,22.908-8.986c10.422-6.992,22.8-20.849,22.582-47.153-.289-35.074-1.371-43.037-1.914-44.8l-.617,1.73-.012-2.3v-23.4l-4.451-6.033v-5.944l3.952-4.206-4.074-4.15,9.608-103.213-41.115-15,4.583,28.215-22.034-12.606.4-.7,20.571,11.77-4.531-27.905L718.608,142.3l-.028.308-9.6,103.15,4.353,4.434-4.263,4.538v5.361l4.451,6.034V289.2c.693.257,2.189,2.962,2.544,45.935.22,26.677-12.367,40.742-22.965,47.845a58.782,58.782,0,0,1-23.283,9.1Z" transform="translate(-109.259 -24.851)"/>
        <path id="Trazado_925563" data-name="Trazado 925563" d="M559,391.243c-.107-.8-.143-1.235-.143-1.235l1.6-.133c0,.012.036.42.135,1.155Z" transform="translate(-109.692 -76.524)"/>
        <path id="Trazado_925564" data-name="Trazado 925564" d="M667.913,439.941h-2.4v-1.607h2.4Zm-4.8,0h-2.4v-1.607h2.4Zm-4.8,0h-2.4v-1.607h2.4Zm-4.8,0h-2.4v-1.607h2.4Zm-4.8,0h-2.4v-1.607h2.4Zm-4.8,0h-2.4v-1.607h2.4Zm-4.8,0h-2.4v-1.607h2.4Zm-4.8,0h-2.4v-1.607h2.4Zm-4.8,0h-2.4v-1.607h2.4Zm-4.8,0h-2.4v-1.607h2.4Zm-4.8,0h-2.4v-1.607h2.4Zm-4.8,0h-2.4v-1.607h2.4Zm-4.8,0h-2.4v-1.607h2.4Zm-4.889-.14q-1.226-.143-2.41-.331l.251-1.587q1.153.182,2.345.322Zm65.064-.027-.272-1.584c.722-.124,1.5-.283,2.318-.473l.362,1.567c-.846.2-1.656.36-2.409.489m-69.869-.735c-.788-.159-1.587-.339-2.375-.535l.39-1.561c.763.191,1.538.366,2.3.52Zm74.646-.363-.435-1.548c.708-.2,1.468-.428,2.272-.69l.5,1.527q-1.242.405-2.337.71m-79.371-.817c-.778-.233-1.558-.487-2.316-.756l.535-1.516c.735.26,1.489.506,2.243.731Zm84.01-.7-.562-1.505c.712-.267,1.448-.557,2.2-.877l.625,1.482q-1.167.491-2.267.9m-88.6-.923c-.752-.309-1.5-.64-2.233-.984l.686-1.454c.7.332,1.43.652,2.157.951Zm93.1-.97-.686-1.454q1.045-.493,2.122-1.057l.747,1.424q-1.105.58-2.182,1.087m-97.513-1.11c-.721-.388-1.435-.795-2.119-1.21l.832-1.375c.661.4,1.351.794,2.049,1.169ZM688.68,433l-.808-1.389q1-.586,2.02-1.235l.868,1.353q-1.045.67-2.08,1.272m-106-1.374c-.67-.456-1.336-.936-1.982-1.427l.973-1.28c.623.474,1.266.937,1.913,1.377Zm110.1-1.263-.931-1.311c.645-.457,1.284-.933,1.9-1.412l.991,1.265c-.632.5-1.29.985-1.956,1.458M578.792,428.67c-.613-.518-1.226-1.065-1.823-1.624l1.1-1.173c.575.542,1.168,1.069,1.759,1.57Zm117.831-1.313-1.051-1.218c.588-.507,1.178-1.041,1.752-1.586l1.107,1.167c-.592.562-1.2,1.112-1.808,1.637M575.233,425.33c-.562-.583-1.116-1.188-1.649-1.8l1.211-1.057c.516.592,1.053,1.176,1.6,1.74Zm124.923-1.336-1.165-1.108c.542-.568,1.075-1.157,1.584-1.75l1.218,1.05c-.528.612-1.079,1.221-1.638,1.808m-128.133-2.338c-.5-.637-1-1.292-1.47-1.945l1.3-.94c.456.634.936,1.269,1.427,1.887ZM703.34,420.3l-1.268-.987c.483-.621.954-1.259,1.4-1.9l1.317.921c-.463.66-.95,1.321-1.45,1.963M569.173,417.7q-.674-1.028-1.292-2.065l1.38-.825q.6,1.007,1.256,2.007Zm136.965-1.4-1.361-.856c.413-.656.819-1.338,1.207-2.028l1.4.789c-.4.711-.82,1.416-1.247,2.094m-139.463-2.783q-.587-1.084-1.12-2.16l1.441-.712q.518,1.049,1.091,2.107Zm141.853-1.464-1.436-.721c.35-.7.689-1.419,1.006-2.134l1.469.649c-.326.739-.676,1.481-1.039,2.205m-144.01-2.9c-.337-.753-.654-1.5-.952-2.237l1.489-.6q.439,1.08.931,2.185ZM710.5,407.6l-1.5-.582q.421-1.086.808-2.221l1.522.517q-.4,1.168-.833,2.286m-147.81-2.952q-.429-1.174-.794-2.3l1.527-.5q.359,1.1.777,2.247ZM712.067,403l-1.543-.452q.328-1.118.617-2.283l1.56.387q-.3,1.2-.634,2.347m-150.886-2.971q-.353-1.224-.637-2.347l1.558-.4q.279,1.1.624,2.3Zm152.059-1.746-1.575-.326q.239-1.143.436-2.327l1.586.265q-.2,1.216-.448,2.388m-153.254-2.97c-.191-.878-.347-1.678-.475-2.389l1.582-.285c.125.694.277,1.476.464,2.332ZM714.048,393.5l-1.593-.212q.153-1.157.271-2.355l1.6.156q-.119,1.225-.277,2.411m.475-4.829-1.6-.105q.076-1.169.118-2.372l1.606.055q-.041,1.23-.12,2.422" transform="translate(-109.82 -75.801)"/>
        <path id="Trazado_925565" data-name="Trazado 925565" d="M752.2,382.925l-1.607-.01q0-.592,0-1.194l1.607-.013q0,.614,0,1.217" transform="translate(-147.324 -74.921)"/>
        <path id="Trazado_925566" data-name="Trazado 925566" d="M746.882,137.432l-.751-.288,5.35-13.953-50.5-22.741.329-.733,51.2,23.052Z" transform="translate(-137.587 -19.572)"/>
        <path id="Trazado_925567" data-name="Trazado 925567" d="M745.755,246.085l-.254-.762,62.251-20.7c-2.079-5.981-27.412-78.725-31.731-85.757-4.429-7.208-19.881-12.454-20.036-12.507l.256-.763c.646.218,15.884,5.391,20.465,12.849,4.528,7.373,30.821,83.078,31.939,86.3l.133.386-.386.129Z" transform="translate(-146.325 -24.652)"/>
        <path id="Trazado_925568" data-name="Trazado 925568" d="M668.542,115.21c-.208-.061-21-6.02-37.116-.583l-.257-.761c16.357-5.52,37.389.51,37.6.572Z" transform="translate(-123.885 -21.893)"/>
        <path id="Trazado_925569" data-name="Trazado 925569" d="M653.6,117.455l-.008-.8q1.187-.012,2.391-.076l.044.8c-.814.043-1.625.068-2.427.076m-2.426-.025c-.823-.024-1.633-.064-2.425-.117l.054-.8c.782.051,1.581.092,2.394.115Zm7.276-.24-.081-.8c.8-.082,1.6-.185,2.369-.306l.125.793c-.783.124-1.6.229-2.414.313m-12.118-.077c-.832-.084-1.636-.179-2.409-.282l.105-.8c.764.1,1.561.2,2.384.278Zm-4.808-.638c-.858-.141-1.657-.286-2.386-.429l.154-.789c.722.141,1.513.285,2.362.426Zm21.733-.047-.173-.785c.787-.174,1.563-.373,2.309-.592l.226.772c-.763.223-1.557.427-2.362.605m-26.492-.886c-1.48-.341-2.329-.588-2.365-.6l.226-.772c.008,0,.864.252,2.32.587Z" transform="translate(-124.518 -22.409)"/>
        <path id="Trazado_925570" data-name="Trazado 925570" d="M271.593,237.605l-5.4-12.377,39.664-18.256-1.344,17.358Zm-4.35-11.976,4.773,10.939,31.732-12.8,1.2-15.5Z" transform="translate(-52.247 -40.624)"/>
        <path id="Trazado_925571" data-name="Trazado 925571" d="M424.984,237.606,392.066,224.33l-1.345-17.358,39.664,18.256Zm-32.156-13.834,31.732,12.8,4.773-10.939-37.7-17.356Z" transform="translate(-76.69 -40.624)"/>
        <rect id="Rectángulo_403580" data-name="Rectángulo 403580" width="0.804" height="1.206" transform="matrix(0.343, -0.939, 0.939, 0.343, 152.143, 115.595)"/>
        <path id="Trazado_925572" data-name="Trazado 925572" d="M233.555,159.8l-2.348-.858.276-.755,2.348.858Zm-4.7-1.714-2.348-.858.276-.755,2.348.858Zm-4.7-1.715-2.348-.858.275-.755,2.348.858Zm-4.7-1.715-2.348-.858.276-.755,2.349.857Zm-4.7-1.715-2.348-.858.276-.755,2.349.858Zm-4.7-1.715-2.348-.858.276-.755,2.348.858Zm-4.7-1.714-2.348-.858.275-.755,2.348.858Zm-4.7-1.715-2.348-.858.276-.755,2.348.858Zm-4.7-1.715-2.348-.858.276-.755,2.348.858Z" transform="translate(-38.005 -28.356)"/>
        <rect id="Rectángulo_403581" data-name="Rectángulo 403581" width="0.804" height="1.206" transform="matrix(0.343, -0.939, 0.939, 0.343, 197.898, 132.301)"/>
        <path id="Trazado_925573" data-name="Trazado 925573" d="M547.209,258.246l-2.288-.834.276-.755,2.287.835Zm-4.576-1.669-2.287-.836.276-.755,2.288.835Zm-4.575-1.672-2.288-.835.276-.754,2.288.835Zm-4.575-1.669L531.2,252.4l.276-.755,2.287.836Zm-4.576-1.671-2.287-.835.276-.755,2.288.835Zm-4.575-1.671-2.288-.835.276-.754,2.288.835Zm-4.576-1.669-2.287-.835.276-.755,2.288.835Zm-4.575-1.671-2.288-.835.276-.755,2.288.835Zm-4.575-1.671-2.288-.834.276-.755,2.287.836Zm-4.576-1.669-2.287-.835.276-.755,2.288.835Zm-4.575-1.67-2.287-.837.276-.754,2.287.835Zm-4.575-1.672-2.287-.834.276-.755,2.287.836Z" transform="translate(-97.078 -46.77)"/>
        <rect id="Rectángulo_403583" data-name="Rectángulo 403583" width="0.804" height="1.205" transform="translate(452.419 212.313) rotate(-69.946)"/>
        <rect id="Rectángulo_403584" data-name="Rectángulo 403584" width="1.205" height="0.804" transform="translate(658.11 191.984) rotate(-20.123)"/>
        <path id="Trazado_925574" data-name="Trazado 925574" d="M750.795,259.871l-.277-.755,2.288-.835.276.755Zm4.575-1.67-.276-.755,2.288-.835.276.755Zm4.576-1.67-.277-.755,2.287-.835.277.755Zm4.575-1.671-.276-.755,2.288-.835.276.755Zm4.575-1.67-.276-.755,2.287-.835.276.755Zm4.576-1.67-.277-.755,2.288-.835.276.755Zm4.575-1.67-.276-.755,2.288-.835.276.755Zm4.575-1.671-.276-.755,2.287-.836.276.755Zm4.576-1.67-.276-.755,2.288-.835.277.755Zm4.575-1.67-.276-.755,2.288-.835.276.755Zm4.576-1.671-.277-.755,2.288-.835.276.755Zm4.575-1.67-.276-.755,2.288-.836.276.755Z" transform="translate(-147.31 -47.088)"/>
        <rect id="Rectángulo_403585" data-name="Rectángulo 403585" width="1.206" height="0.804" transform="translate(599.788 213.278) rotate(-20.123)"/>
        <path id="Trazado_925575" data-name="Trazado 925575" d="M390.722,151.1l7.166-85.049,4.347-12,.359.1c.487.135,11.957,3.38,14.573,9.571,2.546,6.027,24.044,68.126,24.261,68.752l.13.375Zm7.94-84.826-7.034,83.647,48.911-17.565c-1.808-5.219-21.679-62.568-24.112-68.326-2.218-5.25-11.725-8.4-13.692-9Z" transform="translate(-76.69 -10.609)"/>
        <rect id="Rectángulo_403586" data-name="Rectángulo 403586" width="1.206" height="0.804" transform="matrix(0.939, -0.343, 0.343, 0.939, 360.739, 115.253)"/>
        <path id="Trazado_925576" data-name="Trazado 925576" d="M396.513,159.8l-.276-.755,2.348-.858.276.755Zm4.7-1.714-.275-.756,2.348-.858.276.755Zm4.7-1.715-.276-.756,2.348-.858.275.755Zm4.7-1.715-.276-.756,2.348-.857.276.755Zm4.7-1.715-.276-.755,2.348-.858.276.755Zm4.7-1.715-.275-.755,2.348-.858.276.755Zm4.7-1.714-.276-.756,2.348-.858.275.755Zm4.7-1.715-.276-.756,2.348-.858.276.755Zm4.7-1.715-.276-.755,2.348-.858.276.755Z" transform="translate(-77.773 -28.356)"/>
        <rect id="Rectángulo_403587" data-name="Rectángulo 403587" width="1.206" height="0.804" transform="matrix(0.939, -0.343, 0.343, 0.939, 314.983, 131.959)"/>
        <path id="Trazado_925577" data-name="Trazado 925577" d="M334.891,381.024,317.22,360.9v-5.121L297.4,369.043l6.324-50.756,15.638-17.894.2.019c.347.034,34.854,3.294,45.148.018l.509-.162.015.534c.019.7.427,17.216-4.183,25.64ZM318.024,360.6l16.668,18.984,25.65-53.5c4.063-7.427,4.133-21.8,4.1-24.727-10.669,2.979-41.64.175-44.748-.117l-15.2,17.4L298.416,367.4l19.608-13.124Z" transform="translate(-58.373 -58.936)"/>
        <path id="Trazado_925578" data-name="Trazado 925578" d="M346.256,367.008c-12.447-10.978-22.193-48.782-22.6-50.386l-.014-.057.638-15.639.8.033-.633,15.521c.44,1.7,10.3,39.3,22.339,49.926Z" transform="translate(-63.523 -59.065)"/>
        <path id="Trazado_925579" data-name="Trazado 925579" d="M399.671,368.633l-25.063-16.381-10.927-4.987.334-.731,10.979,5.016,23.637,15.444-6.857-49.246-14.232-16.6.61-.522L392.538,317.4Z" transform="translate(-71.383 -59.005)"/>
        <path id="Trazado_925580" data-name="Trazado 925580" d="M344.067,393.177l-.383-.706c12.3-6.672,30.744-17.559,31.113-20.21.493-3.552-4.109-7.549-4.156-7.589l.522-.611c.2.175,4.983,4.322,4.429,8.309-.542,3.9-28.355,19.088-31.525,20.807" transform="translate(-67.458 -71.457)"/>
        <rect id="Rectángulo_403588" data-name="Rectángulo 403588" width="1.206" height="0.804" transform="translate(491.448 84.14) rotate(-80.388)"/>
        <path id="Trazado_925581" data-name="Trazado 925581" d="M604.042,144.314l-.793-.134.413-2.431.792.134Zm.825-4.863-.792-.134.412-2.431.793.134Zm.825-4.862-.792-.134.413-2.431.792.134Zm.826-4.863-.793-.134.413-2.431.792.134Zm.825-4.863-.792-.134.412-2.43.793.134Zm.825-4.862-.792-.134.413-2.431.792.134Zm.826-4.863-.793-.134.412-2.43.792.134Zm.825-4.862-.792-.134.412-2.431.793.134Z" transform="translate(-118.404 -21.142)"/>
        <path id="Trazado_925582" data-name="Trazado 925582" d="M602.3,158.167l.35-2.058.792.134-.054.32.276-.169.42.686Z" transform="translate(-118.218 -30.641)"/>
        <path id="Trazado_925583" data-name="Trazado 925583" d="M607.074,152.668l-.419-.686,2.135-1.3.419.686Zm4.269-2.6-.419-.686,2.135-1.3.42.686Zm4.27-2.6-.419-.686,2.135-1.3.419.686Zm4.27-2.6-.42-.686,2.135-1.3.42.686Zm4.269-2.6-.419-.686,2.135-1.3.419.686Z" transform="translate(-119.073 -27.53)"/>
        <path id="Trazado_925584" data-name="Trazado 925584" d="M634.184,139.239l-.5-.3-.047.029-.054-.088-.088-.053.028-.047-.3-.5,2.414-1.472Z" transform="translate(-124.286 -26.853)"/>
        <path id="Trazado_925585" data-name="Trazado 925585" d="M628.752,147.6l-.69-.411,1.105-1.854.69.411Zm2.209-3.708-.69-.412,1.105-1.853.69.411Z" transform="translate(-123.275 -27.798)"/>
        <path id="Trazado_925586" data-name="Trazado 925586" d="M626.729,153.262l-1-1.121.768-1.288.69.412-.466.783.606.681Z" transform="translate(-122.817 -29.609)"/>
        <path id="Trazado_925587" data-name="Trazado 925587" d="M639.074,167.313l-1.468-1.649.6-.534,1.468,1.649Zm-2.935-3.3-1.468-1.649.6-.534,1.468,1.649Zm-2.936-3.3-1.468-1.648.6-.534,1.468,1.648Zm-2.935-3.3-1.468-1.648.6-.534,1.468,1.648Z" transform="translate(-123.42 -30.47)"/>
        <rect id="Rectángulo_403589" data-name="Rectángulo 403589" width="0.804" height="1.206" transform="translate(517.122 138.491) rotate(-41.65)"/>
        <rect id="Rectángulo_403590" data-name="Rectángulo 403590" width="0.804" height="1.206" transform="matrix(0.986, -0.167, 0.167, 0.986, 560.395, 82.282)"/>
        <path id="Trazado_925588" data-name="Trazado 925588" d="M704.2,143.314l-.412-2.431.792-.134.413,2.431Zm-.825-4.863-.412-2.431.793-.134.411,2.431Zm-.825-4.862-.413-2.431.792-.134.413,2.431Zm-.826-4.863-.412-2.431.792-.134.413,2.431Zm-.825-4.863-.413-2.43.793-.134.412,2.43ZM700.078,119l-.413-2.431.792-.134.413,2.431Zm-.826-4.863-.411-2.43.792-.134.412,2.43Zm-.825-4.862-.413-2.431.793-.134.412,2.431Z" transform="translate(-137.005 -20.945)"/>
        <path id="Trazado_925589" data-name="Trazado 925589" d="M707.215,157.168l-1.783-1.087.42-.686.275.169-.054-.319.792-.134Z" transform="translate(-138.461 -30.445)"/>
        <path id="Trazado_925590" data-name="Trazado 925590" d="M698.084,151.668l-2.135-1.3.419-.686,2.135,1.3Zm-4.269-2.6-2.135-1.3.42-.686,2.135,1.3Zm-4.27-2.6-2.135-1.3.419-.686,2.135,1.3Zm-4.27-2.6-2.135-1.3.42-.686,2.135,1.3ZM681,141.25l-2.135-1.3.419-.686,2.135,1.3Z" transform="translate(-133.247 -27.334)"/>
        <path id="Trazado_925591" data-name="Trazado 925591" d="M675.211,138.142l-1.984-2.64,2.82,1.72-.234.383.04.054-.136.1-.089.146-.059-.035Z" transform="translate(-132.14 -26.596)"/>
        <rect id="Rectángulo_403591" data-name="Rectángulo 403591" width="0.804" height="1.804" transform="matrix(0.799, -0.601, 0.601, 0.799, 544.154, 112.988)"/>
        <rect id="Rectángulo_403592" data-name="Rectángulo 403592" width="0.803" height="1.206" transform="matrix(0.799, -0.601, 0.601, 0.799, 546.32, 115.871)"/>
        <path id="Trazado_925592" data-name="Trazado 925592" d="M633.522,154.988l-.568-.568.864-.864.568.568Zm2.569-2.569-.568-.568,1.705-1.7.568.568Zm3.41-3.41-.568-.568,1.7-1.7.568.568Z" transform="translate(-124.235 -28.801)"/>
        <path id="Trazado_925593" data-name="Trazado 925593" d="M675.823,157.8l-1.1-1.14.578-.558,1.1,1.14Zm-2.774-2.874-1.674-1.735.578-.558,1.674,1.734Zm-3.348-3.47-1.675-1.734.578-.559,1.675,1.735Zm-3.349-3.47-1.674-1.735.578-.558,1.674,1.735Z" transform="translate(-130.462 -28.597)"/>
        <path id="Trazado_925594" data-name="Trazado 925594" d="M652.4,167.249l-.2-.347h-.4c0-.235.011-.241.628-.588l.359-.2.395.7Zm2.884-1.628-.4-.7,2.1-1.191.4.7Zm4.205-2.384-.4-.7,2.1-1.2.4.7Zm4.2-2.393-.4-.7,2.094-1.2.4.7Zm4.191-2.408-.4-.7,2.088-1.212.405.694ZM672.055,156l-.409-.692c.792-.468,1.493-.887,2.07-1.24l.42.686c-.58.354-1.284.776-2.08,1.246m4.051-2.84-.626-.5a3.225,3.225,0,0,0,.747-1.972l.8.022a4.016,4.016,0,0,1-.924,2.455m-.405-4.61a8.11,8.11,0,0,0-1.293-1.875l.573-.563a8.754,8.754,0,0,1,1.442,2.086Z" transform="translate(-127.933 -28.679)"/>
        <path id="Trazado_925595" data-name="Trazado 925595" d="M677.14,152.988l-1.278-1.717.645-.479.707.949.187-.2.583.553Zm2.07-2.615s-.923-.5-2.067-1.108l.376-.71c1.148.61,2.074,1.112,2.074,1.112l.46.25-.359.379-.309-.244Zm-4.789-1.034-1.44-1.934.207-.154a1.645,1.645,0,0,0-.239-.092l.054-.8c.136,0,.29,0,2.371,1.071l-.367.715c-.292-.15-.543-.278-.76-.386l.82,1.1Z" transform="translate(-132.085 -28.727)"/>
        <path id="Trazado_925596" data-name="Trazado 925596" d="M350.353,335.676a87.185,87.185,0,0,1-21.622-2.9l.225-.771c.208.06,21,6.019,37.117.582l.256.76a50.5,50.5,0,0,1-15.976,2.326" transform="translate(-64.522 -65.166)"/>
        <path id="Trazado_925597" data-name="Trazado 925597" d="M364.435,333.14c-.009,0-.865-.251-2.32-.586l.181-.784c1.48.341,2.328.588,2.364.6Zm-30.767-.88-.227-.771c.758-.223,1.553-.427,2.363-.605l.172.784c-.791.175-1.567.374-2.308.592m26.1-.206c-.723-.141-1.513-.286-2.363-.425l.129-.792c.859.141,1.658.286,2.388.429Zm-4.737-.777c-.764-.1-1.561-.2-2.382-.279l.08-.8q1.248.125,2.409.28Zm-16.707-.05-.127-.794c.773-.122,1.585-.227,2.414-.313l.081.8c-.813.084-1.609.187-2.368.308m11.934-.428c-.783-.051-1.582-.091-2.394-.114l.023-.8c.823.023,1.632.064,2.424.116Zm-7.181-.064-.045-.8c.788-.043,1.6-.069,2.428-.077l.008.8q-1.186.012-2.391.076" transform="translate(-65.447 -64.743)"/>
        <rect id="Rectángulo_403593" data-name="Rectángulo 403593" width="1.206" height="0.804" transform="translate(248.454 261.693) rotate(-80.331)"/>
        <path id="Trazado_925598" data-name="Trazado 925598" d="M301.707,365.229l-.792-.135.412-2.432.792.135Zm.825-4.863-.792-.135.412-2.431.793.135Zm.825-4.863-.793-.135.413-2.43.792.135Zm.825-4.862-.793-.135.413-2.43.792.135Zm.825-4.862-.792-.135.413-2.431.792.135Zm.825-4.862-.792-.135.413-2.431.792.135Zm.825-4.863-.793-.135.412-2.431.793.135Zm.825-4.862-.792-.135.412-2.43.793.135Z" transform="translate(-59.063 -64.502)"/>
        <path id="Trazado_925599" data-name="Trazado 925599" d="M299.966,379.082l.35-2.06.792.135-.054.319.276-.168.418.686Z" transform="translate(-58.877 -74.001)"/>
        <path id="Trazado_925600" data-name="Trazado 925600" d="M304.738,373.582l-.419-.686,2.136-1.3.418.686Zm4.269-2.6-.418-.686,2.135-1.3.419.686Zm4.27-2.606-.419-.686,2.136-1.3.418.686Zm4.27-2.6-.419-.686,2.135-1.3.419.686Zm4.269-2.6-.419-.686,2.136-1.3.418.686Z" transform="translate(-59.731 -70.891)"/>
        <path id="Trazado_925601" data-name="Trazado 925601" d="M331.849,360.152l-.5-.3-.047.028-.055-.088-.088-.053.027-.046-.3-.5,2.415-1.473Z" transform="translate(-64.945 -70.213)"/>
        <path id="Trazado_925602" data-name="Trazado 925602" d="M326.418,368.513l-.69-.411,1.1-1.854.69.411Zm2.209-3.708-.69-.412,1.1-1.853.691.411Z" transform="translate(-63.933 -71.159)"/>
        <path id="Trazado_925603" data-name="Trazado 925603" d="M324.394,374.176l-1-1.121.768-1.288.691.411-.467.782.606.682Z" transform="translate(-63.476 -72.97)"/>
        <path id="Trazado_925604" data-name="Trazado 925604" d="M336.739,388.226l-1.468-1.649.6-.534,1.468,1.649Zm-2.936-3.3-1.468-1.648.6-.534,1.468,1.649Zm-2.936-3.3-1.468-1.649.6-.534,1.468,1.648Zm-2.935-3.3-1.468-1.649.6-.534,1.468,1.649Z" transform="translate(-64.078 -73.83)"/>
        <rect id="Rectángulo_403594" data-name="Rectángulo 403594" width="0.805" height="1.205" transform="matrix(0.747, -0.665, 0.665, 0.747, 274.128, 316.045)"/>
        <rect id="Rectángulo_403595" data-name="Rectángulo 403595" width="0.804" height="1.206" transform="matrix(0.986, -0.167, 0.167, 0.986, 317.095, 259.836)"/>
        <path id="Trazado_925605" data-name="Trazado 925605" d="M401.488,364.229l-.412-2.432.792-.135.412,2.432Zm-.825-4.862-.413-2.431.793-.135.412,2.431Zm-.825-4.863-.412-2.43.792-.135.413,2.43Zm-.825-4.863-.412-2.43.792-.135.413,2.43Zm-.825-4.862-.413-2.431.792-.135.413,2.431Zm-.825-4.862-.413-2.431.792-.135.413,2.431Zm-.825-4.863-.413-2.431.793-.135.412,2.431Zm-.825-4.863-.413-2.43.793-.135.412,2.43Z" transform="translate(-77.588 -64.306)"/>
        <path id="Trazado_925606" data-name="Trazado 925606" d="M404.5,378.082l-1.782-1.087.418-.686.276.169-.054-.32.792-.135Z" transform="translate(-79.044 -73.805)"/>
        <path id="Trazado_925607" data-name="Trazado 925607" d="M395.368,372.583l-2.135-1.3.418-.686,2.135,1.3Zm-4.269-2.6-2.135-1.3.419-.686,2.135,1.3Zm-4.27-2.606-2.135-1.3.418-.686,2.135,1.3Zm-4.27-2.6-2.135-1.3.419-.686,2.135,1.3Zm-4.269-2.6-2.135-1.3.418-.686,2.135,1.3Z" transform="translate(-73.831 -70.695)"/>
        <path id="Trazado_925608" data-name="Trazado 925608" d="M372.494,359.057l-1.984-2.641,2.819,1.72-.234.383.041.054-.137.1-.088.146-.058-.035Z" transform="translate(-72.723 -69.957)"/>
        <rect id="Rectángulo_403596" data-name="Rectángulo 403596" width="0.805" height="1.804" transform="matrix(0.799, -0.601, 0.601, 0.799, 300.853, 290.542)"/>
        <rect id="Rectángulo_403597" data-name="Rectángulo 403597" width="0.805" height="1.205" transform="matrix(0.799, -0.601, 0.601, 0.799, 303.02, 293.426)"/>
        <path id="Trazado_925609" data-name="Trazado 925609" d="M331.187,375.9l-.568-.568.864-.864.568.568Zm2.569-2.569-.568-.568,1.7-1.706.568.568Zm3.41-3.41-.568-.568,1.7-1.7.568.568Z" transform="translate(-64.893 -72.162)"/>
        <path id="Trazado_925610" data-name="Trazado 925610" d="M333.561,377.942l-.568-.568.864-.864.568.568Zm2.569-2.569-.568-.568,1.7-1.705.568.568Zm3.41-3.41-.568-.568,1.7-1.7.568.568Z" transform="translate(-65.359 -72.562)"/>
        <path id="Trazado_925611" data-name="Trazado 925611" d="M372.217,378.4l-1.1-1.139.579-.559,1.1,1.139Zm-2.774-2.874-1.674-1.734.578-.559,1.675,1.734Zm-3.348-3.47-1.675-1.734.579-.559,1.674,1.734Zm-3.349-3.47-1.674-1.734.578-.559,1.675,1.735Z" transform="translate(-70.87 -71.894)"/>
        <path id="Trazado_925612" data-name="Trazado 925612" d="M348.6,387.9a.316.316,0,0,1-.166-.062l.2-.347-.189-.354.773-.436.4.7c-.673.379-.886.5-1.017.5m3.123-1.689-.4-.7,2.1-1.189.4.7Zm4.206-2.385-.4-.7,2.1-1.2.4.7Zm4.2-2.392-.4-.7,2.1-1.2.4.7Zm4.189-2.409-.4-.7c.722-.417,1.422-.824,2.089-1.211l.4.694c-.668.389-1.369.8-2.091,1.213m4.178-2.434-.409-.693c.791-.467,1.493-.886,2.07-1.24l.419.686c-.58.354-1.284.776-2.079,1.247m4.05-2.842-.624-.506a3.214,3.214,0,0,0,.747-1.97l.8.02a4,4,0,0,1-.926,2.455m-.4-4.609a8.009,8.009,0,0,0-1.294-1.874l.574-.564a8.741,8.741,0,0,1,1.442,2.086Z" transform="translate(-68.391 -71.976)"/>
        <path id="Trazado_925613" data-name="Trazado 925613" d="M373.533,373.579l-1.276-1.714.644-.48.707.948.188-.2.583.555Zm2.066-2.618c-.049-.027-.95-.515-2.062-1.106l.377-.71c2.284,1.214,2.284,1.214,2.284,1.466v.16l-.11.116-.309-.244Zm-.2-.35h0Zm-4.578-.68L369.376,368l.207-.155a1.827,1.827,0,0,0-.24-.093l.054-.8c.135,0,.289,0,2.371,1.071l-.367.715c-.293-.15-.544-.278-.759-.386l.82,1.1Z" transform="translate(-72.494 -72.024)"/>
      </g>
    </g>
    <rect id="Rectángulo_403499" data-name="Rectángulo 403499" width="153" height="39" rx="19.5" transform="translate(483.051 3534)" fill="#de8561"/>
    <rect id="Rectángulo_403500" data-name="Rectángulo 403500" width="77" height="26" rx="13" transform="translate(685.051 3508)" fill="#de8561"/>
    <rect id="Rectángulo_403502" data-name="Rectángulo 403502" width="88" height="26" rx="13" transform="translate(685.051 3644)" fill="#de8561"/>
    <rect id="Rectángulo_403501" data-name="Rectángulo 403501" width="77" height="26" rx="13" transform="translate(666.051 3381)" fill="#de8561"/>
    <text id="Delanteros" transform="translate(516.051 3560)" fill="#12263f" font-size="18" font-family="Roboto-Bold, Roboto" font-weight="700"><tspan x="0" y="0">Delanteros</tspan></text>
    <text id="Espalda" transform="translate(692.051 3527)" fill="#12263f" font-size="18" font-family="Roboto-Bold, Roboto" font-weight="700"><tspan x="0" y="0">Espalda</tspan></text>
    <text id="Cuello" transform="translate(704.051 3663)" fill="#12263f" font-size="18" font-family="Roboto-Bold, Roboto" font-weight="700"><tspan x="0" y="0">Cuello</tspan></text>
    <text id="Mangas" transform="translate(672.051 3400)" fill="#12263f" font-size="18" font-family="Roboto-Bold, Roboto" font-weight="700"><tspan x="0" y="0">Mangas</tspan></text>
  </g>
</svg>
