<svg xmlns="http://www.w3.org/2000/svg" xmlns:xlink="http://www.w3.org/1999/xlink" width="91.829" height="91.1" viewBox="0 0 91.829 91.1">
  <defs>
    <clipPath id="clip-path">
      <rect id="Rectángulo_403517" data-name="Rectángulo 403517" width="91.829" height="91.1" fill="#12263f"/>
    </clipPath>
  </defs>
  <g id="Grupo_1103164" data-name="Grupo 1103164" clip-path="url(#clip-path)">
    <path id="Trazado_925421" data-name="Trazado 925421" d="M19.368,125.959v-4.991c-2.5-.455-4.021-1.868-3.944-4.692-.545-.19-1.094-.368-1.633-.573-3.3-1.257-5.327-5.718-3.98-8.938a1.641,1.641,0,0,1,1.357-.775,1.713,1.713,0,0,1,1.085,1.129,14.366,14.366,0,0,1,.079,2.494,3.644,3.644,0,0,0,3.7,3.8q5.1.135,10.2,0a3.561,3.561,0,0,0,3.637-3.46c.382-2.865,1.622-4.012,4.464-4.019q10.92-.026,21.84,0c4.361.018,6.987,2.672,7.02,7.051q.044,5.907,0,11.815c-.037,4.335-2.721,6.972-7.09,6.986-5.848.018-11.7,0-17.543,0H36.484V151.4H38.6q23.54,0,47.08,0c3.53,0,5.331,3.124,3.522,6.268a4.136,4.136,0,0,1-1.959,1.318,4.272,4.272,0,0,1-1.6.065q-40.815,0-81.63.008c-1.524,0-3.061.093-3.752-1.687a6.4,6.4,0,0,1,1.073-5.639,2.721,2.721,0,0,0,.634-1.684c.058-3.46.006-6.922.035-10.382.042-4.936,2.286-8.186,6.859-10.067a2.5,2.5,0,0,0,1.119-.787,6.369,6.369,0,0,1,6.157-2.867c1,.057,2.014.009,3.226.009m2.911,0c2.661,0,5.211.033,7.759-.01a6.469,6.469,0,0,1,5.053,2.238,3,3,0,0,0,1.923.892c6.32.066,12.641.058,18.961.03,3.027-.013,4.542-1.513,4.566-4.495.032-3.875.038-7.752,0-11.627-.029-2.771-1.57-4.37-4.323-4.386-7.215-.044-14.43-.006-21.645-.025-1.192,0-1.847.334-1.986,1.685a6.249,6.249,0,0,1-4.385,5.56c-.343.125-.863.435-.878.685-.189,3.126-2.05,4.368-5.042,4.418Zm11.373,25.37c0-6.7.063-13.245-.043-19.79a3.089,3.089,0,0,0-3.31-2.907q-7.517-.093-15.034,0a3.175,3.175,0,0,0-3.386,3.383c-.041,6.2-.012,12.41,0,18.614a3.1,3.1,0,0,0,.182.7Zm53.072,2.83H2.985V156.3H86.725ZM8.935,151.3V132.5a7.181,7.181,0,0,0-4.174,6.575c-.039,3.1-.01,6.192-.011,9.287,0,.982,0,1.965,0,2.942Zm15.44-35.108h-6.13c-.289,1.732.691,1.947,1.969,1.963,4.062.054,4.087.059,4.161-1.963" transform="translate(0 -67.998)" fill="#12263f"/>
    <path id="Trazado_925422" data-name="Trazado 925422" d="M76.729,15.338c.388-3.164.754-6.241,1.146-9.315.3-2.382.9-3.037,2.931-3.913L82.671,0l1.775,1.973-.457.4c2.687.237,3.289,2.02,3.5,4.237.277,2.9.712,5.782,1.093,8.783a14.4,14.4,0,0,1,11.027,5.5c2.758,3.512,3.115,7.618,2.858,11.749.267.159.367.273.46.267,4.082-.272,5.885,1.954,5.72,6.064-.2,4.884-.046,9.782-.046,14.674s-.989,5.961-6.106,6.284v1.878c0,4.951.01,9.9-.008,14.854,0,1.087.3,2.556-1.428,2.511-1.568-.041-1.308-1.435-1.309-2.468q-.019-23.445-.016-46.89c-.007-5.721-3.283-10.02-8.532-11.314a3.044,3.044,0,0,0-.7-.153C84.251,18.34,78,18.341,71.5,18.341c0,2.641.008,5.25,0,7.858-.013,3.548-1.177,4.71-4.719,4.719-2.327.006-4.654.026-6.98-.008-2.594-.038-3.994-1.375-4.054-3.966-.064-2.8-.015-5.6-.015-8.313-.187-.171-.275-.32-.363-.321-5.545-.008-11.1-.238-16.632.068-5.251.291-9.42,5.272-9.574,10.783a33.492,33.492,0,0,1-.08,3.75,1.749,1.749,0,0,1-1.189,1.2,1.742,1.742,0,0,1-1.307-1.061,14.6,14.6,0,0,1,8.922-16.7,2.766,2.766,0,0,1,.678-.217c1.975-.179,3.174-.923,2.824-3.236-.062-.408.884-.969,1.364-1.459.421.487,1.045.913,1.213,1.476a9.117,9.117,0,0,1,.051,2.427Zm25.858,41.587c2.813.427,3.286.042,3.29-2.652q.011-7.95,0-15.9c-.005-2.567-.76-3.121-3.289-2.453ZM85.82,15.372,84.545,5.258H80.726c-.42,3.418-.829,6.735-1.244,10.114ZM62.2,18.343H58.465c0,2.661.1,5.209-.034,7.744-.095,1.79.625,2.388,2.286,2.182.457-.057.919-.072,1.48-.114Zm2.823,9.918a12.437,12.437,0,0,0,2.421-.04c.488-.1,1.27-.574,1.281-.9.1-3,.058-6,.058-8.943H65.02Z" transform="translate(-16.829)" fill="#12263f"/>
    <path id="Trazado_925423" data-name="Trazado 925423" d="M167.215,196.852c0,4.476-2.732,6.254-6.745,4.579a2.482,2.482,0,0,0-1.108-.03c-.159.014-.3.187-.459.261-1.728.8-3.283-.137-4.916-.3-1.483-.15-3.133,1.194-4.9.384-2.354-1.081-3.381-4.58-2.127-7.313a4.469,4.469,0,0,1,6.076-2,4.625,4.625,0,0,0,1.712.04c.054,0,.108-.046.163-.07,1.733-.776,3.284.163,4.908.328,1.462.149,3.132-1.215,4.887-.395a4.226,4.226,0,0,1,2.508,4.521m-14.71.19c.106-1.237-.114-2.386-1.633-2.368-1.361.016-1.637,1.056-1.633,2.259s.111,2.407,1.609,2.457c1.516.05,1.763-1.094,1.657-2.348m6.034,0c.1-1.237-.166-2.359-1.658-2.369-1.4-.009-1.622,1.056-1.609,2.245s.013,2.424,1.561,2.466c1.489.041,1.8-1.064,1.706-2.342m2.735-.035c-.054,1.135.051,2.356,1.585,2.378,1.491.022,1.718-1.122,1.719-2.359s-.234-2.365-1.727-2.352c-1.412.012-1.628,1.111-1.576,2.333" transform="translate(-93.998 -123.235)" fill="#12263f"/>
    <path id="Trazado_925424" data-name="Trazado 925424" d="M181.023,60.091a8.074,8.074,0,1,1,.052,16.148,8.074,8.074,0,0,1-.052-16.148m5.415,8.045A5.322,5.322,0,0,0,181.1,62.8a5.38,5.38,0,1,0,5.342,5.335" transform="translate(-111.08 -38.576)" fill="#12263f"/>
    <path id="Trazado_925425" data-name="Trazado 925425" d="M197.287,128.9a7.071,7.071,0,0,1,2.122.052c.495.163,1.147.787,1.156,1.219a1.683,1.683,0,0,1-1.086,1.261,25.61,25.61,0,0,1-4.8.006c-.449-.042-1.236-.9-1.157-1.185a2.165,2.165,0,0,1,1.286-1.305,9.27,9.27,0,0,1,2.48-.056v.009" transform="translate(-124.229 -82.702)" fill="#12263f"/>
    <path id="Trazado_925426" data-name="Trazado 925426" d="M197.08,144.641a7.628,7.628,0,0,1-2.3-.057,2.134,2.134,0,0,1-1.244-1.344c-.066-.316.726-1.131,1.188-1.177a22.047,22.047,0,0,1,4.626,0,1.957,1.957,0,0,1,1.219,1.344c.066.313-.689,1.029-1.187,1.172a8.6,8.6,0,0,1-2.3.052v.006" transform="translate(-124.241 -91.122)" fill="#12263f"/>
    <path id="Trazado_925427" data-name="Trazado 925427" d="M56.78,175.97c0,.415.153.926-.034,1.223a8.889,8.889,0,0,1-1.325,1.387c-.44-.47-1.074-.871-1.27-1.428a3.467,3.467,0,0,1-.013-2.1c.221-.67.731-1.634,1.255-1.734,1.15-.221,1.393.8,1.417,1.764.007.3,0,.593,0,.89Z" transform="translate(-34.654 -111.243)" fill="#12263f"/>
    <path id="Trazado_925428" data-name="Trazado 925428" d="M56.78,216.959c0,.415.153.926-.034,1.223a8.914,8.914,0,0,1-1.325,1.389c-.44-.47-1.074-.872-1.271-1.428a3.467,3.467,0,0,1-.013-2.1c.221-.67.73-1.632,1.254-1.734,1.15-.222,1.393.8,1.418,1.762.008.3,0,.593,0,.89H56.78" transform="translate(-34.654 -137.557)" fill="#12263f"/>
    <path id="Trazado_925429" data-name="Trazado 925429" d="M54.2,196.434a4.254,4.254,0,0,1,.127-1.649,1.981,1.981,0,0,1,1.281-.942,1.424,1.424,0,0,1,1.143.822,14.276,14.276,0,0,1,.012,3.5,1.419,1.419,0,0,1-1.125.837,1.885,1.885,0,0,1-1.293-.909,4.356,4.356,0,0,1-.145-1.661" transform="translate(-34.784 -124.438)" fill="#12263f"/>
  </g>
</svg>
