<svg xmlns="http://www.w3.org/2000/svg" xmlns:xlink="http://www.w3.org/1999/xlink" width="125" height="125" viewBox="0 0 125 125">
  <defs>
    <linearGradient id="linear-gradient" x1="0.5" x2="0.5" y2="1" gradientUnits="objectBoundingBox">
      <stop offset="0" stop-color="#d898b0"/>
      <stop offset="1" stop-color="#f8c2dd"/>
    </linearGradient>
    <clipPath id="clip-path">
      <rect id="Rectángulo_403513" data-name="Rectángulo 403513" width="66.709" height="66.703" fill="url(#linear-gradient)"/>
    </clipPath>
  </defs>
  <g id="Grupo_1103247" data-name="Grupo 1103247" transform="translate(-949 -3748.753)">
    <circle id="Elipse_11555" data-name="Elipse 11555" cx="62.5" cy="62.5" r="62.5" transform="translate(949 3748.753)" fill="#efc6ca"/>
    <circle id="Elipse_11550" data-name="Elipse 11550" cx="60" cy="60" r="60" transform="translate(950 3751.753)" fill="#fff"/>
    <path id="Trazado_924878" data-name="Trazado 924878" d="M-8377-6842.439s16-32.561,52.5-30.061" transform="translate(9338 10634.753)" fill="none" stroke="#efc6ca" stroke-width="2" stroke-dasharray="6 6"/>
    <g id="Grupo_1103157" data-name="Grupo 1103157" transform="translate(977.646 3772.385)">
      <g id="Grupo_1103156" data-name="Grupo 1103156" clip-path="url(#clip-path)">
        <path id="Trazado_925403" data-name="Trazado 925403" d="M61.5,39.023c4.01.692,4.032.718,3.92,4.668-.054,1.894-.536,2.227-3.891,2.614v2.974c.757,0,1.562-.01,2.366,0,1.981.03,2.795.821,2.8,2.755.012,2.647.017,5.294,0,7.94a2.255,2.255,0,0,1-2.546,2.574c-2.034.023-4.068.005-6.3.005,0,.626.017,1.169,0,1.711a2.226,2.226,0,0,1-2.332,2.407q-3.189.061-6.379,0A2.176,2.176,0,0,1,46.813,64.4c-.036-.554-.006-1.112-.006-1.753h-26.8c-.029.375-.079.786-.091,1.2-.062,2.148-.769,2.835-2.953,2.841q-2.6.007-5.208,0c-2.135-.007-2.866-.744-2.893-2.9,0-.344,0-.689,0-1.225-1.958,0-3.852,0-5.745,0-2.436,0-3.1-.663-3.106-3.065,0-2.473.02-4.947-.009-7.42A2.406,2.406,0,0,1,1.62,49.416c.159-.055.386-.121.441-.244.814-1.843,2.441-1.65,4.009-1.643,2.551.011,5.1,0,8.126,0a6.692,6.692,0,0,0-.941-1.416c-.716-.575-.741-1.068-.1-1.712a11.975,11.975,0,0,0,1.011-1.359c-2.341-.994-2.341-.994-2.921-4.442-.773,0-1.584.014-2.393,0a3.505,3.505,0,0,1-3.789-3.844c-.047-3.47-.016-6.942-.013-10.413,0-1.084-.049-2.175.04-3.252a5.951,5.951,0,0,1,5.407-5.857c.254-.043.507-.1.744-.141.846-4.1.846-4.1,4.726-3.937,1.836.075,2.137.525,2.579,3.919H37.953q0-2.524,0-5.032c0-1.128-.031-2.258.022-3.384a2.849,2.849,0,0,1,5.7-.1c.106,1.817.039,3.643.045,5.465,0,.989,0,1.978,0,3.13h4.205c.188-1.11.307-2.044-.641-2.715a.379.379,0,0,1-.076-.105c-.82-1.24-.45-6.813.4-8.025a3.432,3.432,0,0,0,.408-1.795C48.079.456,48.5.01,50.571.008c.868,0,1.737-.02,2.6.005C54.427.049,55.013.6,55.036,1.84c.021,1.116-.117,2.208.9,3.079.313.268.344.959.361,1.461a30.638,30.638,0,0,1-.022,4.161,12.245,12.245,0,0,1-.85,2.326c-.216.661-.346,1.35-.555,2.193,3.436.288,5.649,1.863,6.482,5.193.538,0,1.052-.014,1.566,0,1.722.054,2.488.84,2.5,2.614q.023,4.751,0,9.5c-.007,1.9-.776,2.667-2.68,2.736-.384.014-.767.034-1.238.055ZM13.9,17.164c-.974,0-1.789-.015-2.6,0a4.015,4.015,0,0,0-4.246,4.246c-.028,4.382-.016,8.764,0,13.146,0,1.576.526,2.1,2.112,2.118,2.3.022,4.6-.014,6.9.013a1.942,1.942,0,0,0,2.192-1.73c.531-2.47,1.659-3.36,4.173-3.371q4.621-.021,9.243,0c2.877.014,4.195,1.342,4.207,4.251.016,3.948,0,7.9,0,11.844v1.461H59.415V47.773q0-12.885,0-25.77c0-3.35-1.483-4.837-4.834-4.838q-18.616-.006-37.232,0H15.891c0,1.137.055,2.089-.016,3.032a1.7,1.7,0,0,0,1.056,1.9c2.555,1.366,3,5.136.554,6.6-1.748,1.045-1.587,2.281-1.595,3.742a2.305,2.305,0,0,1-.021.9c-.249.517-.559,1.338-.937,1.393-.912.133-1.032-.693-1.035-1.432,0-.824-.051-1.653.012-2.472a1.453,1.453,0,0,0-.947-1.593c-2.691-1.43-3.093-5.18-.552-6.765A3.022,3.022,0,0,0,13.9,19.2c-.032-.6-.005-1.211-.005-2.032M4.152,49.6,3.942,50c.162.07.325.138.485.212,3.31,1.515,6.612,3.05,9.941,4.521a1.838,1.838,0,0,0,1.321-.1c3.087-1.377,6.154-2.8,9.221-4.219a7.563,7.563,0,0,0,.866-.548A2.273,2.273,0,0,0,24.44,49.5q-2.669-.012-5.339,0c-.742,0-1.5-.05-1.49-1,.005-.873.727-.96,1.416-.961,2.04,0,4.081-.025,6.12.01,1.445.024,2.306.666,2.508,1.8a2.3,2.3,0,0,1-1.526,2.7c-3.35,1.531-6.68,3.111-10.069,4.553a3.306,3.306,0,0,1-2.34,0C10.333,55.142,7,53.566,3.655,52.025c-.486-.224-.943-.508-1.6-.865-.034.69-.075,1.153-.076,1.617-.007,2.083.084,4.171-.034,6.247-.077,1.368.41,1.641,1.7,1.638q29.69-.061,59.38-.029a3.263,3.263,0,0,0,1.033-.033c.262-.092.626-.39.638-.614.063-1.19.03-2.385.03-3.684H63.1c-4.384,0-8.768.01-13.152-.01-.771,0-1.913.306-1.947-.9-.037-1.333,1.17-1,1.969-1,4.514-.024,9.029,0,13.542-.038.4,0,1.094-.311,1.149-.579a12.963,12.963,0,0,0,.055-2.489H62.691q-16.082,0-32.164,0c-.743,0-1.629.063-1.627-1s.889-.993,1.63-1c1.073-.011,2.146,0,3.207,0a2.479,2.479,0,0,0,.133-.49c.007-4.47.023-8.94,0-13.41C33.865,34.122,33.305,33.6,32,33.6c-3.255-.021-6.511.019-9.766-.021a1.922,1.922,0,0,0-2.1,1.676,18.582,18.582,0,0,1-1.04,2.328,5.185,5.185,0,0,0-.638,1.7c-.091,2.444-.252,2.739-2.566,3.629,0,2.359.044,4.745-.042,7.126-.015.414-.58.809-.891,1.213a10.745,10.745,0,0,1-1.014-.989c-.137-.171-.115-.47-.153-.657ZM48.876,9.565c-.378,1.41-.026,1.986,1.332,1.859a24.1,24.1,0,0,1,3.112-.01c.765.028,1.11-.238,1.083-1.043-.042-1.209-.032-2.421,0-3.632.017-.705-.228-1.026-.976-1-1.079.043-2.162.008-3.243.011-1.557,0-1.62.092-1.246,1.828a12.772,12.772,0,0,1,2.418.043c.429.084.77.612,1.152.939-.38.333-.72.87-1.15.955a13.06,13.06,0,0,1-2.477.044M61.414,33.021h2.077v-1.48q0-3.835,0-7.67c0-1.843-.008-1.848-1.99-1.555a4.093,4.093,0,0,0-.083.595c-.005,3.332,0,6.664,0,10.11M39.9,15.093H41.7c0-2.815.029-5.573-.038-8.329-.008-.332-.53-.651-.814-.977-.318.34-.9.673-.913,1.022-.077,2.717-.042,5.436-.042,8.284M11.007,62.621c-.436,1.968-.341,2.1,1.511,2.1q1.82,0,3.639,0c2.021,0,2.037-.022,1.648-2.1ZM55.8,64.7V62.659H48.38c.407.842.661,1.939,1,1.964,2.1.16,4.222.081,6.425.081M14.847,23.468a2.147,2.147,0,0,0-2.1,2.184,2.146,2.146,0,1,0,4.289-.1,2.147,2.147,0,0,0-2.193-2.087m1.512,15.248H13.44v1.912h2.92ZM13.422,15.039h3.03c-.034-.7-.062-1.278-.088-1.828-3.012-.42-3.147-.335-2.942,1.828M61.527,41.205V44.2c2.115.143,2.468-.5,1.724-2.991ZM50.087,15.056h2.964V13.422H50.087Zm0-11.334h2.937V2.054H50.084Z" transform="translate(0 0)" fill="url(#linear-gradient)"/>
        <path id="Trazado_925404" data-name="Trazado 925404" d="M169.947,123.847a7.251,7.251,0,0,1-7.216,7.315,7.29,7.29,0,1,1-.052-14.579,7.252,7.252,0,0,1,7.267,7.264m-12.582.051a5.332,5.332,0,0,0,5.3,5.3,5.329,5.329,0,1,0-.049-10.657,5.331,5.331,0,0,0-5.252,5.353" transform="translate(-114.908 -86.228)" fill="url(#linear-gradient)"/>
        <path id="Trazado_925405" data-name="Trazado 925405" d="M166.923,77.766c1.429,0,2.86-.036,4.287.012a2.2,2.2,0,0,1,2.306,2.409c.095,2.064-.535,3.212-2.1,3.268-3.027.109-6.063.11-9.091,0-1.567-.055-2.25-1.256-2.144-3.252a2.288,2.288,0,0,1,2.449-2.435c1.428-.038,2.858-.008,4.288-.006m4.516,3.743c.266-1.807.258-1.82-1.325-1.822q-3.253,0-6.506,0c-1.53,0-1.551.034-1.268,1.728a5.7,5.7,0,0,0,.727.09c2.769.007,5.538,0,8.372,0" transform="translate(-118.47 -57.509)" fill="url(#linear-gradient)"/>
        <path id="Trazado_925406" data-name="Trazado 925406" d="M103.72,208.855h9.356c.707,0,1.533-.043,1.552.926.02,1.068-.856,1-1.6,1q-9.486,0-18.972,0c-.722,0-1.542.009-1.561-.925-.022-1.04.859-1,1.614-1q4.808,0,9.616,0" transform="translate(-68.409 -154.475)" fill="url(#linear-gradient)"/>
        <path id="Trazado_925407" data-name="Trazado 925407" d="M173.518,138.128a3.5,3.5,0,0,1,.013-7.008,3.5,3.5,0,1,1-.013,7.008m1.753-3.155.011-.632c-.556-.4-1.067-1.039-1.677-1.154-.962-.182-1.552.516-1.539,1.475.012.894.584,1.568,1.485,1.4.619-.114,1.15-.71,1.72-1.091" transform="translate(-125.788 -96.98)" fill="url(#linear-gradient)"/>
      </g>
    </g>
  </g>
</svg>
